<?xml version="1.0" standalone="no"?>
<!DOCTYPE svg PUBLIC "-//W3C//DTD SVG 1.1//EN" "http://www.w3.org/Graphics/SVG/1.1/DTD/svg11.dtd" >
<svg>
<metadata>
Created by FontForge 20120731 at Sun Oct  5 15:22:40 2014
 By World Wide Web Server
Copyright (c) Alexandra Gophmann, 2006. All rights reserved.
</metadata>
<defs>
<font id="Majestic-" horiz-adv-x="725" >
  <font-face 
    font-family="Majestic"
    font-weight="400"
    font-stretch="normal"
    units-per-em="2048"
    panose-1="3 0 6 0 0 0 0 2 0 0"
    ascent="1638"
    descent="-410"
    x-height="704"
    cap-height="1533"
    bbox="-462 -543 3310 1795"
    underline-thickness="150"
    underline-position="-227"
    unicode-range="U+0020-25CA"
  />
<missing-glyph horiz-adv-x="1372" 
d="M1200 1193v-1032h-1032v1032h1032zM258 1107v-860h852v860h-852z" />
    <glyph glyph-name=".notdef" horiz-adv-x="1372" 
d="M1200 1193v-1032h-1032v1032h1032zM258 1107v-860h852v860h-852z" />
    <glyph glyph-name="NULL" horiz-adv-x="0" 
 />
    <glyph glyph-name="space" unicode=" " horiz-adv-x="569" 
 />
    <glyph glyph-name="space" unicode="&#xa0;" horiz-adv-x="569" 
 />
    <glyph glyph-name="logicalnot" unicode="&#xac;" horiz-adv-x="819" 
d="M1036 423v-281h-59v222h-508v59h567z" />
    <glyph glyph-name="pi" unicode="&#x3c0;" horiz-adv-x="1294" 
d="M1262 878l-25 -107h-311q-45 -219 -63.5 -374.5t-30 -253t-31 -143t-64.5 -45.5q-35 2 -54 24.5t-19 52.5q0 35 16 90t45 141t66.5 211t80.5 297h-360q-45 -219 -63.5 -374.5t-28.5 -253t-29.5 -143t-68.5 -45.5q-35 2 -53.5 23t-18.5 54q0 35 15.5 90t44 141t66.5 211
t83 297h-189q-74 2 -112.5 -53t-69.5 -193h-63q39 208 122 282.5t189 70.5h926z" />
    <glyph glyph-name="Sigma" unicode="&#x2211;" horiz-adv-x="1116" 
d="M-34 1461h765q56 -2 62.5 24t-21.5 101h70l94 -334h-64q-26 104 -45.5 127t-48.5 19h-645l731 -678v-33l-696 -592h717q60 -5 85 27.5t62 167.5h68l-133 -431h-62q29 100 25.5 122.5t-41.5 18.5h-921v5l796 676l-798 737v43z" />
    <glyph glyph-name="Omega" unicode="&#x2126;" horiz-adv-x="1559" 
d="M780 1486q272 -5 428.5 -173t159.5 -433q-5 -237 -94 -426t-203 -336v-23h318l77 230h60l-101 -325h-487q55 99 109.5 201.5t100.5 209t72.5 221.5t28.5 239q2 210 -110 376t-359 175q-247 -9 -359 -175t-110 -376q0 -124 25.5 -239t72 -221.5t100.5 -209t114 -201.5
h-488l-100 325h59l78 -230h317v23q-114 147 -202.5 336t-93.5 426q3 265 159 433t428 173z" />
    <glyph glyph-name="infinity" unicode="&#x221e;" horiz-adv-x="1700" 
d="M834 704q70 148 150.5 212t172.5 62q120 -2 210 -99t95 -270q0 -151 -73.5 -256t-219.5 -110q-89 -2 -158.5 58t-144.5 200q-71 -138 -147 -201.5t-174 -62.5q-127 3 -215 104.5t-92 265.5q0 136 70.5 247t217.5 118q111 -2 182 -74.5t126 -193.5zM535 867
q-111 -2 -179.5 -77.5t-70.5 -196.5q4 -139 72.5 -208t154.5 -69q90 -1 159.5 82t143.5 263q-59 115 -129.5 161.5t-150.5 44.5zM1190 894q-88 2 -156 -79t-151 -265q55 -99 123 -152.5t168 -54.5q98 0 169 71.5t74 207.5q-4 135 -72.5 203.5t-154.5 68.5z" />
    <glyph glyph-name="greaterequal" unicode="&#x2265;" horiz-adv-x="1702" 
d="M264 1160l1172 -401v-68l-1172 -403v88l1043 350l-1043 348v86zM264 124h1172v-78h-1172v78z" />
    <glyph glyph-name="lessequal" unicode="&#x2264;" horiz-adv-x="1700" 
d="M1434 1158v-84l-1041 -348l1043 -352v-86l-1172 403v68zM1434 124v-78h-1170v78h1170z" />
    <glyph glyph-name="divide" unicode="&#xf7;" horiz-adv-x="819" 
d="M469 312h567v-59h-567v59zM690 44q0 24 17 43.5t45 20.5q30 -1 46.5 -19.5t16.5 -44.5q0 -23 -16.5 -39.5t-44.5 -18.5q-24 1 -43.5 15t-20.5 43zM815 519q0 -22 -16.5 -41t-44.5 -20q-24 0 -43.5 16t-20.5 45q0 24 17 43.5t45 20.5q30 -1 46.5 -19.5t16.5 -44.5z" />
    <glyph glyph-name="exclam" unicode="!" horiz-adv-x="682" 
d="M184 52q1 40 31 81t80 44q34 -2 46 -24.5t11 -47.5q-1 -42 -31 -78t-77 -39q-29 2 -44.5 19t-15.5 45zM539 648q94 191 144 316t80 194.5t58.5 98t77.5 26.5q35 0 53.5 -12t18.5 -37q-2 -25 -38 -83t-97.5 -145t-138 -201t-158.5 -251q-108 -182 -132.5 -234.5
t-39.5 -46.5q-9 0 -12 4.5t-3 12.5q0 11 48 96.5t139 261.5z" />
    <glyph glyph-name="quotedbl" unicode="&#x22;" horiz-adv-x="682" 
d="M897 943q-1 -70 -10 -182.5t-17 -190.5q0 -22 -3 -36t-15 -15q-13 1 -17 15t-4 36q-7 78 -16 190.5t-10 182.5q-2 41 8 67t39 27q27 -1 37 -27t8 -67zM535 943q-3 41 7.5 67t39.5 27q27 -1 37 -27t8 -67q-1 -70 -10.5 -182.5t-16.5 -190.5q0 -22 -3 -36t-15 -15
q-14 1 -17.5 15t-3.5 36q-7 78 -16 190.5t-10 182.5z" />
    <glyph glyph-name="numbersign" unicode="#" horiz-adv-x="797" 
d="M872 951h62l-107 -311h152v-51h-172l-80 -223h152v-52h-172l-107 -314h-61l110 314h-194l-109 -314h-63l110 314h-147v52h168l75 223h-147v51h168l108 311h62l-109 -311h197zM670 366l75 223h-192l-78 -223h195z" />
    <glyph glyph-name="dollar" unicode="$" horiz-adv-x="1024" 
d="M602 456l53 90q-70 69 -104.5 127t-34.5 117q0 101 85.5 182t258.5 86q32 0 53 -3t31 -5q50 68 92.5 101.5t91.5 33.5q23 -1 32 -8.5t9 -14.5q0 -6 -3.5 -10t-10.5 -4q-9 1 -19.5 5t-25.5 5q-49 -6 -87.5 -51.5t-49.5 -60.5q64 -21 109.5 -61.5t47.5 -104.5
q-3 -78 -66.5 -124.5t-154.5 -47.5q-50 1 -78 11t-43 17q-16 -23 -28 -46.5t-23 -41.5q83 -78 150 -165t71 -177q6 -96 -87.5 -200.5t-354.5 -113.5q-63 2 -105 6t-51 5q-34 -46 -92 -99.5t-137 -59.5q-51 3 -74.5 24.5t-23.5 35.5q0 11 6 16t14 4q13 -3 21 -27.5t59 -29.5
q77 9 132 66.5t69 73.5q-115 38 -172.5 103t-57.5 145q2 112 85.5 182t220.5 72q66 -1 113 -17t79 -36zM797 757q12 -10 29 -17.5t53 -7.5q83 2 136.5 43.5t55.5 104.5q-2 54 -36 87.5t-79 51.5zM741 830q1 -22 11.5 -34.5t21.5 -22.5q31 52 77.5 127.5t80.5 126.5
q-14 6 -32.5 9t-41.5 3q-110 -2 -181 -52t-73 -130q1 -60 34 -103.5t79 -86.5l49 88q-24 24 -33 42t-8 36q1 24 14.5 48.5t32.5 26.5q7 0 8.5 -3.5t1.5 -8.5q-3 -9 -20.5 -21t-20.5 -45zM672 525l-49 -84q24 -18 46 -48.5t23 -74.5q4 -44 -39 -94.5t-182 -54.5l-98 -150
q8 -1 43.5 -7t97.5 -7q169 3 252.5 69t83.5 161q-5 95 -64.5 168t-113.5 122zM442 173q-66 15 -99 41t-32 59q1 22 15 41.5t30 20.5q7 0 11 -3.5t4 -8.5q-3 -14 -21.5 -21.5t-21.5 -30.5q-1 -26 27 -47.5t98 -34.5l133 232q-34 17 -74 29t-96 12q-127 -2 -205 -63.5
t-80 -153.5q-2 -63 45 -121.5t168 -97.5zM608 409l-129 -224q112 4 152.5 47.5t38.5 81.5q-2 41 -22.5 61.5t-39.5 33.5z" />
    <glyph glyph-name="percent" unicode="%" horiz-adv-x="1366" 
d="M215 415q12 231 149.5 379t253.5 153q65 -2 92.5 -53.5t26.5 -128.5q-9 -200 -134 -359.5t-257 -168.5q-70 2 -101 52.5t-30 125.5zM537 894q-83 -92 -173.5 -281t-97.5 -278q0 -39 19 -60.5t53 -21.5q20 0 42.5 10t45.5 33q63 68 156 250t102 309q0 32 -16 54.5
t-50 23.5q-24 -1 -45.5 -13t-35.5 -26zM1427 501q-8 -193 -132 -354t-261 -172q-71 3 -101.5 53.5t-29.5 128.5q12 226 149.5 373.5t254.5 152.5q64 -2 92.5 -52t27.5 -130zM1114 32q73 79 161.5 262t96.5 297q0 32 -15 54.5t-48 23.5q-24 -1 -47 -13t-37 -26
q-82 -90 -172.5 -278t-98.5 -279q0 -39 19 -59.5t57 -21.5q29 2 50 13.5t34 26.5zM1276 1000q6 0 9 -2.5t3 -11.5q0 -8 -25.5 -33.5t-93 -97.5t-190.5 -219.5t-315 -398.5q-150 -198 -183 -249t-47 -45q-6 1 -10 5t-4 9q26 59 307.5 419.5t501.5 589.5q14 14 27.5 24
t19.5 10z" />
    <glyph glyph-name="ampersand" unicode="&#x26;" horiz-adv-x="1323" 
d="M1231 1093q-6 72 -51.5 71.5t-51.5 51.5q1 30 24.5 51t59.5 22q49 -1 69 -32t19 -74q-1 -159 -213.5 -374t-619.5 -335q-42 -68 -84 -179t-45 -226q4 -156 94 -228t223 -72q276 30 489 311t224 468q2 47 -21.5 88.5t-93.5 44.5q-80 -2 -172.5 -68.5t-171.5 -173.5h219
q8 0 13.5 -2.5t5.5 -11.5t-6 -11.5t-19 -2.5h-235q-60 -69 -113 -165.5t-57 -166.5q0 -31 14 -50t39 -20q27 2 54 20t42 33q48 52 69 94t32 44q6 0 10 -2t4 -9q-3 -25 -64.5 -103t-150.5 -88q-47 2 -67 39.5t-19 84.5q5 95 50 181t67 108h-146q-9 0 -13.5 2.5t-4.5 9.5
q0 8 5 12t15 4h168q67 80 182 166.5t248 93.5q92 -4 126 -66t32 -134q-7 -226 -214.5 -477.5t-524.5 -273.5q-184 4 -301 120.5t-121 312.5q24 350 265.5 581.5t414.5 240.5q65 -1 102.5 -40t38.5 -102q0 -12 -1 -22.5t-1 -18.5q75 75 119 146t45 127zM934 982
q-92 -7 -222.5 -150t-228.5 -331q256 73 383 192.5t127 220.5q0 31 -15 49.5t-44 18.5z" />
    <glyph glyph-name="quoteright" unicode="&#x2019;" horiz-adv-x="768" 
d="M1124 1388q-14 -124 -131 -240.5t-174 -124.5q-7 0 -9.5 2.5t-2.5 7.5q1 14 35 26.5t96 69.5q27 27 48 57.5t22 53.5q-4 32 -33 37t-33 57q2 46 36 86t81 43q38 -1 52 -23t13 -52z" />
    <glyph glyph-name="parenleft" unicode="(" horiz-adv-x="938" 
d="M862 945q141 136 274 203.5t201 67.5q10 0 15.5 -3t5.5 -10q-2 -13 -81.5 -30t-219.5 -146q-147 -150 -369.5 -528t-245.5 -675q2 -48 7.5 -68t-13.5 -20q-21 6 -28 71t-7 127q13 329 166 602t295 409z" />
    <glyph glyph-name="parenright" unicode=")" horiz-adv-x="938" 
d="M473 1q-179 -168 -307 -222.5t-169 -50.5q-11 1 -16.5 4t-6.5 8q3 14 81 30.5t215 141.5q143 144 366.5 526.5t246.5 684.5q-2 50 -7.5 68.5t13.5 17.5q21 -6 28.5 -73t6.5 -123q-12 -332 -162.5 -605.5t-288.5 -406.5z" />
    <glyph glyph-name="asterisk" unicode="*" horiz-adv-x="598" 
d="M1063 1318q29 5 26 47t-6 55q1 23 13.5 33t31.5 10q26 -1 43.5 -15.5t18.5 -31.5q-6 -26 -46 -43.5t-46 -52.5q0 -13 7.5 -17t16.5 -4q32 4 53 31t52 31q16 0 27 -13.5t12 -33.5q1 -11 -7 -32t-34 -23q-24 2 -34 17t-40 17q-11 0 -23.5 -5.5t-13.5 -20.5q6 -31 48 -34.5
t48 -37.5q-2 -21 -24 -38.5t-43 -18.5q-21 1 -26.5 14t-4.5 27q0 17 -6.5 44.5t-26.5 30.5q-10 -1 -19.5 -13t-10.5 -25q1 -22 10 -33.5t10 -28.5q-1 -22 -15 -32.5t-30 -10.5q-25 1 -42.5 16.5t-18.5 32.5q5 33 39.5 45t39.5 49q0 9 -5 15t-17 6q-33 -4 -57.5 -33
t-47.5 -33q-16 1 -30 18t-15 40q1 23 13.5 35t29.5 12q20 -2 41.5 -15.5t46.5 -15.5q7 -1 19.5 3t13.5 22q0 12 -14.5 24t-40.5 19q-25 0 -38 10.5t-13 28.5q1 21 18 38.5t41 18.5q53 -8 45 -64.5t31 -64.5z" />
    <glyph glyph-name="plus" unicode="+" horiz-adv-x="819" 
d="M342 312h254v254h59v-254h254v-59h-254v-253h-59v253h-254v59z" />
    <glyph glyph-name="comma" unicode="," horiz-adv-x="342" 
d="M-15 -244q-7 1 -10.5 4t-4.5 7q1 12 32.5 23.5t97.5 72.5q27 28 47 57t21 53q-4 32 -33 36.5t-33 55.5q1 40 34.5 83t82.5 46q32 -1 49 -22.5t17 -51.5q-14 -123 -130 -239t-170 -125z" />
    <glyph glyph-name="hyphen" unicode="-" horiz-adv-x="682" 
d="M623 417q9 0 12.5 -3.5t3.5 -11.5q-1 -16 -20 -24t-50 -8q-50 1 -145 11t-133 11q-35 -1 -63.5 -7t-39.5 -7q-10 0 -14 3.5t-4 10.5q0 19 27.5 28t76.5 9q49 -1 143.5 -11.5t133.5 -12.5q30 1 46.5 6t25.5 6z" />
    <glyph glyph-name="hyphen" unicode="&#xad;" horiz-adv-x="682" 
d="M623 417q9 0 12.5 -3.5t3.5 -11.5q-1 -16 -20 -24t-50 -8q-50 1 -145 11t-133 11q-35 -1 -63.5 -7t-39.5 -7q-10 0 -14 3.5t-4 10.5q0 19 27.5 28t76.5 9q49 -1 143.5 -11.5t133.5 -12.5q30 1 46.5 6t25.5 6z" />
    <glyph glyph-name="period" unicode="." horiz-adv-x="342" 
d="M215 185q28 0 42.5 -17t14.5 -48q-1 -46 -34 -86t-84 -44q-31 1 -44.5 17.5t-13.5 44.5q1 46 34 88t85 45z" />
    <glyph glyph-name="slash" unicode="/" 
d="M805 1072q6 10 17 25t24 16q9 0 11.5 -3.5t2.5 -10.5q-2 -6 -35.5 -50t-92 -124t-137.5 -192.5t-167 -256.5q-106 -158 -164.5 -254t-85 -146t-38 -67t-17.5 -17q-10 1 -13.5 5t-3.5 8q20 62 255.5 436.5t443.5 630.5z" />
    <glyph glyph-name="zero" unicode="0" horiz-adv-x="768" 
d="M459 48q94 104 222 364.5t140 417.5q1 39 -19.5 74.5t-74.5 38.5q-32 0 -63 -14t-64 -47q-114 -126 -241 -390.5t-138 -392.5q0 -47 24.5 -79t78.5 -34q50 3 83 22.5t52 39.5zM158 208q20 344 219.5 545.5t343.5 206.5q111 -8 141.5 -95t26.5 -157
q-13 -282 -189.5 -504.5t-359.5 -236.5q-93 2 -137.5 65.5t-44.5 175.5z" />
    <glyph glyph-name="one" unicode="1" horiz-adv-x="768" 
d="M551 886q148 5 191.5 41t62.5 41q3 0 6.5 -2t3.5 -9q-4 -8 -53 -116.5t-116.5 -260t-127 -289.5t-80.5 -208q0 -36 12.5 -46t36.5 -9q10 0 18.5 1t16.5 1t16 -2t9 -13q0 -9 -7 -12.5t-24 -4.5q-16 1 -63.5 4t-100.5 3q-43 0 -96.5 -2.5t-71.5 -2.5q-11 0 -16.5 3t-5.5 12
q3 21 53 16t111 87q55 133 105 249.5t89 210t62.5 154t25.5 80.5q-1 25 -19 32.5t-46 6.5q-12 0 -24 -1t-21 -1q-14 0 -20.5 3t-6.5 13q-2 14 12 17.5t68 3.5z" />
    <glyph glyph-name="two" unicode="2" horiz-adv-x="768" 
d="M336 734q-1 68 67 137t220 74q133 -2 202.5 -60.5t69.5 -152.5q-1 -60 -25 -109.5t-57 -82.5q-72 -68 -164 -98.5t-190.5 -56.5t-190.5 -78t-164 -163q42 23 72.5 32t67.5 9q92 -5 171 -42t146 -42q73 8 97.5 64.5t50.5 64.5q6 0 9 -2t3 -8q-2 -12 -22 -45.5t-33 -54.5
q-37 -67 -73.5 -96.5t-84.5 -29.5q-88 9 -171 72t-171 72q-35 0 -60 -18t-26 -49q2 -20 16.5 -31t16.5 -27q-1 -10 -15 -19.5t-35 -11.5q-14 1 -24 10.5t-10 26.5q0 45 39.5 111t113.5 141q49 50 113.5 85.5t131.5 63.5t127 57.5t101 66.5q50 52 78.5 122t28.5 115
q-1 64 -46.5 104.5t-117.5 41.5q-78 -3 -120 -43t-42 -74q4 -32 33 -43.5t33 -46.5q-1 -29 -27 -53.5t-61 -26.5q-36 1 -57 28t-21 66z" />
    <glyph glyph-name="three" unicode="3" horiz-adv-x="768" 
d="M795 806q1 49 -33.5 87t-112.5 40q-81 -2 -129 -39.5t-49 -79.5q4 -34 30.5 -38t30.5 -44q-1 -31 -24.5 -56t-63.5 -26q-34 0 -56 23t-23 65q0 70 74 137t223 72q126 -2 193.5 -57t68.5 -135q-17 -143 -166.5 -202.5t-229.5 -57.5q-8 0 -12 -3t-4 -10q49 -7 125 -59.5
t84 -161.5q-6 -113 -120 -194.5t-267 -86.5q-111 3 -179.5 52.5t-70.5 126.5q0 41 28 79.5t81 41.5q34 -1 54.5 -22t20.5 -48q-7 -48 -54 -57t-54 -50q1 -44 41 -73t110 -30q165 17 226.5 155.5t58.5 189.5q-3 74 -47.5 101t-93.5 26q-25 -1 -49 -7t-41 -7q-13 0 -21 6.5
t-8 19.5q0 14 12 22.5t31 8.5q9 0 31.5 -3.5t52.5 -4.5q163 8 247.5 107t84.5 192z" />
    <glyph glyph-name="four" unicode="4" horiz-adv-x="768" 
d="M573 933q39 0 57.5 -18.5t18.5 -51.5q5 -52 -96 -161t-363 -341h338l275 564h45q14 1 59 5t56 5q9 0 10 -0.5t0 -7.5q0 -9 -14 -10.5t-37 -22.5q-15 -12 -32.5 -41t-45 -87t-75.5 -155.5t-122 -246.5h103q59 3 69 24.5t19 24.5q5 0 7.5 -3t2.5 -8q-1 -11 -17 -38t-32 -78
h-189q-47 -99 -75 -154.5t-29 -73.5q8 -40 65.5 -33.5t65.5 -17.5q-1 -7 -10 -9.5t-19 -3.5q-12 2 -67.5 6t-114.5 5q-57 -1 -105.5 -4t-68.5 -5q-15 1 -21 3.5t-6 9.5q3 27 48.5 17.5t97.5 29.5q19 24 56 101.5t62 126.5h-389q-10 0 -14 3.5t-4 10.5q0 18 69 67t201 177
q69 68 119.5 132.5t52.5 104.5q-2 33 -16 51.5t-16 38.5q0 28 22 45.5t59 18.5z" />
    <glyph glyph-name="five" unicode="5" horiz-adv-x="768" 
d="M772 906q158 5 180 40t37 40q6 0 8 -2.5t2 -7.5q-2 -17 -27 -60t-52 -73q-32 -33 -64.5 -46t-101.5 -12q-120 1 -186 9.5t-79 9.5q-24 -60 -59.5 -131.5t-87.5 -167.5q47 43 94.5 65.5t100.5 22.5q87 -2 143.5 -58t58.5 -143q-4 -136 -125 -268.5t-315 -143.5
q-96 2 -149 42.5t-54 101.5q1 49 30.5 82.5t72.5 34.5q36 -2 56.5 -24.5t20.5 -47.5q0 -11 -5.5 -24t-14.5 -23q-27 -20 -53.5 -21t-28.5 -34q0 -26 26 -46t76 -21q142 14 234.5 165.5t95.5 271.5q-1 59 -28 94.5t-72 36.5q-25 1 -59.5 -14t-77.5 -57q-52 -57 -61.5 -88
t-33.5 -31q-13 0 -19.5 7t-6.5 20q-1 12 27.5 53.5t93.5 163.5q37 69 72.5 154.5t60.5 150.5q16 -1 105 -10.5t165 -10.5z" />
    <glyph glyph-name="six" unicode="6" horiz-adv-x="768" 
d="M324 359q88 138 155 198.5t125 59.5q79 -4 118.5 -67.5t39.5 -138.5q-8 -182 -137 -306t-285 -130q-103 8 -134 89.5t-28 157.5q8 266 184 492.5t422 240.5q87 -1 143 -39.5t58 -101.5q-1 -37 -30.5 -75.5t-77.5 -41.5q-37 1 -52.5 22t-15.5 44q1 30 16.5 47.5t40.5 17.5
q13 -2 31.5 1t20.5 32q-2 32 -39 53.5t-82 22.5q-174 -11 -295.5 -188t-177.5 -390zM254 81q0 -43 21 -66.5t61 -24.5q121 16 219 193.5t104 319.5q0 42 -16.5 67.5t-54.5 26.5q-102 -16 -213.5 -193t-120.5 -323z" />
    <glyph glyph-name="seven" unicode="7" horiz-adv-x="768" 
d="M532 949q101 -10 176 -81t138 -81q27 1 43.5 19.5t17.5 42.5q-4 26 -31.5 29t-31.5 34q2 26 24.5 44.5t46.5 19.5q18 1 29.5 -10t11.5 -43q4 -58 -62 -179t-251 -272q-195 -162 -253 -273t-52 -165q-1 -31 -24 -46.5t-52 -16.5q-36 2 -56 20t-20 49q0 40 36 108t102 136
q57 57 131.5 108t154.5 106.5t153 124t126 158.5q-19 -6 -37.5 -11t-48.5 -5q-65 2 -147.5 19.5t-141.5 19.5q-142 -9 -162 -74t-41 -74q-7 0 -9.5 2.5t-2.5 10.5q1 11 12.5 34.5t26.5 49.5q44 79 85.5 136t108.5 60z" />
    <glyph glyph-name="eight" unicode="8" horiz-adv-x="768" 
d="M674 960q92 -1 149.5 -45.5t59.5 -124.5q-4 -98 -90.5 -160.5t-204.5 -102.5q49 -65 93.5 -131t47.5 -145q-2 -108 -87 -193t-234 -91q-118 2 -206.5 55.5t-92.5 152.5q-3 82 78.5 163.5t281.5 135.5q-43 62 -68 120.5t-26 104.5q1 97 78 176.5t221 84.5zM479 452
q-167 -56 -227.5 -138t-56.5 -153q2 -85 53.5 -128.5t134.5 -44.5q96 2 157.5 55.5t63.5 141.5q-4 74 -46.5 148t-78.5 119zM657 945q-72 -1 -119 -51t-49 -131q2 -66 29.5 -120t59.5 -91q112 44 168.5 114t56.5 134q-1 64 -42 104t-104 41z" />
    <glyph glyph-name="nine" unicode="9" horiz-adv-x="768" 
d="M276 513q9 190 142 314t276 128q85 -1 125.5 -68.5t40.5 -185.5q-7 -252 -178.5 -480.5t-427.5 -245.5q-111 4 -156.5 48t-44.5 89q2 49 35.5 83t73.5 35q35 -1 52 -21t17 -42q0 -26 -17.5 -47.5t-45.5 -22.5l-16 2q-18 -1 -24.5 -11.5t-6.5 -18.5q1 -32 34 -53.5
t91 -23.5q167 11 289.5 187.5t179.5 384.5q-85 -130 -152.5 -193t-130.5 -63q-66 2 -110 59.5t-46 145.5zM451 329q99 16 210.5 192.5t120.5 321.5q0 47 -20.5 72.5t-56.5 25.5q-124 -17 -222 -196.5t-104 -319.5q0 -45 16.5 -70.5t55.5 -25.5z" />
    <glyph glyph-name="colon" unicode=":" horiz-adv-x="426" 
d="M412 505q1 43 31.5 84.5t78.5 44.5q28 -1 43 -21.5t15 -50.5q-1 -41 -30.5 -82.5t-78.5 -44.5q-32 1 -45.5 20.5t-13.5 49.5zM211 -8q-29 1 -43 18t-14 48q1 48 34.5 89.5t83.5 44.5q26 -1 40 -20.5t14 -49.5q0 -40 -30.5 -82.5t-84.5 -47.5z" />
    <glyph glyph-name="semicolon" unicode=";" horiz-adv-x="426" 
d="M592 570q-1 -43 -32 -84.5t-79 -44.5q-33 1 -46.5 20t-12.5 48q1 45 32 85.5t81 43.5q27 -1 42 -20t15 -48zM150 62q1 40 32.5 84t81.5 48q31 0 49.5 -20t18.5 -56q-2 -54 -44.5 -124.5t-97.5 -126.5q-47 -45 -95 -77t-66 -34q-7 1 -10 3t-3 5q0 17 33.5 29t95.5 68
q29 29 49 59.5t21 52.5q-4 31 -32.5 36.5t-32.5 52.5z" />
    <glyph glyph-name="less" unicode="&#x3c;" horiz-adv-x="819" 
d="M342 312l567 262v-61l-499 -229l499 -234v-56l-567 259v59z" />
    <glyph glyph-name="equal" unicode="=" horiz-adv-x="819" 
d="M342 423h567v-59h-567v59zM342 202h567v-60h-567v60z" />
    <glyph glyph-name="greater" unicode="&#x3e;" horiz-adv-x="819" 
d="M342 574l567 -262v-61l-567 -257v56l500 234l-500 229v61z" />
    <glyph glyph-name="question" unicode="?" horiz-adv-x="981" 
d="M244 56q2 48 34.5 83.5t71.5 37.5q28 0 44 -19t16 -50q0 -33 -28 -72t-79 -44q-29 2 -44 20t-15 44zM545 976q5 111 109 201.5t251 95.5q135 -5 200.5 -81t65.5 -167q1 -53 -24 -115t-84 -123q-62 -55 -163 -112.5t-206.5 -115.5t-179.5 -114.5t-76 -109.5
q3 -25 22.5 -30t22.5 -25q-1 -15 -18 -27.5t-35 -13.5q-23 0 -36 15t-13 40q0 49 43 97t111.5 100.5t149.5 113t161 133.5q73 72 139 172.5t70 196.5q1 58 -37 102.5t-123 46.5q-96 -4 -159.5 -58t-65.5 -112q4 -32 29.5 -48t29.5 -48q-1 -32 -28 -67.5t-72 -38.5
q-41 1 -62.5 26t-21.5 66z" />
    <glyph glyph-name="at" unicode="@" horiz-adv-x="1638" 
d="M1737 839q-4 206 -176 372.5t-459 176.5q-303 -7 -477.5 -200.5t-178.5 -496.5q2 -277 177 -461.5t501 -191.5q126 1 223 28.5t189 69.5l29 -33q-105 -50 -213.5 -80.5t-231.5 -32.5q-408 17 -594.5 242t-183.5 449q4 304 208 519.5t554 225.5q295 -5 486 -173t198 -439
q0 -158 -94 -321.5t-289 -176.5q-99 5 -143 57t-43 91h-5q-44 -59 -105 -101.5t-142 -44.5q-90 0 -143 64.5t-54 187.5q1 148 107.5 313t304.5 179q56 -1 93.5 -28t55.5 -68l25 80h88q-17 -56 -40.5 -146t-48 -185t-41 -164t-16.5 -83q1 -43 35 -75t86 -34q133 3 223.5 131
t94.5 349zM1171 994q-138 -9 -232 -144t-97 -282q0 -97 38 -140t107 -42q32 0 72 21.5t80 60.5q81 88 123.5 205.5t42.5 191.5q0 65 -32.5 97t-101.5 32z" />
    <glyph glyph-name="A" unicode="A" horiz-adv-x="1921" 
d="M887 24q-29 -10 -83.5 -17t-98.5 -7q-179 0 -321.5 99.5t-150.5 298.5q13 230 190.5 351t356.5 122q169 -5 261.5 -86t93.5 -184q17 1 101.5 8t213.5 8q77 83 158.5 173t142.5 151q152 152 275.5 225.5t212 100t135.5 32t49 17.5q-13 18 -189 54t-358 40
q-419 -14 -588.5 -164.5t-163.5 -267.5q1 -72 46.5 -117.5t129.5 -46.5q151 8 246.5 105.5t98.5 181.5q-4 47 -30 57t-30 27q0 6 3 8t9 2q25 -1 46 -35.5t22 -85.5q-5 -112 -105 -197t-231 -90q-108 1 -184.5 69t-79.5 192q-3 145 152 273t505 136q142 0 262.5 -17.5
t220 -41t171 -42t114.5 -20.5q46 3 71.5 20.5t35.5 20.5q12 0 17 -8t5 -20q-1 -14 -9 -33.5t-15 -26.5q-5 -6 -19.5 -8t-54.5 -2q-98 2 -181.5 -37t-191.5 -147q-85 -85 -167.5 -196t-161.5 -263q139 2 211.5 39.5t72.5 81.5q-2 18 -15 27t-15 26q1 18 17.5 31t33.5 14
q22 -1 31.5 -14t9.5 -31q6 -45 -66.5 -118t-298.5 -81q-46 -90 -89 -211.5t-46 -236.5q1 -79 29 -121t67 -42q25 2 45.5 16.5t28.5 23.5q63 69 82 121t33 55q6 0 10 -3t4 -9q-2 -19 -59.5 -111t-143.5 -105q-91 7 -139.5 106t-48.5 214q1 84 24.5 159t53.5 138l-148 -4
q-67 -82 -129.5 -164t-129 -157.5t-147.5 -139t-186 -108.5q50 -46 101.5 -65.5t99.5 -19.5q114 7 147.5 52t45.5 51q5 0 9.5 -3t4.5 -9q0 -21 -51 -62.5t-148 -47.5q-93 4 -149 37t-82 59h-2zM1665 628q51 91 118.5 178t151.5 172q110 106 199.5 164.5t151.5 101.5l-2 8
q-18 5 -148 -53.5t-326 -245.5q-94 -95 -161 -176t-123 -151zM846 818q-209 -9 -388.5 -150.5t-191.5 -310.5q4 -142 109.5 -230t263.5 -91q65 1 120 14.5t81 28.5q-22 41 -34.5 80.5t-12.5 85.5q0 21 2 37.5t2 17.5q-64 1 -130 38t-71 105q2 40 21.5 63t33.5 23
q6 0 10.5 -3t4.5 -9q-3 -16 -27 -29.5t-27 -48.5q0 -17 8 -33.5t19 -27.5q21 -22 60 -32.5t108 -10.5q27 97 99 161t196 95v37q-4 98 -79 144t-177 46zM831 341q70 17 113 42.5t74 57.5q46 49 61.5 84t14.5 45q-37 -9 -89 -30.5t-100 -67.5q-35 -35 -51.5 -67.5t-22.5 -63.5
zM811 241q0 -37 11 -76.5t36 -75.5q70 26 142.5 79t168.5 150q57 58 148.5 158t109.5 119h-81q-75 -1 -137.5 -7t-73.5 -7q-3 -27 -20.5 -76t-59.5 -94q-36 -38 -94 -69t-144 -42q0 -12 -3 -25t-3 -34z" />
    <glyph glyph-name="B" unicode="B" horiz-adv-x="1962" 
d="M633 437q-7 0 -13 2t-18 2q-19 0 -43.5 -18.5t-26.5 -58.5q0 -45 44.5 -81t136.5 -38q130 4 208 66.5t80 140.5q-2 78 -79 130t-211 54q-165 -2 -313 -92.5t-158 -243.5q2 -109 106 -191.5t287 -86.5q188 4 329.5 114.5t263.5 283.5t252 365.5t298 364.5q27 27 81.5 76
t69.5 63q-77 52 -179.5 77.5t-205.5 25.5q-305 -11 -494.5 -171.5t-195.5 -340.5q3 -86 64.5 -139t144.5 -54q129 10 234.5 124.5t111.5 219.5q-1 59 -35 89t-86 30q-67 -2 -117 -45.5t-53 -101.5q1 -19 6 -28.5t6 -21.5q0 -6 -3 -9t-9 -3q-10 0 -15 14t-5 37q4 80 63 126.5
t131 47.5q95 -6 127.5 -67.5t30.5 -112.5q-3 -120 -100.5 -216t-257.5 -101q-136 4 -216.5 86.5t-82.5 199.5q0 173 173 317.5t523 153.5q152 -1 266 -36.5t197 -87.5h2q115 87 238 143.5t231 58.5q60 1 100 -25.5t41 -86.5q-4 -91 -88 -160.5t-201 -73.5q-44 0 -77 18.5
t-35 55.5q0 16 7.5 27t16.5 12q11 0 13 -3.5t2 -8.5q-1 -10 -7.5 -13.5t-7.5 -19.5q2 -24 23 -32t39 -7q77 5 176 75.5t108 145.5q-1 38 -30 57t-78 19q-100 -2 -216 -60.5t-216 -148.5q51 -34 93 -95t44 -149q-7 -157 -125.5 -245.5t-269.5 -90.5l-17 -4q129 -36 185 -111
t55 -163q-7 -154 -131 -283.5t-285 -137.5q-88 2 -135.5 50.5t-48.5 126.5q3 104 82 201t202 104q32 0 49 -6.5t17 -17.5q0 -5 -2.5 -9t-9.5 -4q-7 1 -24.5 8.5t-39.5 8.5q-86 -9 -164.5 -113t-83.5 -196q0 -49 28 -87t85 -40q140 16 244.5 181.5t109.5 293.5
q4 55 -35.5 116t-164.5 66q-31 -1 -42 2.5t-10 17.5q1 17 12.5 32t22.5 16q14 -2 27.5 -17.5t54.5 -17.5q121 8 215 127.5t99 259.5q0 45 -16.5 85.5t-45.5 69.5q-81 -71 -151.5 -163t-163.5 -232q-123 -188 -221.5 -347t-200 -275.5t-227 -180.5t-302.5 -66
q-237 5 -362.5 99t-126.5 234q7 171 141.5 268.5t311.5 99.5q154 -1 254 -67t104 -179q-1 -86 -75.5 -158t-215.5 -77q-103 2 -158.5 45.5t-56.5 103.5q1 45 30.5 75.5t78.5 31.5q10 0 18 -2.5t8 -9.5q0 -8 -4 -12.5t-14 -4.5z" />
    <glyph glyph-name="C" unicode="C" horiz-adv-x="1280" 
d="M1417 1459q137 -3 207 -73.5t70 -178.5q-7 -164 -123 -281.5t-262 -123.5q-90 1 -150.5 54t-62.5 140q4 96 75.5 167t165.5 75q32 0 63.5 -11.5t33.5 -31.5q0 -6 -1.5 -9t-7.5 -3q-13 2 -23 18.5t-44 18.5q-73 -5 -144.5 -81.5t-76.5 -168.5q1 -64 37 -101.5t94 -38.5
q125 9 243 145t127 284q-1 79 -51.5 128t-142.5 50q-101 1 -221.5 -61.5t-266.5 -207.5q-195 -197 -377.5 -493.5t-195.5 -519.5q4 -153 94 -238t217 -87q247 26 413 276t173 430q0 74 -39.5 126t-122.5 54q-148 -11 -265 -155t-124 -292q1 -65 32.5 -102.5t86.5 -38.5
q32 0 58 12t48 35q39 43 49 76t21 35q6 0 9 -3t3 -10q-1 -27 -49.5 -90t-136.5 -71q-71 2 -120.5 60.5t-51.5 152.5q7 158 133 281t287 130q110 -2 176.5 -76t68.5 -196q-6 -212 -180 -426.5t-444 -232.5q-181 4 -295.5 125t-118.5 327q25 403 379 788.5t733 413.5z" />
    <glyph glyph-name="D" unicode="D" horiz-adv-x="1706" 
d="M1679 697q1 66 -11.5 122t-47.5 126h-2q-45 -57 -100.5 -130t-118 -155.5t-132 -165.5t-143.5 -159q-70 -71 -133 -118.5t-160 -106.5q61 -17 140.5 -41.5t183.5 -26.5q237 9 378.5 198.5t145.5 456.5zM1573 1082q240 237 443.5 315t328.5 72q73 0 125.5 -14.5
t54.5 -42.5q-1 -17 -19 -29.5t-34 -13.5q-32 5 -42.5 38t-92.5 38q-189 -9 -380.5 -155.5t-318.5 -321.5q40 -69 65 -151t26 -204q-1 -243 -140 -426t-405 -193q-123 4 -225 35.5t-168 57.5q-84 -34 -185 -64t-225 -33q-79 2 -109.5 22.5t-29.5 52.5q3 56 63.5 89.5
t145.5 34.5q88 -2 180 -24.5t151 -42.5h2q29 20 63.5 44.5t74.5 63.5q67 70 145 178.5t162 230.5t168 233.5t162 189.5q-11 11 -25.5 27.5t-36.5 37.5q-91 91 -233 148t-310 59q-274 -5 -466 -148t-201 -358q0 -117 72 -193t212 -79q175 8 298 121t128 242q0 61 -44 109.5
t-132 51.5q-90 -3 -163.5 -64.5t-77.5 -144.5q3 -48 26.5 -56t26.5 -21q0 -5 -2 -7t-8 -2q-27 2 -44 33t-18 64q4 95 82 153t178 60q108 -3 163.5 -68t55.5 -149q-3 -131 -119.5 -240.5t-304.5 -116.5q-178 4 -276.5 106.5t-99.5 248.5q-1 190 160 354.5t495 175.5
q258 -7 431.5 -109.5t246.5 -214.5zM459 167q-94 -2 -143.5 -32t-49.5 -66q0 -29 31 -45.5t88 -16.5q125 2 210.5 32.5t145.5 61.5q-65 26 -138 45.5t-144 20.5z" />
    <glyph glyph-name="E" unicode="E" horiz-adv-x="1280" 
d="M1688 1269q-1 65 -65 109t-181 46q-215 -10 -377 -146.5t-170 -283.5q1 -53 21.5 -78.5t44.5 -44.5q10 0 45.5 3.5t99.5 3.5q107 0 171 -14.5t66 -39.5q2 -11 -18.5 -22t-83.5 -12q-135 4 -198 28.5t-87 28.5q-291 -41 -464 -264t-177 -408q1 -124 83 -203t237 -83
q249 20 419 221.5t177 351.5q1 65 -41.5 111.5t-134.5 48.5q-170 -11 -283 -144t-117 -250q0 -54 29.5 -92.5t89.5 -40.5q31 0 58.5 12.5t48.5 32.5q36 41 41 65t18 25q7 0 9.5 -3t2.5 -9q-1 -30 -48 -81.5t-124 -57.5q-72 1 -121 49.5t-51 130.5q9 152 143 263.5t291 117.5
q114 -2 180.5 -71t67.5 -183q-4 -162 -170.5 -333t-453.5 -186q-210 6 -332 127.5t-125 295.5q-1 201 176 368.5t543 210.5q-63 52 -93 108t-30 126q1 140 143.5 245.5t407.5 110.5q205 -4 283.5 -72.5t74.5 -146.5q-3 -109 -98 -182t-250 -76q-114 3 -170.5 45.5
t-56.5 95.5q3 65 60 104t138 40q44 0 67 -8.5t23 -22.5q0 -5 -3.5 -7.5t-8.5 -2.5q-10 2 -28.5 12.5t-55.5 11.5q-72 -1 -119 -35t-49 -86q-1 -38 35.5 -67t118.5 -31q127 2 245 68.5t126 169.5z" />
    <glyph glyph-name="F" unicode="F" horiz-adv-x="1622" 
d="M2415 1533q124 0 205.5 -46t84.5 -132q-5 -97 -94.5 -153.5t-206.5 -57.5q-86 2 -201.5 37t-243.5 79t-251 77.5t-223 33.5q-52 -1 -76 -6.5t-45 -7.5l-4 -4q59 -57 94.5 -124.5t36.5 -166.5q1 -97 -48 -189.5t-155 -99.5q-86 2 -144.5 70.5t-60.5 177.5q2 120 62.5 204
t159.5 136l-2 4q-43 25 -90 42.5t-109 18.5q-134 -5 -193.5 -70t-58.5 -130q4 -61 29.5 -77.5t29.5 -31.5q0 -6 -4.5 -9t-9.5 -3q-17 1 -39 34.5t-24 86.5q1 94 72.5 154.5t197.5 62.5q74 -1 127 -21t102 -49q52 20 103 30.5t141 10.5q149 0 280.5 -24.5t247 -58.5
t218 -59.5t192.5 -27.5q86 2 125.5 35.5t38.5 81.5q-2 73 -74.5 114t-185.5 42q-61 0 -110 -12.5t-73 -35.5q-18 -22 -20 -36t-18 -15q-10 0 -14.5 4.5t-4.5 14.5q-1 30 56.5 61.5t179.5 34.5zM1104 1021q0 -77 44.5 -149.5t135.5 -77.5q71 2 116.5 70.5t47.5 185.5
q1 93 -26 164t-89 133q-108 -45 -168 -132t-61 -194zM225 454q8 217 153.5 339t330.5 124q173 -4 280.5 -98.5t110.5 -229.5q-2 -130 -86.5 -218.5t-220.5 -92.5q-106 2 -175.5 57.5t-72.5 144.5q2 72 52.5 118t127.5 48q18 0 30 -3t13 -13q0 -7 -5 -10t-13 -3l-41 7
q-54 -1 -98.5 -40.5t-47.5 -107.5q0 -58 48 -104t141 -49q130 4 223.5 90t97.5 202q-1 98 -82 171t-229 77q-185 -4 -339 -125t-163 -311q2 -165 132 -288.5t360 -129.5q96 0 177 28t152 83q-9 25 -14.5 58.5t-5.5 58.5q-1 118 92 218.5t297 161.5q37 68 67.5 126.5
t60.5 108.5t63.5 94t76.5 85q63 64 136.5 104.5t160.5 41.5q37 0 65 -6.5t29 -20.5q0 -7 -4 -9.5t-12 -2.5q-11 1 -34.5 10t-53.5 10q-49 0 -108.5 -29t-114.5 -83q-75 -77 -126.5 -181t-88.5 -217q121 35 174.5 70.5t52.5 71.5q-1 17 -11 33t-11 28q1 19 16 30t35 11
q22 0 31.5 -12.5t9.5 -30.5q-1 -27 -20 -57.5t-38 -49.5q-38 -38 -101.5 -65.5t-148.5 -52.5q-32 -86 -62 -171t-69 -163t-102 -144.5t-166 -117.5q12 -18 64.5 -57t150.5 -45q69 4 94.5 24.5t40.5 22.5q8 1 11.5 -2.5t3.5 -11.5q-1 -14 -41.5 -30.5t-102.5 -18.5
q-104 5 -160.5 44.5t-82.5 67.5q-63 -24 -132 -39.5t-163 -17.5q-274 6 -442 141.5t-173 347.5zM1436 593q-198 -60 -279 -156t-78 -198q0 -26 5.5 -51.5t13.5 -53.5q127 94 210 226.5t128 232.5z" />
    <glyph glyph-name="G" unicode="G" horiz-adv-x="1579" 
d="M2161 1299q-5 -142 -148 -289t-360 -159q-92 0 -145 38.5t-54 110.5q3 86 83.5 167t207.5 87q53 -1 79.5 -22.5t26.5 -44.5q0 -4 -2.5 -10t-11.5 -7q-10 4 -17.5 34t-78.5 34q-107 -5 -185.5 -78.5t-82.5 -152.5q0 -59 36.5 -91t108.5 -32q182 11 339 153.5t167 286.5
q0 58 -40 93t-122 36q-364 -29 -711.5 -374.5t-373.5 -663.5q-1 -78 36.5 -132.5t120.5 -56.5q82 4 169 63.5t167 143.5t141.5 158t92.5 102q17 19 42.5 37t53.5 19q14 0 23.5 -7.5t9.5 -19.5q-3 -18 -30 -41t-42 -37q-76 -78 -125 -185.5t-87 -225t-85 -225.5t-121 -186
q-91 -86 -208.5 -126t-227.5 -40q-258 4 -452.5 139t-204.5 358q7 164 105 234.5t196 68.5q124 -2 229.5 -81t112.5 -206q-1 -70 -48.5 -123.5t-132.5 -57.5q-66 2 -112.5 34t-48.5 81q0 16 4 23.5t10 7.5t10 -3t4 -15l-2 -19q1 -37 36 -65.5t97 -30.5q75 2 118 49t44 111
q-2 97 -81 167.5t-204 73.5q-125 -3 -212 -82t-91 -202q9 -178 170 -297t361 -124q123 3 228.5 56.5t186.5 135.5q62 64 111 136t98.5 159t109.5 193.5t146 235.5l-12 9q-21 -2 -65.5 -58.5t-133.5 -148.5q-65 -68 -156.5 -135t-191.5 -72q-125 7 -180.5 105t-54.5 206
q26 377 383 659t737 296q117 -1 178.5 -47t61.5 -128z" />
    <glyph glyph-name="H" unicode="H" horiz-adv-x="2048" 
d="M2073 1388q43 3 61 26.5t37 26.5q12 0 19.5 -11t7.5 -28q0 -16 -5.5 -27.5t-11.5 -17.5q-27 -18 -107.5 -33.5t-185.5 -112.5q-51 -47 -89 -103t-68.5 -119.5t-60.5 -137.5t-62 -160l309 78q155 282 387.5 488.5t380.5 216.5q38 0 57 -18.5t19 -51.5q3 -77 -161 -257.5
t-527 -348.5q-80 -128 -169.5 -336t-97.5 -344q1 -56 22.5 -86.5t51.5 -30.5q23 0 37.5 10t28.5 25q68 75 87.5 134t37.5 62q6 0 9 -2.5t3 -9.5q-3 -29 -65 -124.5t-140 -109.5q-40 -2 -83 49.5t-46 196.5q0 82 14.5 156t38 138.5t49 118.5t45.5 97l-303 -77
q-46 -118 -112.5 -235t-165.5 -218q-72 -72 -137 -111.5t-164 -76.5q33 -54 102.5 -95t159.5 -44q56 2 107 22t79 46q28 33 36 53.5t24 21.5q7 0 9.5 -3t2.5 -12q-1 -26 -67.5 -82t-188.5 -64q-98 3 -175 47t-112 105q-5 -2 -62.5 -12t-158.5 -13q-279 6 -420 116t-141 262
q7 178 139.5 278.5t308.5 102.5q159 -4 245 -78.5t87 -175.5q-1 -85 -74.5 -158t-209.5 -78q-96 2 -152 41.5t-57 91.5q0 18 5.5 24t14.5 5q6 0 7 -3.5t1 -12.5l-2 -23q0 -42 43 -68.5t123 -27.5q132 4 208 71.5t77 143.5q-1 82 -77 140t-214 61q-164 -2 -303 -91.5
t-148 -244.5q-2 -119 105.5 -227.5t355.5 -116.5q80 1 148 17t121 40q-5 15 -8 36.5t-3 45.5q-5 109 104 243.5t396 233.5q41 82 83 159t84 145.5t87 128t94 106.5q113 104 179 130.5t67 43.5q-12 20 -164 43.5t-301 25.5q-411 -19 -547 -190t-125 -264q0 -69 38.5 -123
t109.5 -78q-6 17 -11.5 40t-5.5 52q7 165 104 261t201 98q83 -3 123.5 -54t40.5 -114q-4 -115 -104 -211.5t-250 -102.5l-61 2q10 -15 43 -48.5t94 -37.5q27 1 40.5 11.5t20.5 11.5q6 0 9.5 -2t3.5 -8q-1 -14 -22.5 -21.5t-47.5 -7.5q-61 3 -106.5 40.5t-61.5 68.5
q-82 22 -156.5 99t-79.5 204q-9 123 133 260t537 149q198 -4 350.5 -35.5t223.5 -35.5zM1337 1203q-91 -4 -181 -104.5t-97 -245.5q0 -33 5.5 -52t10.5 -38q13 -4 23.5 -5t27.5 -1q158 9 245.5 116.5t88.5 202.5q-1 50 -33 87.5t-90 39.5zM2685 1455q-47 0 -113.5 -41
t-142.5 -117q-105 -107 -187.5 -229t-150.5 -240q291 134 467.5 307.5t181.5 268.5q-1 24 -17 37.5t-38 13.5zM1438 617q-201 -64 -332.5 -181.5t-136.5 -268.5q0 -17 3.5 -40.5t6.5 -35.5q157 87 271.5 239.5t187.5 286.5z" />
    <glyph glyph-name="I" unicode="I" horiz-adv-x="1622" 
d="M1415 1234q78 -2 123.5 -56t46.5 -130q-4 -120 -108.5 -221t-262.5 -107q-136 2 -236.5 86.5t-105.5 228.5q-4 164 154 311.5t524 157.5q121 0 237 -17.5t213 -39t160.5 -38.5t82.5 -19q42 3 60 25.5t42 25.5q15 -1 20 -11.5t5 -21.5q0 -30 -19.5 -48.5t-54.5 -19.5
q-34 3 -122 -26.5t-192 -126.5q-92 -92 -162.5 -220t-133 -269.5t-134 -271.5t-163.5 -228q-102 -103 -250 -157.5t-342 -56.5q-288 6 -435.5 121t-148.5 287q5 178 139 284t336 109q181 -4 274.5 -84.5t94.5 -185.5q-2 -102 -83 -186.5t-214 -89.5q-97 2 -160 46.5
t-65 112.5q0 39 24.5 68.5t71.5 30.5q16 0 23.5 -4t7.5 -11q-1 -9 -8.5 -11.5t-14.5 -2.5l-23 2q-29 -1 -47.5 -21.5t-19.5 -50.5q2 -48 48.5 -83t117.5 -37q121 5 215.5 83.5t99.5 176.5q-3 88 -78 136.5t-182 49.5q-198 -6 -343.5 -125t-152.5 -272q9 -159 154 -241.5
t317 -82.5q110 -1 236.5 44t239.5 155q125 133 229 302t208.5 340t232.5 307t302 202q6 3 6.5 6.5t0.5 7.5q-85 31 -226.5 58.5t-279.5 29.5q-354 -9 -554 -158.5t-204 -328.5q1 -88 64.5 -152t175.5 -67q156 9 262 116t110 211q-1 63 -37.5 102t-97.5 40q-84 -3 -158 -66
t-79 -143q4 -54 31.5 -62t31.5 -20q0 -9 -4 -12t-10 -3q-30 1 -49.5 28t-20.5 63q6 96 88 162t172 69z" />
    <glyph glyph-name="J" unicode="J" horiz-adv-x="1749" 
d="M2394 1465q17 -1 23 -16.5t6 -32.5q1 -34 -20.5 -50.5t-78.5 -16.5q-53 0 -113.5 -33t-127.5 -100q-121 -124 -211.5 -303.5t-171.5 -401.5h29q50 1 87.5 19t53.5 34q17 20 26 35t19 16q6 0 10 -4t4 -10q2 -13 -50 -58.5t-185 -51.5q-35 -91 -65 -169.5t-63.5 -149.5
t-74.5 -134t-98 -122q-110 -110 -269.5 -182t-363.5 -76q-255 3 -428 127t-180 341q6 220 187 381.5t462 169.5q205 -7 296 -106.5t89 -209.5q-3 -132 -128.5 -239t-332.5 -113q-100 0 -168.5 42t-71.5 120q0 51 39 95.5t111 47.5q35 -1 59 -15.5t25 -35.5q0 -8 -4 -12
t-10 -4q-11 3 -17.5 25.5t-50.5 25.5q-54 -1 -93.5 -36.5t-41.5 -86.5q1 -63 54.5 -102.5t143.5 -40.5q172 7 303 122t138 259q0 86 -66.5 150t-206.5 67q-261 -12 -453.5 -192.5t-201.5 -385.5q6 -168 149 -265t347 -100q181 5 308 71t200 142q113 114 204 273.5t168 331.5
q-166 49 -237.5 140.5t-69.5 180.5q1 103 69.5 191.5t192.5 150.5q115 56 226.5 88.5t209 51t171 33t114.5 32.5q54 25 81.5 57t47.5 35zM1597 525q103 215 206.5 381.5t234.5 298.5q32 32 59 56.5t47 44.5q0 3 -2.5 4.5t-7.5 1.5q-29 -1 -180.5 -41t-290.5 -107
q-89 -42 -178 -137t-96 -246q-2 -77 45 -152.5t163 -103.5z" />
    <glyph glyph-name="K" unicode="K" horiz-adv-x="2091" 
d="M2124 1312q-66 0 -134 -30.5t-135 -96.5q-141 -150 -234 -349.5t-193.5 -391t-266.5 -319t-454 -133.5q-299 7 -445 120.5t-145 269.5q7 182 147 288.5t326 108.5q138 -2 236 -75.5t102 -188.5q-3 -107 -86 -185.5t-215 -82.5q-89 2 -148 42.5t-61 102.5q1 43 30 73.5
t70 31.5q13 0 18 -2.5t5 -10.5q0 -6 -5 -9t-10 -3q-4 0 -10 2t-14 2q-19 0 -42.5 -21.5t-25.5 -60.5q1 -47 45 -80t123 -34q129 5 215.5 85t89.5 171q-3 83 -78.5 136.5t-185.5 55.5q-176 -5 -327.5 -115.5t-161.5 -263.5q2 -127 120.5 -224.5t323.5 -102.5q229 6 388 122.5
t278.5 296t235.5 368.5t259 337q80 79 158 123t158 61l8 8q-101 39 -246 71t-315 34q-338 -11 -522.5 -160.5t-186.5 -306.5q1 -89 66.5 -160.5t179.5 -75.5q143 8 249 114.5t111 217.5q-1 60 -35.5 90.5t-85.5 30.5q-76 -3 -158 -62.5t-89 -142.5q0 -20 9 -36t30 -17
q12 0 17 -4.5t5 -9.5q0 -7 -4 -9t-12 -2q-27 2 -46 29.5t-20 63.5q4 86 80 150t170 67q75 -1 122 -46t48 -120q-1 -111 -95 -219.5t-265 -116.5q-153 5 -240.5 100t-89.5 217q-4 159 149.5 300t513.5 151q131 0 246 -19.5t209 -45t167 -45t124 -21.5q46 1 67.5 9t30.5 9
q5 0 11 -4.5t6 -13.5q0 -21 -13.5 -40t-42.5 -20q-18 1 -44 8.5t-60 8.5zM1952 -6q-83 0 -154 71t-76 227v239q0 53 -21.5 111.5t-58.5 63.5l-26 -5q-7 1 -13.5 8t-7.5 15q0 9 7 16t16 7q9 -1 18 -6.5t33 -6.5q34 1 76.5 16t77.5 31q49 25 106.5 72t115.5 104.5t112.5 113.5
t97.5 97q206 204 353 274.5t269 65.5q49 0 83.5 -11t35.5 -34q-1 -16 -17 -31t-30 -16q-23 4 -42.5 31t-70.5 31q-44 -1 -108 -27t-127 -72q-98 -75 -185 -157t-170 -161t-169 -148.5t-183 -122.5q-48 -26 -115 -47.5t-93 -22.5l-9 -4q29 -14 56.5 -32.5t50.5 -41.5
q49 -48 72.5 -153.5t23.5 -282.5q2 -95 32.5 -139.5t72.5 -44.5q22 1 39 11.5t30 24.5q59 66 71.5 118.5t31.5 55.5q6 0 8 -3t2 -9q0 -27 -54.5 -120.5t-160.5 -105.5z" />
    <glyph glyph-name="L" unicode="L" horiz-adv-x="1366" 
d="M569 1025q6 139 127 231.5t287 96.5q159 -9 244 -79t86 -95q0 -3 -1.5 -7t-8.5 -4q-13 8 -68 63.5t-217 63.5q-149 0 -280 -69t-140 -203q-2 -108 113 -184.5t368 -79.5l113 4q187 396 409 552t355 150q54 0 78 -20.5t24 -61.5q-7 -107 -210 -314t-523 -308
q-89 -141 -171.5 -248t-235.5 -260q129 -92 246.5 -193t223 -188t195.5 -142.5t168 -57.5q64 3 100 37.5t37 73.5l-2 24q0 9 2 13.5t8 3.5q8 2 11.5 -2.5t3.5 -22.5q-1 -69 -67 -121.5t-187 -56.5q-111 2 -199 46t-174 121t-193.5 178t-256.5 219h-3q-51 -32 -105 -66
t-114.5 -62.5t-126 -46.5t-135.5 -20q-106 3 -164 48.5t-59 116.5q4 104 101.5 177.5t246.5 76.5q126 -3 229.5 -46.5t172.5 -87.5q80 80 152 190.5t147 272.5q-9 0 -34.5 -2t-64.5 -2q-228 2 -366 80.5t-142 210.5zM414 353q-115 -2 -189.5 -57.5t-77.5 -140.5
q3 -74 62 -112t141 -38q119 1 230 54t223 145q-73 52 -172 99t-217 50zM1696 1293q-49 -49 -95.5 -106.5t-88.5 -120.5t-84 -133t-85 -146q153 46 272 122.5t230 189.5q90 91 139 167t50 119q0 29 -15 45.5t-51 16.5q-29 3 -100.5 -27.5t-171.5 -126.5z" />
    <glyph glyph-name="M" unicode="M" horiz-adv-x="2134" 
d="M674 1035q-20 64 107 236t642 194q211 -4 416 -28.5t279 -28.5q52 3 48 25.5t27 25.5q13 0 23 -8t10 -18q2 -10 -14.5 -29t-77.5 -21q-111 3 -250 23t-360 23q-385 -12 -576.5 -165.5t-191.5 -308.5q1 -67 25.5 -101t56.5 -58q0 108 29.5 179.5t88.5 129.5
q61 60 126 87.5t128 27.5q86 -2 137 -52t52 -129q-6 -125 -121 -215t-268 -94q-48 0 -80.5 7.5t-67.5 17.5q19 -70 69 -118t126 -50q68 4 86.5 29.5t30.5 29.5q6 0 7 -3t1 -9q-1 -16 -35 -39t-88 -25q-98 4 -150.5 66t-68.5 133q-81 48 -123.5 114.5t-42.5 151.5zM2990 1445
q-1 -11 -14.5 -28t-34.5 -19q-22 4 -40.5 28.5t-66.5 28.5q-78 -2 -164.5 -54.5t-158.5 -125.5q-209 -226 -408 -615t-213 -565q0 -39 15 -60.5t47 -21.5q27 1 44 11.5t29 23.5q71 78 97 143.5t45 69.5q5 0 8.5 -2.5t3.5 -11.5q-4 -20 -48.5 -92t-80.5 -111
q-12 -13 -38 -28.5t-64 -17.5q-67 2 -100 59t-33 149q30 338 258 640.5t288 350.5q47 48 93.5 87t117.5 93q-109 -51 -213 -130t-186 -163q-86 -84 -167 -187t-164 -223t-171 -255t-186 -285q-44 -70 -74.5 -102t-56.5 -32q-28 2 -36 25.5t-7 47.5q3 129 82.5 307t205.5 354
q175 259 271.5 410t97.5 178q0 7 -3.5 10.5t-8.5 3.5q-39 -4 -146.5 -135t-247 -320.5t-274.5 -368.5t-229 -277q-165 -158 -313.5 -204.5t-247.5 -42.5q-204 3 -339.5 99t-140.5 258q3 153 127 262.5t332 114.5q176 -6 260.5 -87.5t83.5 -168.5q-2 -93 -83.5 -167.5
t-219.5 -78.5q-78 1 -123.5 27.5t-46.5 68.5q1 20 12.5 37.5t22.5 18.5q6 0 8 -3t2 -8q-1 -12 -11.5 -19.5t-12.5 -25.5q1 -34 40.5 -55t106.5 -22q131 3 208 71.5t79 151.5q-1 78 -71 137t-202 62q-182 -4 -322.5 -104.5t-148.5 -250.5q4 -125 107 -202.5t254 -79.5
q114 -5 279 65.5t370 269.5q102 109 217 244t224.5 273.5t202.5 251t159 176.5q38 37 60 50.5t38 12.5q18 0 28.5 -12.5t10.5 -40.5q1 -75 -85 -271.5t-275 -474.5q-87 -121 -190.5 -287.5t-112.5 -234.5q0 -12 3.5 -17t12.5 -5q27 4 100.5 116.5t181 283.5t239.5 354.5
t278 326.5q184 184 372.5 283t354.5 100q41 0 71 -10.5t31 -32.5zM1206 1201q-153 -8 -252 -124t-102 -247l4 -45q22 -11 50 -18.5t65 -7.5q141 5 261 99.5t128 211.5q0 55 -37 92.5t-117 38.5z" />
    <glyph glyph-name="N" unicode="N" horiz-adv-x="2048" 
d="M1995 1435q68 0 133 7.5t84 22.5q17 22 22 43t31 23q11 0 17 -6t6 -17q1 -36 -69 -67t-230 -33q-117 0 -176 1t-119 1q-313 -1 -485 -58.5t-265 -156.5q-47 -46 -80.5 -107.5t-34.5 -130.5q2 -97 68 -160t168 -65q146 7 250.5 117.5t109.5 234.5q1 48 -26 90.5t-94 45.5
q-90 -4 -163 -76.5t-77 -165.5q3 -54 25.5 -61.5t25.5 -20.5q0 -6 -3 -7t-9 -1q-26 0 -50 29.5t-26 85.5q5 93 84.5 161.5t177.5 71.5q87 -3 132.5 -58.5t45.5 -131.5q-3 -120 -102.5 -225.5t-263.5 -112.5q-147 3 -238 93.5t-94 227.5q1 72 30 139t79 117q82 84 213.5 124
t332.5 40q73 -1 291.5 -7t278.5 -7zM1999 1381q23 -1 33 -28t10 -66q-4 -166 -62.5 -339t-135.5 -338t-134 -304t-59 -244q0 -22 5 -33.5t15 -11.5q8 0 23.5 27t40 78t62.5 129t93 182q171 341 270 503t216 275q92 95 227.5 170.5t300.5 79.5q38 0 63.5 -10t26.5 -27
q-1 -22 -18.5 -36t-36.5 -15q-20 4 -36 28.5t-71 27.5q-35 21 -220.5 -87t-491.5 -598q-125 -200 -205 -343.5t-125 -234.5t-71.5 -134.5t-47.5 -43.5q-32 3 -48.5 62.5t-16.5 149.5q-1 107 23 221.5t87 257.5q27 72 74 171t96 200.5t84 179.5t37 102q0 8 -3 15.5t-9 7.5
q-17 0 -116 -143t-277 -422q-118 -181 -224.5 -327t-210.5 -251q-102 -104 -235 -175.5t-301 -75.5q-217 5 -345.5 112t-131.5 268q3 151 122.5 258.5t319.5 112.5q155 -3 242.5 -76.5t89.5 -175.5q-3 -104 -84.5 -187t-208.5 -88q-88 1 -150 43.5t-65 112.5q2 45 32 79
t68 36q6 0 10.5 -3t4.5 -10q-6 -13 -44.5 -25t-44.5 -79q1 -54 44.5 -84.5t113.5 -30.5q129 4 216.5 75.5t90.5 164.5q0 76 -67.5 132.5t-198.5 59.5q-180 -3 -320.5 -99t-148.5 -245q2 -126 107 -215.5t288 -93.5q161 3 300.5 88t271.5 221q73 73 179.5 195.5t182.5 226.5
q135 191 222.5 317t139.5 198.5t81.5 103t50.5 28.5z" />
    <glyph glyph-name="O" unicode="O" horiz-adv-x="1366" 
d="M1178 984q-24 0 -39 4t-15 15q0 9 5.5 11.5t13.5 2.5q8 -1 23.5 -6t39.5 -6q83 5 153.5 81t74.5 162q0 32 -14.5 53.5t-39.5 34.5q-213 -161 -387 -388t-184 -400q2 -70 34.5 -110.5t76.5 -41.5q34 2 49.5 16.5t27.5 16.5q7 0 10 -4.5t3 -7.5q-2 -16 -27 -26.5t-53 -10.5
q-79 2 -127 65.5t-49 159.5q7 187 174.5 403.5t406.5 340.5q-9 3 -21 4.5t-22 1.5q-43 4 -141 -36.5t-242 -178.5q-190 -190 -347 -428t-167 -428q3 -121 77.5 -195t180.5 -76q96 1 206 62t218 170q189 189 401 503t230 531q-1 57 -38 91.5t-99 35.5q-39 0 -82.5 -15.5
t-81.5 -39.5q32 -23 49 -52.5t17 -68.5q-2 -86 -80 -163.5t-215 -82.5zM1575 1422q90 -1 141.5 -61t52.5 -168q-26 -389 -379 -779t-718 -420q-147 3 -252.5 111t-110.5 293q19 347 318.5 653t650.5 326q36 0 55 -2.5t29 -7.5q62 28 115.5 41.5t97.5 13.5z" />
    <glyph glyph-name="P" unicode="P" horiz-adv-x="1878" 
d="M1982 1291q-64 -61 -130.5 -143.5t-172.5 -257.5q-37 -55 -82 -144.5t-99 -195t-113.5 -201.5t-124.5 -166q-71 -75 -189 -130t-305 -59q-240 3 -385.5 101t-149.5 266q6 151 133 251t310 104q169 -3 267.5 -76.5t100.5 -179.5q-3 -93 -83 -166.5t-207 -77.5
q-80 1 -141 37.5t-64 95.5q1 23 10.5 36t17.5 13q6 0 10.5 -2t4.5 -8q-2 -7 -13.5 -17t-13.5 -32q-1 -20 35.5 -50.5t126.5 -33.5q137 4 218 68.5t83 136.5q-1 79 -76.5 133.5t-212.5 56.5q-186 -3 -325 -95t-146 -230q2 -116 110.5 -206t293.5 -95q131 2 229 45t175 115.5
t142.5 160.5t129.5 178q40 64 96.5 155t131.5 198.5t170 218t214 213.5q-64 48 -165 76.5t-222 29.5q-307 -12 -496 -175t-194 -335q2 -86 56.5 -140t137.5 -56q155 9 262 120t111 215q-1 54 -34.5 92t-94.5 40q-87 -4 -154 -68t-71 -143q4 -60 33.5 -62.5t33.5 -19.5
q0 -4 -4.5 -6.5t-9.5 -2.5q-20 -1 -46.5 24t-29.5 81q3 80 73 143.5t171 67.5q76 -2 122.5 -51.5t47.5 -126.5q-3 -115 -103.5 -218t-267.5 -110q-137 4 -217 92.5t-82 216.5q2 187 177 322.5t499 142.5q178 -2 295.5 -41t193.5 -92q137 101 256 151t203 50q65 0 99 -26.5
t34 -74.5q-7 -94 -98 -160t-188 -69q-70 2 -100 33t-29 61q1 14 9 27t17 14q5 0 7.5 -1.5t2.5 -8.5q-2 -7 -6.5 -14t-5.5 -21q0 -15 21.5 -34t62.5 -21q72 3 167.5 64.5t104.5 146.5q0 27 -23 44.5t-69 18.5q-73 1 -190.5 -45.5t-251.5 -152.5q80 -63 133 -147t55 -191
q-7 -184 -129.5 -292t-275.5 -110q-68 2 -118.5 29t-53.5 57q0 10 3.5 15.5t10.5 5.5q11 -4 27 -33t80 -33q128 8 239.5 146t118.5 303q0 79 -28.5 131.5t-82.5 103.5z" />
    <glyph glyph-name="Q" unicode="Q" horiz-adv-x="1366" 
d="M1434 1248q-2 45 -20 61.5t-32 26.5q-220 -165 -391.5 -393t-181.5 -395q2 -71 35 -110t80 -40q31 2 47 14.5t28 14.5q7 0 9 -2t2 -8q-2 -15 -26.5 -25t-51.5 -10q-77 2 -126.5 63t-51.5 164q8 186 178 403t401 337q-12 4 -21 5t-20 1q-34 5 -134.5 -34.5t-248.5 -180.5
q-186 -185 -345 -424t-169 -430q3 -122 77.5 -196.5t180.5 -76.5q26 0 55 4.5t50 14.5q-37 71 -76.5 118.5t-85.5 49.5q-17 0 -30.5 -7t-22.5 -16q-21 -24 -21 -40t-12 -17q-6 0 -8 3.5t-2 8.5q1 31 34 56.5t82 27.5q70 -3 130.5 -49t103.5 -98q58 32 109.5 71t121.5 109
q183 183 395.5 496t231.5 530q-2 66 -41 98.5t-96 32.5q-36 -1 -81 -16t-83 -37q13 -10 38 -38t28 -85q-2 -91 -83.5 -166t-211.5 -80q-28 0 -41 4.5t-13 14.5q0 7 4.5 10.5t12.5 3.5q8 -1 21 -6t40 -6q81 4 154 77t78 166zM1769 1193q-5 -204 -129.5 -432t-308.5 -412
q-93 -94 -209 -179.5t-243 -135.5l-11 -4q43 -46 143 -191t244 -165q69 3 111 38.5t43 82.5q-2 40 -16.5 54.5t-16.5 23.5q0 7 2.5 9t7.5 1q14 0 26 -23.5t13 -54.5q-4 -79 -82 -138.5t-180 -63.5q-142 6 -230 119t-163 279q-19 -1 -42.5 -3.5t-51.5 -3.5q-86 2 -145.5 29.5
t-100.5 69.5q-55 53 -87.5 126.5t-33.5 178.5q18 342 315.5 650t661.5 329q37 0 52 -2.5t24 -7.5q62 28 115.5 41.5t97.5 13.5q89 -1 141 -59.5t53 -169.5z" />
    <glyph glyph-name="R" unicode="R" horiz-adv-x="2091" 
d="M1966 1263q-65 -62 -118.5 -131.5t-99.5 -141t-87 -143.5t-78 -141q37 -1 55.5 -6.5t44.5 -6.5q142 8 247 130t110 263q-1 59 -22.5 103.5t-51.5 73.5zM1681 263l11 215q-2 112 -28.5 145t-47.5 29l-29 -4q-6 1 -13.5 7l-12.5 10q-27 -35 -59 -92.5t-69.5 -124
t-82.5 -133t-95 -119.5q-89 -93 -229 -161.5t-328 -73.5q-210 2 -354.5 90t-150.5 259q4 163 128 266.5t314 106.5q155 -2 262.5 -71.5t112.5 -186.5q-2 -94 -81 -161t-212 -70q-110 3 -169.5 46.5t-60.5 94.5q2 38 27 61.5t45 24.5q5 0 7.5 -2.5t2.5 -5.5q-4 -13 -31.5 -25
t-31.5 -51q2 -47 55 -75.5t129 -29.5q124 3 208.5 65t88.5 142q-1 76 -72 127.5t-194 53.5q-172 -2 -328.5 -92.5t-167.5 -245.5q2 -117 105.5 -198t283.5 -84q209 3 352.5 109.5t264.5 283.5t261 387t345 419q21 20 50 48.5t44 43.5q-63 49 -168.5 81.5t-234.5 33.5
q-334 -17 -514.5 -200t-182.5 -330q1 -74 57 -129t148 -58q135 8 250.5 121.5t122.5 235.5q-1 51 -32.5 84t-84.5 34q-56 -3 -91 -39t-36 -75q0 -8 0.5 -12.5t1.5 -8.5q0 -8 -2.5 -13t-11.5 -5q-7 0 -10.5 7.5t-3.5 16.5q1 52 42 96.5t117 47.5q71 -2 112 -51t42 -119
q-3 -121 -109 -227t-276 -113q-146 5 -219.5 93t-73.5 204q8 211 201.5 344t476.5 137q160 -2 289 -42.5t217 -98.5q114 87 241.5 150.5t260.5 66.5q97 -2 144.5 -47t47.5 -107q-3 -93 -88.5 -171t-218.5 -83q-56 0 -97.5 24t-43.5 70q2 34 23.5 59.5t41.5 26.5q6 0 8 -3
t2 -9q-4 -14 -28.5 -25.5t-28.5 -46.5q1 -35 28 -50t64 -15q100 5 194 84t101 166q-1 53 -41 80.5t-104 27.5q-104 -2 -232.5 -61.5t-236.5 -159.5q34 -28 93.5 -99t65.5 -184q5 -107 -93 -215t-361 -116h-64q136 -66 174 -172.5t33 -247.5q-1 -101 17.5 -166.5t74.5 -67.5
q22 0 40 9t34 26q49 57 57.5 102t30.5 48q6 0 8 -3.5t2 -11.5q-2 -19 -32 -70t-60 -83q-19 -20 -44.5 -29.5t-61.5 -10.5q-78 -2 -150.5 57t-77.5 214z" />
    <glyph glyph-name="S" unicode="S" horiz-adv-x="1536" 
d="M1247 1320q162 -7 257.5 -79t97.5 -120q0 -6 -3.5 -9t-9.5 -3q-16 1 -19.5 21t-31.5 51q-45 45 -122 69.5t-173 24.5q-103 0 -176 -26t-125 -79q-32 -30 -45.5 -66t-13.5 -106q117 -1 215.5 -65t134.5 -174q8 -1 41 -6t90 -6q56 0 95 4.5t61 13.5q138 242 335 476
t345 253q34 0 56 -19t23 -59q-7 -111 -191 -322.5t-466 -328.5q-39 -84 -75 -166t-71.5 -157.5t-76.5 -143.5t-94 -123q-90 -91 -205 -135.5t-266 -45.5q-266 6 -414 139.5t-150 328.5q15 249 208 392t384 146l-2 31q4 124 114 205t273 84zM598 484q5 106 86 173t184 69
q47 -1 74.5 -16.5t28.5 -28.5q0 -5 -3.5 -7.5t-6.5 -2.5q-10 2 -24 17.5t-48 17.5q-65 -3 -159.5 -70t-104.5 -166q0 -61 44.5 -108t139.5 -50q69 1 131 33t119 90q80 81 105.5 152t23.5 155q-69 17 -137 47.5t-103 63.5q-30 31 -47.5 60t-26.5 51q-179 -20 -356.5 -179.5
t-191.5 -392.5q4 -158 117 -254.5t290 -99.5q143 3 253.5 59.5t180.5 128.5q41 45 83 104.5t85 130t85 141.5t83 134q-6 -1 -35 -5t-92 -5q-49 0 -88.5 3t-48.5 3q0 -12 1 -22.5t1 -22.5q-4 -162 -116 -279.5t-283 -123.5q-118 3 -180.5 60.5t-63.5 139.5zM895 968
q33 -73 102 -125t189 -76q1 18 -12 50.5t-54 74.5q-37 38 -90.5 57t-134.5 19zM2198 1476q-65 9 -213 -136.5t-355 -547.5q105 39 206 108t189 158q112 113 172.5 211t61.5 149q0 29 -17 43.5t-44 14.5z" />
    <glyph glyph-name="T" unicode="T" horiz-adv-x="1749" 
d="M313 1297q2 116 85.5 196t222.5 83q100 -4 175.5 -45t102.5 -70q46 15 95 24t108 9q127 0 266 -37t273.5 -86t252 -87t207.5 -40q62 0 98 26.5t37 76.5q-2 66 -70 109t-173 44q-44 0 -81 -12t-61 -35q-27 -31 -26.5 -49.5t-14.5 -18.5q-6 0 -9 4.5t-3 12.5q1 43 52 78
t143 37q130 -4 199.5 -60t70.5 -123q-2 -75 -78.5 -135t-199.5 -63q-87 4 -202.5 46t-246.5 98t-262 98t-246 44q-25 0 -46.5 -2t-43.5 -6q32 -35 53.5 -88t22.5 -129q-4 -140 -76 -223.5t-162 -85.5q-75 2 -122.5 59t-49.5 148q1 111 69.5 203.5t196.5 152.5
q-25 30 -89.5 67t-168.5 40q-125 -4 -202.5 -82.5t-79.5 -178.5q0 -39 13 -74.5t34 -56.5q45 -39 84.5 -42t42.5 -21q0 -6 -6 -8t-13 -2q-52 0 -109.5 52t-62.5 152zM623 1089q2 -83 45 -133.5t106 -51.5q93 3 145.5 89t53.5 212q-3 94 -27.5 149t-38.5 56
q-77 -4 -176 -81.5t-108 -239.5zM1616 1160q61 -1 120.5 -12.5t63.5 -26.5q0 -5 -3 -7.5t-9 -2.5q-7 1 -44.5 11.5t-96.5 11.5q-312 -25 -546.5 -309t-246.5 -533q4 -144 89.5 -219t209.5 -77q252 22 426.5 252.5t181.5 405.5q0 78 -45 129.5t-133 53.5
q-165 -10 -289.5 -145t-130.5 -281q2 -76 46 -116t102 -40q34 0 63.5 13.5t50.5 35.5q49 55 57.5 96t22.5 43q6 0 9.5 -3t3.5 -9q0 -36 -51.5 -109t-155.5 -81q-86 2 -137 64t-52 155q5 155 127.5 275t296.5 126q139 -3 200 -82.5t60 -197.5q-9 -221 -194 -409t-436 -201
q-196 6 -298.5 130.5t-103.5 305.5q16 328 275.5 537t566.5 216z" />
    <glyph glyph-name="U" unicode="U" horiz-adv-x="1579" 
d="M743 1453q220 -6 329.5 -118t109.5 -261q-2 -129 -70.5 -250t-177.5 -256q-47 -61 -96.5 -123.5t-89 -121t-64.5 -112.5t-25 -103q0 -41 22.5 -68.5t61.5 -28.5q85 8 229.5 160.5t295.5 351.5q146 197 280 401.5t271 467.5h8q0 -26 12.5 -36.5t34.5 -10.5q25 0 46.5 13
t41.5 34h10q-102 -181 -213.5 -376.5t-210 -378.5t-160 -326.5t-61.5 -215.5q0 -32 16.5 -55.5t51.5 -24.5q27 -1 56.5 23t72.5 84q59 100 77 142.5t31 41.5q8 0 11.5 -4t3.5 -10q-5 -25 -61 -116t-99 -138q-20 -20 -43 -31.5t-51 -12.5q-51 1 -84.5 44.5t-34.5 134.5
q0 100 62.5 264t187.5 406q-337 -484 -520 -670t-263 -179q-62 2 -97 57t-36 153q0 80 22.5 145.5t64.5 128t96.5 129t117.5 148.5q95 126 149.5 233t55.5 189q-2 106 -84 173.5t-213 69.5q-219 -9 -390.5 -163t-180.5 -338q-2 -40 17.5 -87t82.5 -90q-2 14 -4 31t-2 43
q5 166 111.5 298t257.5 140q86 -2 131 -56.5t45 -131.5q-4 -140 -119 -254t-287 -121q-34 0 -60.5 5.5t-45.5 13.5q15 -54 64.5 -111.5t129.5 -62.5q26 0 50 9t42 27q29 34 31 60.5t19 28.5q6 0 9 -5t3 -10q1 -25 -35 -73t-117 -54q-92 4 -146.5 67t-70.5 130
q-79 44 -128 110.5t-50 165.5q5 184 164 319t405 142zM358 812q1 -35 5.5 -54t5.5 -26q15 -5 35.5 -11t52.5 -7q164 9 274.5 133.5t114.5 253.5q-1 66 -38.5 102.5t-96.5 36.5q-132 -8 -239.5 -137.5t-113.5 -290.5z" />
    <glyph glyph-name="V" unicode="V" horiz-adv-x="1663" 
d="M1460 1175q2 109 95.5 192.5t252.5 87.5q104 -4 209.5 -43.5t173.5 -64.5q108 92 236.5 161t263.5 72q75 0 123.5 -29t50.5 -88q0 -75 -90.5 -143.5t-275.5 -73.5q-92 1 -172.5 14.5t-135.5 22.5q-71 -70 -126.5 -134.5t-101.5 -130t-95 -139t-107 -161.5
q-61 -88 -120.5 -171t-117 -160t-115.5 -147.5t-118 -134.5q-60 -60 -148 -133t-124 -81q-19 2 -42.5 19t-25.5 33q0 10 4.5 11.5t14.5 0.5q39 2 84 29t84 64q128 138 174 311t43 285q-4 301 -172 510.5t-453 218.5q-198 -2 -333.5 -122t-141.5 -328q2 -83 31.5 -142
t66.5 -94q40 185 169.5 271t266.5 85q125 -2 206.5 -72t84.5 -181q1 -102 -88 -196t-276 -101q-104 0 -197.5 35t-155.5 98q3 -189 114.5 -293.5t291.5 -106.5q91 2 152 35t92 66q60 66 62.5 98.5t21.5 32.5q6 0 10 -3.5t4 -11.5q1 -38 -83.5 -131t-266.5 -104
q-89 0 -167.5 32t-135.5 89q-80 83 -97 163.5t-14 147.5q-43 45 -77 115.5t-36 171.5q4 215 164 374.5t422 167.5q319 -11 468 -215.5t147 -470.5q6 -112 -43 -313.5t-220 -419.5l11 -16q6 6 18 17.5t45 43.5q90 92 151.5 176t114 172t114 193.5t149.5 241.5
q81 118 173.5 222.5t184.5 194.5q-76 25 -176.5 46t-183.5 22q-158 -4 -226.5 -65.5t-66.5 -131.5q0 -55 42.5 -101.5t123.5 -49.5q44 2 63.5 15.5t30.5 15.5q6 0 10 -2.5t4 -8.5q-2 -14 -36 -26t-75 -13q-81 2 -131 53t-51 126zM2693 1560q-120 -2 -234 -66.5t-221 -163.5
q49 -15 128.5 -34t164.5 -21q133 2 222.5 54.5t93.5 125.5q0 47 -39.5 75.5t-114.5 29.5zM780 1027q-135 -2 -260 -96.5t-151 -257.5q25 -29 128 -80t255 -57q145 4 226.5 81t82.5 179q-4 98 -85 163t-196 68z" />
    <glyph glyph-name="W" unicode="W" horiz-adv-x="1921" 
d="M248 1017q15 259 174 353t289 89q222 -6 337.5 -148.5t116.5 -350.5q9 -73 -49.5 -325.5t-298.5 -539.5q0 -3 1 -7.5t7 -4.5q11 -1 38.5 16t80.5 70q117 123 193.5 283.5t139 332.5t134.5 327t180 263q54 53 110.5 82t94.5 29q17 0 24 -5.5t7 -15.5q-2 -10 -23 -17.5
t-37 -21.5q-66 -86 -77 -292t-17 -342q2 -161 -47 -340t-174 -404q0 -3 2.5 -5.5t7.5 -2.5q7 -1 21.5 12.5t48.5 48.5q127 134 211 276t153.5 290.5t158.5 295t226 283.5q-35 11 -102.5 25.5t-134.5 15.5q-114 -1 -178.5 -51.5t-65.5 -132.5q7 -88 52.5 -99.5t52.5 -29.5
q0 -5 -4.5 -7.5t-12.5 -2.5q-32 1 -68.5 37.5t-39.5 103.5q4 105 95 195t224 96q66 -2 136.5 -28t125.5 -54q85 69 193 123t250 57q93 -1 143 -33t51 -90q-4 -84 -93 -138t-220 -56q-95 2 -195 22.5t-155 34.5q-43 -39 -89 -105.5t-98.5 -153.5t-111 -192.5t-123.5 -224.5
q-75 -129 -159.5 -245t-217.5 -251q-34 -36 -82.5 -77t-85.5 -46q-15 1 -36 8t-23 18q0 16 19 19t56 33q78 82 108.5 244t29.5 361q-4 212 37 429.5t172 379.5q0 3 -2 7.5t-7 4.5q-8 -1 -28.5 -15t-42.5 -36q-88 -90 -156 -238.5t-135.5 -326t-159.5 -352.5t-225 -316
q-108 -104 -204.5 -150t-129.5 -46q-24 3 -47 20.5t-25 29.5q1 18 62.5 19.5t173.5 99.5q116 120 178.5 300t63.5 366q-5 267 -132.5 421.5t-314.5 157.5q-132 -1 -227.5 -88.5t-100.5 -245.5q40 40 109.5 70t155.5 31q149 -3 246 -84.5t100 -198.5q-1 -90 -61 -150.5
t-173 -62.5q-148 4 -262.5 101t-136.5 245q-23 -21 -53 -80t-33 -135q4 -130 81.5 -212t182.5 -85q84 6 108.5 49.5t38.5 49.5q7 0 10 -3t3 -10q0 -24 -43 -66.5t-123 -47.5q-103 2 -187.5 86t-89.5 225q4 101 41.5 166t61.5 86zM539 1125q-81 -1 -150.5 -30.5t-118.5 -77.5
q21 -155 140 -242t258 -88q94 1 144 46t50 118q-3 112 -93 191t-230 83zM2396 1297q56 -23 133.5 -48t202.5 -27q132 4 188.5 53t55.5 96q0 46 -45.5 76t-134.5 31q-133 -4 -236.5 -61t-163.5 -120z" />
    <glyph glyph-name="X" unicode="X" horiz-adv-x="1921" 
d="M1794 1054q-1 -62 -11 -115t-18 -92q213 354 441.5 496t404.5 137q77 0 121 -22t45 -70q0 -22 -18 -47t-54 -27q-25 1 -38 14t-13 31q0 10 2 20t2 15q-2 28 -32.5 41.5t-69.5 13.5q-179 -6 -412.5 -221t-404.5 -572q14 0 37.5 -1t46.5 -1q148 2 196.5 31.5t44.5 67.5
q0 7 -1 12.5t-1 9.5q0 11 3 16t10 5q9 -1 12.5 -9t3.5 -16q7 -18 -41.5 -87.5t-237.5 -78.5q-40 0 -58.5 1t-35.5 1q-52 -129 -80 -236t-28 -214q0 -73 24.5 -114t75.5 -42q26 -1 75 30.5t101 121.5q56 95 66 139t28 43q9 0 12 -4.5t3 -9.5q-3 -31 -83 -175t-206 -164
q-73 3 -114 67t-42 173q1 89 18 160.5t34 128.5q-208 -286 -437.5 -404t-441.5 -115q-230 3 -374.5 98.5t-149.5 260.5q3 133 99.5 218.5t250.5 88.5q100 0 184.5 -41t89.5 -116q-1 -36 -23.5 -58.5t-58.5 -23.5q-25 0 -45.5 16t-21.5 41q2 24 18.5 43.5t18.5 42.5
q-2 30 -43.5 51.5t-96.5 22.5q-131 -4 -217.5 -90t-89.5 -211q1 -130 103.5 -221t289.5 -95q169 -1 317 67.5t300 221.5q94 95 150.5 170t91.5 131q-20 0 -53.5 1t-88.5 1q-135 2 -217 -12t-131 -63q-22 -22 -35.5 -49.5t-13.5 -59.5q1 -53 33 -83.5t82 -31.5q15 0 20.5 -2
t5.5 -8q0 -9 -6.5 -11.5t-21.5 -2.5q-53 1 -91.5 39t-40.5 98q0 29 15.5 66t50.5 73q72 67 167.5 84t182.5 15q61 0 110.5 -2.5t57.5 -2.5q73 127 112.5 247t39.5 222q-2 151 -92.5 245t-247.5 97q-243 -16 -387.5 -194.5t-147.5 -333.5q0 -82 51 -142t156 -63
q174 12 291.5 153t122.5 261q0 49 -28.5 84t-88.5 37q-101 -8 -173 -89t-75 -143q1 -29 9.5 -36.5t9.5 -14.5q0 -3 -3 -4.5t-8 -1.5q-17 1 -25.5 19.5t-8.5 41.5q4 87 85 163t191 81q75 -2 115.5 -50t40.5 -122q-6 -148 -132 -270t-302 -129q-137 4 -211.5 93.5t-75.5 217.5
q8 211 174 336.5t391 128.5q214 -3 340 -122t129 -316z" />
    <glyph glyph-name="Y" unicode="Y" horiz-adv-x="1792" 
d="M932 1478q203 5 386 -150.5t195 -535.5q1 -227 -80.5 -458.5t-252.5 -399.5q155 116 261.5 271.5t208 334t241 362.5t360.5 354l-4 5q-81 20 -191.5 49t-206.5 32q-108 -1 -185 -52t-81 -144q1 -59 47.5 -104.5t122.5 -47.5q65 4 81.5 29t31.5 29q6 0 8 -3t2 -10
q-1 -25 -32.5 -44.5t-84.5 -20.5q-84 1 -139 50t-57 134q5 119 104 194t225 77q56 0 116 -11.5t116.5 -31t108 -39t91.5 -33.5q150 98 269.5 145t218.5 47q101 -3 140.5 -41.5t37.5 -81.5q2 -58 -75 -124t-255 -72q-100 1 -193 18.5t-159 38.5q-186 -178 -309 -334.5
t-219.5 -301t-198.5 -287t-246 -289.5q-147 -149 -337.5 -253t-430.5 -109q-217 5 -345.5 105.5t-131.5 248.5q2 105 74.5 180t197.5 78q110 -2 176 -54.5t68 -124.5q0 -34 -23 -66t-67 -34q-28 0 -54 18t-28 52q5 41 36.5 48t35.5 42q-3 42 -47.5 69.5t-98.5 28.5
q-98 -5 -153.5 -74t-56.5 -147q1 -124 118 -230.5t336 -114.5q328 9 573 272.5t257 684.5q-6 315 -177 512t-432 203q-199 -5 -321.5 -123.5t-126.5 -290.5q1 -73 27 -136t61 -101q59 179 174.5 259t251.5 79q157 -4 235 -80.5t78 -171.5q-1 -113 -99.5 -205.5t-279.5 -97.5
q-114 1 -193 36.5t-151 92.5q3 -170 110 -281t279 -115q97 3 159.5 34.5t90.5 60.5q51 56 59.5 93t22.5 38q6 0 9 -3.5t3 -13.5q0 -49 -86.5 -134.5t-257.5 -94.5q-205 10 -308 136t-103 245v59q-49 62 -76.5 130t-28.5 159q8 236 175.5 384t402.5 153zM887 1035
q-104 6 -223 -63t-179 -279q62 -51 144.5 -94.5t216.5 -46.5q171 6 253.5 87t82.5 169q-2 95 -83 159.5t-212 67.5zM2810 1488q-92 0 -204.5 -47t-231.5 -139q58 -28 144 -52t192 -26q113 2 184.5 49t73.5 110q-2 55 -49 80t-109 25z" />
    <glyph glyph-name="Z" unicode="Z" horiz-adv-x="1237" 
d="M883 392q76 79 144 165.5t79 100.5q-9 0 -37.5 2.5t-64.5 2.5q-141 -3 -197.5 -50.5t-54.5 -97.5q0 -46 33 -76t98 -47zM1305 546q0 -13 -13 -33.5t-39 -46.5q-58 -59 -138 -80t-191 -20q-78 -78 -111.5 -107.5t-46.5 -42.5q121 -90 242.5 -205t248.5 -226t258.5 -184.5
t270.5 -77.5q104 4 154.5 50.5t50.5 104.5q-6 64 -51.5 67.5t-51.5 49.5q1 32 22 48.5t48 15.5q39 1 67 -27.5t29 -83.5q-2 -106 -103 -189t-280 -89q-143 2 -261 56t-227.5 149.5t-233.5 215.5t-281 255q-100 -71 -200 -118.5t-200 -50.5q-80 2 -123.5 36t-44.5 86
q2 84 93 157.5t245 78.5q88 -2 161 -29.5t134 -62.5l84 75q9 10 18.5 21t32.5 33q-68 25 -102.5 60.5t-34.5 82.5q-10 41 65 120.5t357 88.5q117 147 202 252.5t149.5 178.5t124 121t124.5 81q-161 4 -307 32.5t-340 32.5q-335 -9 -480.5 -135.5t-142.5 -257.5
q2 -94 65 -155.5t163 -63.5q159 7 276 113.5t123 224.5q-1 58 -36.5 90t-90.5 33q-83 -5 -147 -68t-68 -125q2 -45 15.5 -54.5t15.5 -23.5q0 -5 -4 -7.5t-11 -2.5q-16 1 -28 23.5t-13 52.5q3 75 71.5 144.5t170.5 74.5q82 -2 125 -51.5t43 -126.5q-6 -137 -122.5 -235
t-272.5 -103q-151 4 -228 89.5t-77 203.5q1 183 143 326t408 151q100 0 205.5 -21.5t204.5 -50t183 -50t144 -23.5q96 6 109.5 48t37.5 48q16 -2 26.5 -23t10.5 -38q0 -10 -4 -18.5t-12 -16.5q-32 -26 -83.5 -34.5t-137.5 -88.5q-41 -39 -83 -89t-92.5 -117t-113 -151
t-144.5 -194q14 0 64 -3.5t86 -4.5q155 8 180.5 65.5t48.5 65.5q6 0 8.5 -2.5t2.5 -10.5q-1 -16 -26.5 -49t-62.5 -69q-31 -33 -72.5 -55t-109.5 -23q-53 1 -100.5 6.5t-77.5 9.5q-1 -2 -45 -51t-209 -215q234 11 284.5 88t63.5 88q6 0 10.5 -4t4.5 -10zM362 275
q-119 -4 -180 -60t-61 -114q0 -46 37 -73t106 -28q74 0 170.5 38.5t204.5 126.5q-65 50 -130.5 79.5t-146.5 30.5z" />
    <glyph glyph-name="bracketleft" unicode="[" horiz-adv-x="895" 
d="M1171 1281q64 0 98 3t46 3q18 0 25.5 -4t7.5 -14q1 -14 -8 -18.5t-37 -4.5q-17 0 -31 1t-25 1q-69 1 -107 -27.5t-81 -101.5q-197 -379 -335 -637t-222 -416t-123 -235t-37 -95q1 -23 21.5 -32.5t54.5 -10.5q19 1 42.5 3t33.5 1q20 1 26.5 -4t5.5 -17q1 -8 -7 -13.5
t-32 -6.5q-165 1 -246.5 -1t-93.5 -3q-13 1 -19.5 2t-6.5 6q0 16 12 17t33 18q33 31 113.5 173t267.5 500q41 86 110.5 217t142 269t123 245.5t54.5 146.5q-1 18 -9.5 22t-9.5 9q0 9 8.5 11.5t20.5 2.5q11 -1 59 -5t125 -5z" />
    <glyph glyph-name="backslash" unicode="\" horiz-adv-x="569" 
d="M133 1426h62l456 -1436h-61z" />
    <glyph glyph-name="bracketright" unicode="]" horiz-adv-x="895" 
d="M852 1271q-4 16 19 19.5t116 2.5q121 0 174.5 2t67.5 2q18 0 23.5 -2t4.5 -8q0 -12 -12 -13t-39 -26q-28 -28 -74.5 -104t-99.5 -179.5t-108.5 -211t-104.5 -201.5q-244 -453 -333.5 -632t-84.5 -217q1 -14 8.5 -19.5t8.5 -13.5q0 -6 -6.5 -8.5t-22.5 -3.5q-10 2 -50 6
t-110 4q-95 0 -129 -3.5t-39 -4.5q-15 1 -23.5 6t-8.5 15q-1 12 6.5 17.5t34.5 4.5q25 1 40.5 0t26.5 -2q50 -1 89.5 21.5t86.5 97.5q138 267 266 510.5t231 437.5t163.5 312.5t62.5 132.5q-2 30 -28 37t-50 6q-21 0 -43 -2t-32 -2q-16 0 -23.5 4t-7.5 15z" />
    <glyph glyph-name="asciicircum" unicode="^" horiz-adv-x="819" 
d="M549 951h49l209 -409h-62l-172 336l-172 -336h-59z" />
    <glyph glyph-name="underscore" unicode="_" horiz-adv-x="1024" 
d="M-17 -154h1059v-100h-1059v100z" />
    <glyph glyph-name="quoteleft" unicode="&#x2018;" horiz-adv-x="768" 
d="M858 1093q14 124 131 240t172 124q6 0 9.5 -2t3.5 -6q0 -17 -31.5 -25.5t-100.5 -72.5q-29 -30 -47.5 -59.5t-19.5 -49.5q4 -34 32.5 -38.5t32.5 -55.5q-1 -39 -33 -83t-83 -48q-27 -1 -46 16t-20 60z" />
    <glyph glyph-name="a" unicode="a" 
d="M125 122q15 258 174 414.5t285 160.5q42 -1 55 -25t12 -55q0 -15 -2 -31.5t-2 -17.5l78 146h8q0 -25 9 -32.5t26 -6.5q24 0 42.5 11.5t35.5 27.5l10 -4q-57 -76 -191.5 -324.5t-150.5 -337.5q0 -22 8.5 -34.5t28.5 -12.5q15 0 33.5 11.5t33.5 27.5q65 70 97.5 133.5
t46.5 67.5q6 0 7 -3.5t1 -7.5q-5 -19 -74.5 -121.5t-142.5 -116.5q-39 2 -54 33t-14 78q1 73 22.5 148t53.5 147q-150 -219 -236 -310.5t-130 -89.5q-37 2 -53.5 34t-16.5 90zM197 11q89 26 254 256.5t184 356.5q0 25 -10.5 40.5t-36.5 16.5q-101 -31 -256.5 -280
t-171.5 -347q0 -18 9 -30.5t28 -12.5z" />
    <glyph glyph-name="b" unicode="b" horiz-adv-x="682" 
d="M1343 1416q-1 -18 -17.5 -36t-39.5 -19q-40 6 -53 45t-92 45q-54 0 -114 -29.5t-120 -89.5q-51 -47 -103 -122.5t-120 -191.5t-162 -283t-225 -396q100 128 196 234t169 112q40 -1 59.5 -37t19.5 -98q-14 -229 -177.5 -391.5t-305.5 -170.5q-75 4 -109 47t-34 93
q-2 41 17.5 97.5t71.5 154.5t147 262t243 416q133 222 300 322t323 98q66 -1 96 -18t30 -44zM242 1q139 31 285.5 279t158.5 346q-1 22 -12.5 31.5t-26.5 9.5q-87 -25 -266.5 -249t-200.5 -349q1 -37 18.5 -52.5t43.5 -15.5z" />
    <glyph glyph-name="c" unicode="c" horiz-adv-x="598" 
d="M416 83q90 96 113 146.5t38 50.5q6 0 9.5 -3t3.5 -8q-5 -25 -53.5 -89t-86.5 -103q-32 -33 -71.5 -56t-92.5 -25q-67 3 -105.5 57t-39.5 143q9 178 152.5 334.5t316.5 166.5q55 0 85.5 -24.5t31.5 -79.5q-3 -67 -41 -123.5t-80 -60.5q-20 0 -35 15t-16 42q2 34 26 60.5
t52 27.5q3 0 9.5 -1t12.5 -1q25 1 36 18.5t11 40.5q0 31 -19 50t-57 20q-136 -25 -276.5 -244.5t-151.5 -335.5q0 -44 23 -68t63 -24q42 1 76 21t66 53z" />
    <glyph glyph-name="d" unicode="d" horiz-adv-x="768" 
d="M563 -2q-39 2 -56.5 33t-17.5 83q1 66 19.5 126.5t38.5 118.5q-113 -175 -201.5 -270t-142.5 -97q-37 1 -60 37.5t-24 102.5q15 227 176 387.5t291 167.5q46 -2 59 -24.5t12 -45.5l-12 -65q80 155 137 258.5t142 249.5q134 222 296.5 322t317.5 98q68 -1 98 -17t29 -37
q-1 -18 -22 -37.5t-44 -21.5q-33 5 -51 43t-84 43q-118 1 -246.5 -142.5t-285.5 -441.5q-115 -213 -194 -354t-127 -229t-68.5 -141.5t-18.5 -90.5q0 -18 10 -30.5t25 -12.5q21 0 37 11.5t35 31.5q64 70 95.5 130.5t47.5 64.5l8 -10q-6 -25 -77.5 -126t-141.5 -115zM207 3
q91 26 252.5 256.5t179.5 357.5q0 26 -10.5 40t-30.5 14q-114 -28 -265.5 -268.5t-166.5 -350.5q0 -26 9.5 -37.5t31.5 -11.5z" />
    <glyph glyph-name="e" unicode="e" horiz-adv-x="555" 
d="M287 351q76 0 123 21t90 65q71 73 98.5 126t26.5 77q0 23 -11 32t-26 9q-53 -1 -130.5 -86.5t-170.5 -243.5zM262 -8q-61 2 -99.5 53.5t-39.5 146.5q17 219 184 358.5t277 144.5q41 -1 57.5 -21.5t15.5 -53.5q-9 -119 -122 -201t-218 -86h-45q-34 -62 -62 -123t-30 -117
q0 -35 20 -61t64 -27q38 0 73 21.5t73 60.5q102 106 125.5 151t35.5 44q7 0 9 -2t2 -9q-6 -25 -104 -144t-216 -135z" />
    <glyph glyph-name="f" unicode="f" horiz-adv-x="426" 
d="M1196 1474q54 0 81.5 -14.5t27.5 -39.5q-1 -21 -20 -38.5t-48 -18.5q-38 5 -48.5 42t-70.5 42q-86 -2 -169 -76t-159.5 -192.5t-145.5 -250.5t-126 -249h154q9 0 14.5 -2.5t5.5 -9.5q0 -8 -6.5 -12.5t-21.5 -4.5h-160q-275 -556 -403 -770.5t-186 -266.5
q-70 -68 -131.5 -93t-112.5 -24q-61 2 -91.5 24t-31.5 48q2 21 16.5 36t35.5 15q31 0 40 -19.5t7 -41.5q2 -16 18.5 -29.5t38.5 -15.5q33 3 63 24.5t44 36.5q51 53 107 152.5t122 237t151 311t194 375.5h-139q-11 0 -16 2.5t-5 10.5q1 9 9.5 12.5t19.5 3.5h147
q204 464 408 634t387 161z" />
    <glyph glyph-name="g" unicode="g" horiz-adv-x="768" 
d="M700 564l91 133q10 -3 24 -8t33 -6q32 1 58.5 6t39.5 6q9 0 14 -2.5t5 -9.5q0 -10 -8.5 -12t-20.5 -2q-22 0 -37.5 -9.5t-34.5 -29.5q-49 -51 -118.5 -182.5t-152.5 -293.5t-168 -309.5t-163 -231.5q-76 -75 -164.5 -111t-188.5 -37q-126 4 -183 47t-57 93q2 35 21 54.5
t47 18.5q28 1 44 -13t15 -40q-1 -28 -17.5 -39t-19.5 -30q1 -25 32.5 -47.5t94.5 -24.5q77 0 136.5 26t118.5 84q47 50 98.5 123.5t105.5 172t117.5 219.5t139.5 267q-132 -176 -218 -277.5t-163 -104.5q-49 2 -76.5 44t-27.5 113q13 220 176 376.5t319 163.5
q58 -2 77.5 -28t17.5 -54zM633 671q-130 -26 -286.5 -257t-170.5 -349q1 -31 15 -44.5t36 -13.5q108 28 275 264.5t184 345.5q0 26 -14 40t-39 14z" />
    <glyph glyph-name="h" unicode="h" 
d="M588 634q24 26 47 44t49 19q33 0 53 -34.5t21 -96.5q1 -53 -19.5 -102t-72.5 -129q-76 -116 -124 -184.5t-50 -106.5q0 -14 8.5 -26t25.5 -13q14 0 30 9.5t40 33.5q79 84 100 128t35 44q6 0 8 -3.5t2 -8.5q-5 -21 -76 -113t-141 -105q-38 2 -59 39.5t-21 92.5
q2 76 41 148.5t90.5 141t90.5 127t41 101.5q0 19 -8 27t-19 8q-57 -8 -212 -201t-321 -478h-8q0 7 -9.5 14.5t-29.5 8.5q-14 0 -31 -7t-32 -16h-10q49 89 106 194.5t126 234.5t154 287.5t193 351.5q143 245 312.5 330.5t283.5 79.5q47 0 71.5 -12.5t24.5 -37.5
q-1 -29 -21 -43t-40 -14q-29 5 -45.5 37t-79.5 37q-82 4 -190 -91t-226 -331q-32 -55 -84.5 -149.5t-113 -206t-115.5 -218t-94 -188.5q68 95 147.5 199t151.5 178z" />
    <glyph glyph-name="i" unicode="i" horiz-adv-x="426" 
d="M395 697q43 -2 61 -39t17 -81q-4 -70 -45 -138.5t-94 -135t-93 -127t-42 -118.5q0 -22 11.5 -37t29.5 -16q62 13 126 102.5t80 102.5q5 0 6 -2.5t1 -7.5q-5 -25 -75 -111t-138 -97q-48 4 -69 47t-21 89q2 76 41.5 149.5t92 142t92.5 126t44 98.5q0 16 -8.5 25.5
t-24.5 9.5q-20 -1 -42.5 -19t-39.5 -34q-58 -62 -83 -104t-40 -44q-4 0 -6 2.5t-2 5.5q6 24 79 111.5t142 99.5zM639 1015q21 -1 30 -15.5t9 -31.5q-2 -43 -34.5 -82.5t-76.5 -42.5q-21 0 -30 12t-9 35q2 44 36.5 83t74.5 42z" />
    <glyph glyph-name="j" unicode="j" horiz-adv-x="383" 
d="M352 699q42 -2 62 -36.5t20 -83.5q-16 -180 -191 -486.5t-314 -454.5q-39 -43 -107 -88t-157 -50q-51 2 -87.5 23t-39.5 53q1 19 15.5 35t37.5 16q23 1 33.5 -12t9.5 -35q2 -32 21 -47t41 -16q18 -6 81 41t177 235q170 296 294.5 537.5t130.5 311.5q-1 19 -12 28t-25 9
q-17 -1 -35.5 -14t-34.5 -29q-74 -80 -99.5 -128.5t-43.5 -49.5q-6 0 -7 1t-1 7q6 25 80.5 122.5t150.5 110.5zM596 1015q20 0 28.5 -11.5t8.5 -31.5q-1 -37 -31 -76.5t-72 -42.5q-19 0 -27.5 11.5t-8.5 33.5q1 37 31 75.5t71 41.5z" />
    <glyph glyph-name="k" unicode="k" horiz-adv-x="768" 
d="M1335 1420q-1 -23 -20.5 -40.5t-40.5 -18.5q-29 5 -46.5 42t-80.5 42q-68 -1 -126 -34t-103 -79q-60 -57 -118.5 -140t-123 -197.5t-145 -269.5t-187.5 -355q127 147 242.5 246.5t191.5 103.5q34 0 53 -18.5t19 -49.5q-5 -80 -121.5 -164.5t-284.5 -99.5l-6 -4
q74 -35 98.5 -77.5t22.5 -98.5q0 -18 -3 -53.5t-3 -59.5q-1 -43 9.5 -64.5t39.5 -21.5q15 0 24.5 5.5t22.5 19.5q42 46 54.5 83.5t29.5 39.5q6 0 8 -1.5t2 -9.5q-1 -23 -44.5 -84.5t-112.5 -69.5q-57 1 -98.5 41t-43.5 118q1 45 10.5 86t10.5 65q1 27 -13.5 50t-62.5 38
q-55 -59 -126.5 -171.5t-123.5 -234.5h-4q-1 14 -10.5 23.5t-28.5 9.5q-20 0 -36 -10t-33 -27h-11q185 334 304.5 558.5t197.5 363.5t135.5 224t118.5 145q102 101 217.5 153t237.5 52q51 0 79.5 -13.5t28.5 -42.5zM707 650q-52 -7 -146 -86.5t-149 -150.5q4 -2 11 -6t19 -5
q81 2 193 58.5t123 138.5q0 24 -14 37.5t-37 13.5z" />
    <glyph glyph-name="l" unicode="l" horiz-adv-x="426" 
d="M754 1265q102 102 220.5 157t246.5 56q51 0 73 -14t21 -38q0 -15 -15 -34t-43 -21q-36 5 -50.5 38t-73.5 38q-51 5 -155 -63t-241 -271q-186 -297 -352.5 -617t-177.5 -423q0 -34 13.5 -52t37.5 -18q16 -1 31.5 6.5t42.5 34.5q52 57 86.5 118t42.5 66q6 0 9 -2.5t3 -9.5
q-3 -18 -42.5 -78.5t-82.5 -105.5q-15 -17 -37 -29.5t-53 -14.5q-41 0 -71 35.5t-31 114.5q21 226 233 596t365 531z" />
    <glyph glyph-name="m" unicode="m" horiz-adv-x="1024" 
d="M1012 650q0 13 -7 22t-24 9q-76 -17 -230.5 -241t-273.5 -450h-6q0 17 -8 25.5t-27 8.5q-20 0 -34.5 -10t-36.5 -26h-9q101 171 206.5 372.5t113.5 277.5q0 19 -9.5 29t-25.5 10q-35 -2 -94.5 -74t-132 -181.5t-142 -227t-122.5 -208.5h-3q-2 14 -10 20.5t-31 6.5
t-39 -7.5t-32 -19.5h-10q132 204 239 397t113 261q0 18 -10 28.5t-27 10.5q-9 0 -22 -8.5t-27 -22.5q-71 -77 -102 -140t-48 -67q-4 0 -6 1.5t-2 7.5q6 23 76.5 127t140.5 118q36 -3 49.5 -34.5t12.5 -61.5q-2 -76 -29.5 -146.5t-56.5 -146.5q62 96 158 234.5t163 152.5
q34 -1 50 -30.5t16 -69.5q-1 -58 -24 -130.5t-56 -162.5q84 122 182 252t172 141q34 0 53 -28.5t19 -81.5q-2 -72 -38 -144.5t-82 -142.5t-82 -128t-36 -101q1 -35 17 -49.5t34 -14.5q19 1 35 12.5t27 22.5q62 67 91 123t40 59q4 0 6 -2t2 -6q-4 -26 -69 -117t-138 -103
q-41 2 -67 41t-27 103q0 66 36 141.5t82 148.5t83 132.5t39 87.5z" />
    <glyph glyph-name="n" unicode="n" 
d="M279 640q-59 -64 -84.5 -113.5t-44.5 -52.5q-5 0 -6 2t-1 6q5 25 70.5 110.5t130.5 96.5q40 -2 54.5 -30.5t13.5 -65.5q-1 -60 -26 -137.5t-58 -151.5q76 113 179 244t173 143q34 -1 52 -32.5t18 -81.5q-2 -70 -38 -141.5t-82 -140.5t-82 -128t-36 -105q0 -26 11.5 -39.5
t31.5 -13.5q26 1 44.5 16t29.5 27q62 67 76 105t32 39q4 0 6 -2t2 -7q-5 -25 -66.5 -103t-123.5 -88q-47 4 -67.5 50.5t-20.5 99.5q0 72 36 143.5t82 138.5t83 121t39 91q1 9 -4 21.5t-25 13.5q-78 -18 -235.5 -242t-272.5 -439h-10q-4 13 -13 21.5t-28 8.5q-21 0 -38 -9
t-40 -23h-8q141 223 239.5 401t102.5 241q0 20 -10 29.5t-27 9.5q-15 -1 -31 -10.5t-28 -22.5z" />
    <glyph glyph-name="o" unicode="o" horiz-adv-x="682" 
d="M590 691q-146 -30 -271 -273t-133 -339q0 -34 21.5 -56t62.5 -23q143 31 268.5 276t133.5 339q-1 35 -23.5 55.5t-58.5 20.5zM586 706q73 0 109 -52t36 -151q-14 -242 -172.5 -377t-292.5 -138q-69 1 -104 54t-35 152q15 240 175.5 375t283.5 137z" />
    <glyph glyph-name="p" unicode="p" 
d="M279 93q0 -36 17.5 -60.5t47.5 -25.5q113 32 243.5 283.5t141.5 337.5q0 26 -13 39.5t-36 13.5q-99 -24 -243 -242.5t-158 -345.5zM276 646q-76 -83 -103 -148t-44 -69q-6 0 -8 2t-2 6q5 31 75 137.5t138 120.5q41 -1 58.5 -36.5t17.5 -86.5q-1 -60 -17 -116.5
t-29 -100.5q79 123 166.5 231t161.5 115q46 -2 69 -49t23 -116q-16 -240 -169.5 -390t-256.5 -156q-42 2 -68.5 29.5t-27.5 75.5l8 66q-84 -140 -196 -349.5t-186 -352.5h-8q1 21 -9 28.5t-28 6.5q-14 1 -30.5 -8t-34.5 -27h-15q148 265 261 466t191 343.5t118 231.5t42 126
q0 20 -9 36t-30 17q-11 0 -24.5 -6.5t-33.5 -26.5z" />
    <glyph glyph-name="q" unicode="q" 
d="M760 517q-51 -86 -113.5 -198.5t-136.5 -246t-154 -286.5t-159 -321h-9q-4 19 -14.5 26.5t-30.5 6.5q-20 1 -34 -8t-27 -25h-8l469 858q-59 -85 -157 -199.5t-179 -125.5q-45 1 -67.5 35t-22.5 103q14 253 177.5 405t305.5 156q46 -1 65.5 -24t18.5 -58q0 -15 -3.5 -27.5
t-6.5 -27.5l82 141h4q1 -13 10.5 -17.5t26.5 -4.5q17 1 56.5 7t64.5 7q6 0 9 -1.5t3 -4.5q0 -16 -41.5 -19.5t-128.5 -150.5zM166 60q0 -21 12 -35t37 -14q100 26 266.5 256.5t184.5 354.5q0 22 -14.5 38t-39.5 17q-126 -28 -279 -267t-167 -350z" />
    <glyph glyph-name="r" unicode="r" horiz-adv-x="555" 
d="M352 697q28 0 43 -21t15 -59q-2 -64 -28 -142t-52 -146q92 117 192 238.5t180 131.5q26 0 36 -13t10 -36q-2 -42 -31 -85.5t-62 -47.5q-16 0 -23 13t-7 34q0 16 -5 22.5t-16 6.5q-22 -1 -37.5 -14t-25.5 -25q-58 -57 -165.5 -208.5t-215.5 -355.5h-6q-1 13 -9.5 21
t-27.5 8q-23 -1 -42.5 -10t-33.5 -19h-8q57 93 116.5 192.5t111.5 190.5t85 162.5t35 108.5q0 20 -8.5 29.5t-24.5 9.5q-14 -1 -34.5 -14.5t-41.5 -34.5q-72 -76 -98.5 -124t-42.5 -50q-3 0 -4.5 1.5t-1.5 4.5q6 26 82 122t145 109z" />
    <glyph glyph-name="s" unicode="s" horiz-adv-x="555" 
d="M285 507q80 81 200 168t197 94q22 0 32.5 -10t10.5 -29q-1 -24 -22.5 -51t-47.5 -29q-21 3 -34 23.5t-37 23.5q-50 -3 -97.5 -58t-50.5 -126q6 -81 48 -148t48 -145q-5 -102 -91.5 -163.5t-192.5 -64.5q-77 1 -125.5 38.5t-50.5 113.5q2 67 42 123t99 60q25 0 42.5 -14.5
t18.5 -43.5q-2 -34 -23.5 -53.5t-35.5 -19.5q-10 1 -26.5 10t-30.5 10q-28 -2 -46.5 -29.5t-19.5 -60.5q0 -43 33.5 -76t95.5 -35q100 6 148.5 94.5t48.5 190.5q0 26 -3.5 81t-4.5 93q0 50 10.5 89t32.5 65q-96 -74 -142.5 -122t-56.5 -50q-3 0 -4.5 1.5t-1.5 4.5
q1 9 12.5 21t24.5 24z" />
    <glyph glyph-name="t" unicode="t" horiz-adv-x="426" 
d="M618 976q28 1 46 12.5t30 24.5h8l-194 -336h121q12 0 17 -1t5 -7q0 -12 -9 -15.5t-26 -3.5h-129q-67 -119 -126.5 -219t-104.5 -179t-70.5 -131t-25.5 -79q0 -18 9.5 -29.5t29.5 -11.5q23 1 44.5 16t37.5 31q60 65 92.5 119t46.5 57q6 0 8 -3t2 -9q-4 -17 -50 -76.5
t-81 -95.5q-22 -22 -46.5 -36t-53.5 -16q-36 1 -57.5 29.5t-22.5 83.5q0 50 18.5 103t53 117.5t80.5 145.5t104 183h-107q-13 0 -17.5 2.5t-4.5 10.5q1 10 7.5 12t12.5 2h125l184 332h7q-1 -12 5 -22t31 -11z" />
    <glyph glyph-name="u" unicode="u" 
d="M172 529q6 21 71.5 93t123.5 82q38 -1 58.5 -32t20.5 -83q-4 -76 -44 -148.5t-91 -141.5t-90 -128t-41 -111q1 -30 13 -41t28 -10q23 1 42 15t40 36q92 97 215.5 290t208.5 356h4q0 -17 8.5 -27t28.5 -10q28 1 44 13.5t32 23.5h10q-114 -182 -216.5 -371t-109.5 -266
q0 -26 12 -41t33 -15q18 1 29.5 9.5t22.5 19.5q56 62 79.5 118t38.5 60q5 0 8 -2t3 -6q-3 -20 -40.5 -79.5t-70.5 -94.5q-12 -13 -31.5 -25t-40.5 -13q-32 0 -55 27t-24 85q1 66 25 140t56 144q-62 -91 -168.5 -239.5t-183.5 -164.5q-31 1 -58.5 34.5t-29.5 99.5
q2 78 42 154.5t92 147.5t93 127t46 91q0 19 -11 31t-28 12q-13 0 -31 -9t-41 -32q-57 -59 -80 -92.5t-35 -34.5q-4 0 -6 2t-2 6z" />
    <glyph glyph-name="v" unicode="v" horiz-adv-x="641" 
d="M346 699q46 -2 69 -45t23 -96q-2 -61 -33.5 -126.5t-73.5 -129t-73 -121t-31 -102.5q1 -39 21 -56.5t47 -17.5q110 17 220 191t118 301q-2 46 -18.5 68.5t-18.5 41.5q3 32 36.5 63.5t65.5 33.5q23 0 35 -15t12 -39q-11 -128 -156.5 -378.5t-297.5 -279.5
q-61 3 -95.5 45.5t-35.5 108.5q0 74 31.5 143.5t75.5 132t77 117t35 97.5q0 22 -11.5 34.5t-29.5 12.5q-15 0 -29.5 -10t-32.5 -29q-62 -68 -88 -122.5t-43 -57.5q-4 0 -6 1t-2 7q5 23 71.5 118.5t137.5 108.5z" />
    <glyph glyph-name="w" unicode="w" horiz-adv-x="981" 
d="M299 650q-57 -62 -84 -116t-45 -58q-4 0 -6 2t-2 6q4 21 65.5 111t128.5 102q42 -1 64 -39.5t22 -95.5q-2 -74 -38.5 -148.5t-85 -143t-84 -125t-35.5 -95.5q0 -21 10.5 -35t30.5 -14q19 0 37.5 11t46.5 38q97 105 216.5 313.5t184.5 352.5h4q1 -15 12.5 -25t28.5 -10
q27 1 42.5 11.5t27.5 23.5h6q-102 -188 -179 -371t-81 -266q0 -33 16.5 -51.5t46.5 -18.5q97 18 206 198t118 304q-2 37 -17.5 60t-17.5 40q2 35 34.5 64t67.5 31q24 -1 34.5 -15.5t10.5 -36.5q-10 -120 -155 -378t-301 -288q-42 0 -66 25.5t-24 83.5q2 81 28 173.5
t58 187.5q-37 -56 -84 -133.5t-99.5 -153.5t-105.5 -127.5t-98 -53.5q-39 1 -59.5 30t-20.5 85q0 82 34.5 160t80.5 146.5t82 126t38 98.5q0 22 -11.5 33.5t-27.5 11.5q-13 0 -26.5 -7.5t-28.5 -23.5z" />
    <glyph glyph-name="x" unicode="x" horiz-adv-x="641" 
d="M399 701q46 -2 65.5 -35t18.5 -79q0 -59 -12 -97t-35 -106q75 120 162.5 217t149.5 103q28 -1 39.5 -16.5t11.5 -33.5q-2 -26 -22.5 -59.5t-39.5 -36.5q-18 3 -30.5 22.5t-38.5 22.5q-16 -1 -36.5 -16t-43.5 -39q-31 -31 -63.5 -76t-67.5 -100h96q5 0 10.5 3t11.5 3
q7 0 9 -2t2 -8q0 -8 -10.5 -12.5t-28.5 -4.5h-101q-40 -74 -78.5 -153.5t-41.5 -135.5q0 -23 12 -41.5t39 -19.5q30 2 54 20.5t36 32.5q72 77 96.5 123t36.5 47q4 0 5 -3.5t1 -6.5q-3 -18 -43 -75t-78 -97q-18 -20 -46.5 -36t-61.5 -18q-51 2 -74.5 36.5t-23.5 89.5
q2 63 22 129t35 112h-4q-67 -133 -133 -229.5t-131 -158.5q-47 -46 -88 -74t-73 -30q-20 1 -33 12t-14 29q2 17 15.5 34t33.5 17q14 -1 26.5 -11.5t26.5 -13.5q58 6 153.5 126t189.5 301h-80l-32 -14q-5 0 -8 2.5t-3 7.5q1 12 17 19.5t37 7.5h81q35 68 72.5 141.5
t40.5 124.5q0 19 -9 28t-26 9q-15 0 -33 -11t-36 -30q-62 -67 -86.5 -119t-38.5 -55q-5 0 -8 3.5t-3 8.5q3 20 43.5 78t77.5 96q21 22 41 34.5t47 12.5z" />
    <glyph glyph-name="y" unicode="y" 
d="M365 701q40 -1 60.5 -37.5t20.5 -93.5q-2 -75 -40.5 -150t-90 -143.5t-89.5 -125t-38 -101.5q0 -26 13.5 -36.5t34.5 -10.5q31 2 60 23t44 36q89 92 206 271t224 373q7 -10 15.5 -14.5t25.5 -4.5q16 1 49.5 6t69.5 6q11 0 19.5 -2.5t8.5 -9.5t-8.5 -8.5t-19.5 -1.5
q-35 1 -59 -17.5t-52 -66.5l-397 -755q-110 -202 -239 -286t-266 -82q-127 5 -175 52t-46 85q1 31 19 53.5t48 22.5q25 0 42.5 -16t17.5 -42q-1 -19 -15.5 -32t-17.5 -35q1 -25 28.5 -46.5t82.5 -23.5q105 -4 205 76.5t226 302.5q63 111 143 263.5t137 265.5
q-61 -92 -169.5 -241t-206.5 -165q-43 1 -67.5 30t-25.5 88q0 79 38 155t89.5 144.5t90 127t40.5 103.5q-1 29 -13 38.5t-26 8.5q-10 0 -26.5 -9.5t-42.5 -35.5q-67 -71 -85 -109.5t-34 -39.5q-4 0 -6 2t-2 8q6 28 73.5 109t125.5 91z" />
    <glyph glyph-name="z" unicode="z" horiz-adv-x="641" 
d="M721 759q16 0 30 -11t15 -32q-9 -70 -111 -196.5t-188 -211.5q139 1 160.5 10.5t27.5 10.5q7 0 10 -4.5t3 -10.5q5 -15 -37 -21.5t-187 -6.5q-60 -60 -127.5 -119.5t-164.5 -140.5q15 3 33.5 6.5t39.5 3.5q94 -3 161.5 -50.5t123.5 -108.5q63 -63 109.5 -98t78.5 -37
q13 1 18 6.5t5 15.5l-2 13q0 10 5.5 16.5t16.5 5.5q13 1 19 -5t6 -19q-1 -26 -38.5 -47t-92.5 -23q-86 4 -148.5 50t-111.5 106.5t-95.5 105t-97.5 46.5q-74 -8 -119 -65.5t-87 -66.5q-18 2 -30.5 11.5t-14.5 19.5q-2 25 21.5 37t76.5 39t145 95t232 201q-134 -1 -153 -11.5
t-32 -11.5q-6 0 -9 3t-3 9q-1 21 50 27.5t173 5.5q53 53 110.5 117.5t96.5 118.5q-109 3 -161.5 20.5t-133.5 20.5q-26 1 -48 -7t-46 -32q-39 -44 -44 -73t-26 -30q-5 0 -7.5 2t-2.5 7q4 20 47.5 100.5t85.5 126.5q22 22 45 32.5t49 10.5q91 -10 129.5 -79t96.5 -79
q32 2 48.5 24.5t16.5 45.5q-3 26 -21.5 40t-21.5 34q2 18 26 35t50 18z" />
    <glyph glyph-name="braceleft" unicode="{" 
d="M780 1334q5 0 9 -2t4 -8q-1 -17 -37.5 -23t-91.5 -55q-47 -47 -57.5 -120.5t-8.5 -194.5q1 -219 -12.5 -303t-46.5 -111q-20 -19 -44.5 -32.5t-33.5 -14.5v-4q16 -1 39.5 -15t46.5 -36q35 -30 44.5 -94.5t8.5 -249.5q-1 -194 12.5 -266t53.5 -106q56 -50 92 -55t37 -23
q0 -4 -3 -6.5t-10 -3.5q-25 0 -90 20t-119 68q-57 58 -73.5 146.5t-14.5 237.5q1 187 -7.5 247t-39.5 85q-29 26 -53.5 34t-26.5 21q1 14 22.5 18.5t57.5 36.5q32 28 39 83.5t6 205.5q-3 171 11 269.5t79 162.5q55 50 119 69.5t88 18.5z" />
    <glyph glyph-name="bar" unicode="|" horiz-adv-x="455" 
d="M342 0v1230h59v-1230h-59z" />
    <glyph glyph-name="braceright" unicode="}" 
d="M592 1246q63 -63 77 -162t11 -270q-1 -150 6 -205.5t39 -83.5q36 -32 57.5 -36.5t22.5 -18.5q-2 -13 -26.5 -21t-53.5 -34q-31 -25 -39.5 -85t-7.5 -247q2 -149 -14 -237.5t-74 -146.5q-54 -48 -117.5 -68t-89.5 -20q-6 1 -10 3.5t-4 6.5q1 18 36 22.5t93 55.5
q39 34 52.5 106t12.5 266q-1 184 7.5 247.5t45.5 96.5q23 22 46.5 36t39.5 15v4q-9 1 -33 14.5t-44 32.5q-33 27 -46.5 111t-13.5 303q2 121 -8 194.5t-57 120.5q-55 49 -91.5 55t-37.5 23q0 6 3.5 8t8.5 2q23 1 88.5 -18.5t120.5 -69.5z" />
    <glyph glyph-name="asciitilde" unicode="~" horiz-adv-x="819" 
d="M481 347q66 -5 130 -38t110 -38q35 2 57.5 27.5t38.5 54.5l41 -41q-27 -37 -56.5 -65t-84.5 -29q-64 5 -117.5 39t-120.5 39q-27 2 -50.5 -14t-49.5 -70l-39 39q23 46 58.5 71t82.5 25z" />
    <glyph glyph-name="approxequal" unicode="&#x2248;" horiz-adv-x="1700" 
d="M178 728q90 66 189 105t198 40q74 0 145.5 -20t143.5 -48t140.5 -49.5t135.5 -23.5q97 0 184 38.5t208 121.5v-90q-86 -66 -184.5 -105.5t-194.5 -40.5q-80 2 -154 22.5t-145.5 48.5t-141 48.5t-137.5 20.5q-106 -2 -199 -46.5t-188 -113.5v92zM178 402q90 66 189 105.5
t198 40.5q74 0 145.5 -20.5t143.5 -48t140.5 -49t135.5 -23.5q97 0 184 38.5t208 120.5v-90q-86 -65 -184.5 -104.5t-194.5 -40.5q-80 2 -154 22.5t-145.5 48t-141 48t-137.5 20.5q-106 -2 -199 -46.5t-188 -113.5v92z" />
    <glyph glyph-name="radical" unicode="&#x221a;" horiz-adv-x="1260" 
d="M1087 1613h170v-60h-129l-593 -1594h-27l-330 900l-110 -39l-15 47l228 78l278 -756z" />
    <glyph glyph-name="twosuperior" unicode="&#xb2;" horiz-adv-x="555" 
d="M199 284q-1 -14 -13 -19.5t-24 -5.5q-14 1 -19.5 11t-5.5 20q2 33 32 81t64 83q98 89 192.5 121t156.5 86q37 38 57 84.5t20 84.5q-1 47 -33.5 74.5t-80.5 28.5q-46 -1 -79 -24.5t-34 -59.5q3 -25 21.5 -30t21.5 -29q-1 -28 -19.5 -45t-39.5 -17q-29 1 -44.5 20t-15.5 48
q1 67 57 109.5t150 43.5q108 -3 151.5 -51t41.5 -106q0 -37 -14.5 -71.5t-39.5 -59.5q-51 -46 -117.5 -69.5t-138 -43t-137 -57t-112.5 -111.5q19 14 45.5 20.5t50.5 6.5q70 -4 126 -30t99 -30q52 6 69 46t34 46q6 0 9 -2.5t3 -9.5q-4 -16 -34.5 -65t-43.5 -64
q-12 -13 -31.5 -22.5t-44.5 -10.5q-63 7 -124 53.5t-119 53.5q-23 -1 -41 -13.5t-19 -29.5q1 -17 11.5 -23.5t11.5 -21.5z" />
    <glyph glyph-name="threesuperior" unicode="&#xb3;" horiz-adv-x="555" 
d="M539 511q0 33 -23 61.5t-74 30.5l-71 -10q-14 1 -19.5 8t-5.5 12q1 14 12 19.5t27 5.5q13 0 32 -3t36 -3q95 4 162.5 68t70.5 145q-4 61 -42 78.5t-66 15.5q-52 -1 -88 -25t-37 -55q3 -25 22.5 -28t22.5 -35q-1 -29 -21 -45.5t-47 -16.5q-31 1 -45 21t-14 43
q1 59 57.5 106.5t155.5 50.5q87 -1 142.5 -39.5t57.5 -103.5q-14 -113 -130.5 -155t-168.5 -40l-8 -6q34 0 90 -38.5t62 -116.5q-3 -93 -83 -153t-194 -62q-110 4 -151 49t-39 84q1 41 22.5 66t57.5 26q23 0 39.5 -14t17.5 -35q-5 -42 -40 -47t-40 -39q2 -31 35 -51t74 -21
q121 13 167 115t44 137z" />
    <glyph glyph-name="dotlessi" unicode="&#x131;" horiz-adv-x="426" 
d="M395 697q42 -2 60 -38t18 -82q-4 -68 -45 -136.5t-94 -135t-93 -128t-42 -117.5q0 -22 11.5 -38t33.5 -17q19 1 40.5 17t39.5 34q46 50 78 100t44 54q5 0 6 -2t1 -8q-1 -13 -32.5 -57t-78.5 -93q-21 -21 -48 -38.5t-54 -19.5q-49 4 -70 47.5t-20 88.5q2 74 41.5 147.5
t92 143t93.5 128t45 97.5q0 16 -8.5 25.5t-24.5 9.5q-13 1 -32.5 -11t-49.5 -42q-74 -78 -92.5 -113.5t-32.5 -34.5q-8 0 -8.5 3.5t0.5 6.5q6 24 80.5 111t140.5 98z" />
    <glyph glyph-name="registered" unicode="&#xae;" horiz-adv-x="1706" 
d="M1182 1449q314 -8 517 -213t210 -514q-7 -313 -211.5 -516t-515.5 -210q-301 5 -510.5 201t-218.5 521q8 314 212.5 519t516.5 212zM516 722q6 -279 189.5 -468.5t476.5 -197.5q283 7 469.5 195t193.5 469q-5 274 -186.5 465.5t-474.5 199.5q-304 -10 -484 -204
t-184 -459zM840 1134v32q13 0 50.5 -2t92.5 -2q34 0 119.5 2t105.5 2q98 0 157.5 -15.5t94.5 -51.5q32 -33 44.5 -68.5t11.5 -68.5q-9 -118 -93 -163.5t-131 -43.5l-6 -6q15 0 35 -10.5t41 -30.5q64 -86 81.5 -212t80.5 -139q41 5 62 49t22 66l34 -6q-11 -62 -41.5 -129
t-109.5 -72q-64 4 -94.5 55.5t-46 125t-33 143t-51.5 108.5q-27 24 -63.5 32t-53.5 9h-113v-315q0 -23 7.5 -47t19.5 -37q14 -13 36 -20.5t44 -10.5v-30q-24 0 -55 1t-80 1q-48 0 -82 -1t-86 -1v30q11 0 34 6t41 23q15 18 18.5 56.5t2.5 54.5v604q-4 53 -40 68.5t-56 13.5z
M1192 1123q-34 1 -71 -3.5t-62 -26.5q-14 -16 -17.5 -43t-5.5 -45v-220h119q98 -1 172 37.5t78 132.5q3 58 -40.5 111t-172.5 57z" />
    <glyph glyph-name="copyright" unicode="&#xa9;" horiz-adv-x="1706" 
d="M1069 1449q315 -7 517.5 -211.5t209.5 -515.5q-7 -313 -211 -516t-516 -210q-300 5 -510 202t-219 520q8 317 213 520.5t516 210.5zM1071 1385q-301 -9 -482 -201.5t-186 -461.5q6 -279 189.5 -468.5t476.5 -197.5q299 9 479 202t185 462q-6 282 -189.5 470t-472.5 195z
M1401 914h-31q-19 86 -71 154t-189 72q-169 -2 -248 -110t-78 -292q-3 -204 72 -329t258 -129q130 2 194 67t72 174h31q0 -129 1 -171t1 -75q-46 -2 -165 -17t-185 -17q-214 2 -319 130t-105 363q5 248 123 348.5t289 96.5q67 -2 154.5 -14.5t162.5 -14.5z" />
    <glyph glyph-name="dagger" unicode="&#x2020;" horiz-adv-x="1024" 
d="M834 1191q0 59 23 90t67 31q39 0 55.5 -21.5t15.5 -60.5q0 -34 -23.5 -47t-68.5 -54q-33 -35 -64.5 -95t-56.5 -107h105q55 3 121 26.5t88 26.5q36 -1 55.5 -23t19.5 -51q0 -30 -17.5 -50t-47.5 -21q-34 4 -96 30.5t-150 30.5h-92q-37 -69 -65.5 -146.5t-30.5 -146.5
l-41 -37q-27 -24 -71 -101t-104.5 -195.5t-136 -267.5t-165.5 -319h-35q100 204 177 349t129 247.5t78.5 177t26.5 134.5q68 68 111.5 141.5t85.5 163.5h-115q-39 -4 -96 -30.5t-102 -30.5q-29 1 -50 20.5t-22 50.5q1 37 22 59t54 23q36 -4 88 -30.5t100 -30.5h137
q31 57 60 113t31 151z" />
    <glyph glyph-name="trademark" unicode="&#x2122;" horiz-adv-x="1579" 
d="M739 1396v-492q-1 -62 19.5 -76.5t77.5 -17.5v-45q-41 0 -75 1t-73 1q-47 0 -76.5 -1t-74.5 -1v45q58 2 77.5 18t18.5 72v496h-62q-61 1 -89 -23t-48 -90h-39l8 160q98 0 149 -1t138 -1q77 0 128 1t151 1l8 -160h-39q-25 70 -50 92.5t-89 20.5h-60zM1075 1443
q25 0 43.5 -1t44.5 -1q19 0 40.5 1t45.5 1l219 -537h7l227 537h174v-45q-32 1 -56.5 -13t-25.5 -69v-397q-2 -70 11 -88.5t59 -20.5v-45q-33 0 -57.5 1t-61.5 1q-36 0 -60.5 -1t-60.5 -1v45q40 1 55.5 17t14.5 65v410l-232 -537h-30q-23 53 -53.5 125t-62.5 150.5t-62.5 147
t-51.5 116.5v-392q-2 -47 13 -72.5t71 -29.5v-45h-221v45q52 6 66 33t12 94v430q-15 15 -28 21.5t-40 9.5v45z" />
    <glyph glyph-name="brokenbar" unicode="&#xa6;" horiz-adv-x="455" 
d="M342 464h59v-464h-59v464zM342 1230h59v-465h-59v465z" />
    <glyph glyph-name="cedilla" unicode="&#xb8;" horiz-adv-x="598" 
d="M260 -66q1 26 21 42t43 16q24 0 38.5 -16t14.5 -39q-7 -58 -65.5 -108t-84.5 -54q-4 1 -6 3t-2 5q6 13 48 41t48 55q-3 20 -27.5 21.5t-27.5 33.5z" />
    <glyph glyph-name="onesuperior" unicode="&#xb9;" horiz-adv-x="555" 
d="M498 892q98 4 134.5 30.5t45.5 30.5q6 0 8 -2t2 -8q-29 -59 -73 -158.5t-90 -203t-76.5 -179t-30.5 -88.5q0 -15 8 -24.5t31 -9.5l22 2q8 0 12.5 -2.5t4.5 -10.5q0 -6 -4 -10t-15 -4q-6 0 -36.5 3t-86.5 3q-43 0 -77 -3.5t-41 -4.5q-7 0 -13 3.5t-6 12.5q0 7 7 10t24 3
q21 0 35 5.5t24 16.5q43 59 131.5 273.5t98.5 257.5q0 19 -10.5 25t-37.5 5q-34 -1 -43 1t-8 14q0 9 6 11.5t17 2.5q7 0 15.5 -1t21.5 -1z" />
    <glyph glyph-name="multiply" unicode="&#xd7;" horiz-adv-x="819" 
d="M344 521l45 43l238 -237l239 239l45 -45l-239 -239l239 -240l-43 -42l-241 239l-240 -239l-45 44l240 240z" />
    <glyph glyph-name="quotesingle" unicode="'" horiz-adv-x="455" 
d="M578 939q-1 38 7.5 67t39.5 31q28 -1 37 -28t8 -68q-2 -94 -14.5 -230.5t-14.5 -160.5q0 -11 -4 -20.5t-12 -10.5q-10 1 -14.5 10.5t-4.5 20.5q-2 22 -14 159t-14 230z" />
    <glyph glyph-name="perthousand" unicode="&#x2030;" horiz-adv-x="1933" 
d="M381 384q-87 3 -127 64.5t-39 146.5q10 192 156 355t307 173q74 -1 106 -45t31 -116q-9 -172 -145.5 -366.5t-288.5 -211.5zM772 982q0 56 -20.5 83.5t-61.5 27.5q-128 -17 -256.5 -206t-138.5 -351q1 -52 26 -86t68 -35q111 15 241.5 201.5t141.5 365.5zM362 -10
l832 1146h43l-831 -1146h-44zM973 30q106 14 237.5 199t143.5 368q0 56 -20.5 83.5t-61.5 27.5q-128 -16 -256.5 -204.5t-138.5 -350.5q0 -52 24 -87t72 -36zM963 0q-86 3 -126 64t-40 146q10 189 156 353t307 175q76 -1 107 -46t30 -115q-9 -172 -146 -366t-288 -211z
M1520 153q0 -52 24 -87t72 -36q106 14 237.5 199t143.5 368q0 56 -20.5 83.5t-61.5 27.5q-128 -16 -256.5 -204.5t-138.5 -350.5zM2040 579q-9 -172 -145.5 -367t-288.5 -212q-87 3 -127 65t-39 145q10 189 156 353t307 175q76 -1 107 -45.5t30 -113.5z" />
    <glyph glyph-name="OE" unicode="&#x152;" horiz-adv-x="2261" 
d="M1548 1437q-45 0 -88.5 -18t-91.5 -48q39 -31 56.5 -59.5t17.5 -67.5q-6 -101 -89.5 -167t-170.5 -68q-19 0 -31 4.5t-12 13.5q0 5 3.5 9.5t10.5 4.5q13 -1 23.5 -6t27.5 -6q61 2 126.5 63.5t70.5 151.5q1 32 -11.5 56.5t-50.5 50.5q-151 -95 -338 -346.5t-204 -440.5
q3 -84 41.5 -124t83.5 -40q35 1 45.5 11.5t19.5 11.5q5 0 8.5 -1.5t3.5 -8.5q-1 -12 -21.5 -21t-51.5 -10q-63 0 -117 62.5t-57 181.5q13 222 188.5 437.5t351.5 305.5q-15 0 -24.5 1t-14.5 1q-103 -4 -205 -73.5t-182 -151.5q-142 -142 -291 -391.5t-161 -470.5
q1 -118 65 -196t185 -81q135 6 228.5 70.5t139.5 116.5q198 205 411.5 556.5t231.5 542.5q-1 69 -35.5 106.5t-91.5 37.5zM1323 1388q62 34 116.5 50.5t100.5 16.5q91 -1 141.5 -63.5t51.5 -173.5q-2 -102 -35.5 -212.5t-79.5 -213.5q63 31 147 52t174 29q-54 38 -95.5 96
t-43.5 146q7 162 163 264t384 105q157 -1 257 -61.5t103 -172.5q-1 -98 -82 -182.5t-231 -89.5q-120 4 -182 58t-62 108q3 42 30.5 67.5t41.5 26.5q7 0 9.5 -2.5t2.5 -7.5q-4 -15 -30.5 -28t-30.5 -56q0 -39 43.5 -73t126.5 -36q149 6 235 84t88 162q-3 79 -73.5 126
t-177.5 48q-233 -12 -369 -164t-139 -295q1 -51 18.5 -77t38.5 -41q19 2 62 4t88 2q85 1 157 -6t76 -41q1 -16 -20.5 -24.5t-73.5 -8.5q-82 0 -153.5 13.5t-127.5 39.5q-229 -43 -371.5 -228.5t-146.5 -363.5q1 -113 76.5 -198t220.5 -90q225 18 394.5 207.5t178.5 346.5
q-1 74 -49 115.5t-125 42.5q-136 -9 -247.5 -132t-118.5 -249q1 -53 31 -84t81 -32q44 2 63.5 19t29.5 19q2 0 6 -3t4 -9q-3 -17 -36 -29.5t-65 -13.5q-76 3 -120 60t-45 126q6 136 127 238t278 107q125 -4 184 -74t58 -164q-6 -184 -177 -345.5t-438 -173.5
q-186 6 -303 110t-121 253q0 15 1.5 33t5.5 33q-167 -199 -334.5 -294.5t-327.5 -95.5q-160 5 -260.5 116.5t-103.5 285.5q2 185 92.5 373t242.5 342q133 133 284 212t290 81q28 0 50.5 -3.5t41.5 -6.5z" />
    <glyph glyph-name="oe" unicode="&#x153;" horiz-adv-x="981" 
d="M676 1q45 0 84 21.5t86 68.5q77 82 106.5 132.5t44.5 51.5q7 0 9 -2.5t2 -7.5q-3 -16 -49.5 -75.5t-94.5 -108.5q-39 -40 -82.5 -64.5t-101.5 -26.5q-60 1 -97.5 31.5t-56.5 96.5q-36 -36 -114 -79.5t-158 -48.5q-60 1 -89.5 51t-29.5 146q17 270 178 391t258 119
q61 -1 94.5 -40t45.5 -107q77 65 152.5 103.5t140.5 39.5q40 0 59.5 -20t19.5 -60q-8 -113 -121.5 -197.5t-242.5 -88.5h-47q-35 -62 -63.5 -121t-30.5 -115q1 -46 27 -68t71 -22zM582 681q-138 -26 -262.5 -252.5t-133.5 -343.5q-1 -35 14.5 -59t55.5 -25q129 29 258 267
t139 337q0 34 -18 54.5t-53 21.5zM684 345q83 -2 136 16t112 78t90 113.5t31 81.5q0 23 -14 36t-40 13q-45 4 -122 -68.5t-193 -269.5z" />
    <glyph glyph-name="emdash" unicode="&#x2014;" horiz-adv-x="981" 
d="M170 390q0 21 25.5 30t78.5 9q68 -2 286 -13.5t286 -13.5q41 1 49.5 5.5t19.5 5.5q10 0 14.5 -4.5t4.5 -12.5q0 -11 -18 -19.5t-56 -8.5q-45 2 -282.5 12.5t-292.5 11.5q-54 -1 -71.5 -8t-27.5 -8q-5 0 -10.5 4t-5.5 10z" />
    <glyph glyph-name="endash" unicode="&#x2013;" horiz-adv-x="768" 
d="M721 405q37 1 51.5 6t22.5 6q5 0 11 -3t7 -14q0 -16 -24.5 -23t-67.5 -7q-70 2 -239 13t-208 13q-48 -1 -62.5 -9t-27.5 -9q-6 0 -12 4t-6 12q-2 17 20 27t86 10q82 -2 238.5 -13t210.5 -13z" />
    <glyph glyph-name="ellipsis" unicode="&#x2026;" horiz-adv-x="2048" 
d="M285 52q2 54 37.5 92.5t80.5 40.5q34 -1 46.5 -20t11.5 -47q-1 -43 -33.5 -83.5t-85.5 -44.5q-29 1 -43 16t-14 46zM1024 -10q-29 1 -43 16t-14 46q2 53 37 92t81 41q33 -1 46 -20t12 -47q-1 -41 -33.5 -82.5t-85.5 -45.5zM1706 -10q-29 1 -43 16t-14 46q2 54 37.5 92.5
t80.5 40.5q33 -1 46 -20t12 -47q-1 -43 -33.5 -83.5t-85.5 -44.5z" />
    <glyph glyph-name="daggerdbl" unicode="&#x2021;" horiz-adv-x="1024" 
d="M809 1105q12 73 22.5 138t79.5 69q35 -2 51.5 -26.5t16.5 -49.5q-1 -27 -15.5 -47.5t-33.5 -38.5q-34 -31 -63.5 -64.5t-84.5 -142.5q186 3 239 26.5t85 26.5q32 0 54.5 -19t23.5 -54q0 -27 -15 -47t-51 -21q-36 4 -104 28.5t-127 28.5h-121q-23 -49 -52.5 -100
t-57 -105.5t-45 -116t-17.5 -128.5q-100 -105 -151.5 -209t-90.5 -178h97q68 3 134.5 26.5t92.5 26.5q33 0 55 -20t23 -54q0 -27 -14.5 -44.5t-49.5 -19.5q-38 4 -106 27.5t-129 26.5h-117q-22 -36 -51.5 -104t-32.5 -149q-1 -56 -24 -84t-62 -29q-31 2 -49.5 22t-18.5 50
q2 47 57 84t140 210h-107q-32 -3 -87.5 -26.5t-105.5 -27.5q-37 2 -58 20t-22 46q0 26 16.5 50t61.5 26q42 -4 95.5 -28.5t124.5 -28.5h96q47 82 90 186t52 199l30 26q27 29 58.5 80t64.5 112.5t64.5 123t58.5 110.5h-115q-31 -4 -85 -28.5t-105 -28.5q-37 1 -59 21t-23 49
q1 36 24.5 57t53.5 21q39 -4 99 -30t130 -30h94q14 31 34 76.5t32 85.5z" />
    <glyph glyph-name="quotedblbase" unicode="&#x201e;" horiz-adv-x="555" 
d="M512 105q-13 -109 -123 -217t-168 -117q-3 1 -4.5 3.5t-1.5 6.5q0 11 32 23.5t91 66.5q28 29 45.5 56t17.5 46q-4 26 -30.5 34.5t-30.5 48.5q1 34 31.5 75.5t74.5 45.5q32 -1 49 -21t17 -51zM100 -129q28 29 45.5 56t18.5 46q-4 26 -32 34.5t-32 48.5q1 34 32 75.5
t75 45.5q32 -1 48.5 -21t16.5 -51q-13 -110 -122.5 -217.5t-160.5 -116.5q-5 1 -7.5 3.5t-3.5 6.5q1 11 32.5 23.5t89.5 66.5z" />
    <glyph glyph-name="quotedblleft" unicode="&#x201c;" horiz-adv-x="1024" 
d="M1157 1465q3 0 5 -1t3 -7q-1 -16 -33 -27.5t-90 -64.5q-28 -28 -45 -55t-18 -47q4 -27 30.5 -36.5t30.5 -49.5q-1 -36 -31 -76.5t-75 -44.5q-32 1 -49 20.5t-17 50.5q13 113 125 221.5t164 116.5zM1217 1263q4 -27 30.5 -36.5t30.5 -49.5q-1 -36 -30.5 -76.5t-73.5 -44.5
q-34 1 -51 20.5t-17 50.5q14 114 127 222t162 116q6 0 8 -2.5t2 -7.5q-1 -12 -35 -25t-90 -65q-28 -28 -45.5 -55t-17.5 -47z" />
    <glyph glyph-name="quotedblright" unicode="&#x201d;" horiz-adv-x="1024" 
d="M1001 1250q-4 28 -31.5 36.5t-31.5 49.5q1 34 31.5 75.5t74.5 45.5q31 0 48.5 -19.5t17.5 -52.5q-13 -112 -125 -220.5t-162 -116.5q-6 0 -8 2.5t-2 7.5q1 12 33 24t90 66q28 28 46 55t19 47zM1239 1250q-4 28 -31.5 36.5t-31.5 49.5q1 34 31 75.5t77 45.5
q31 0 48.5 -19.5t17.5 -52.5q-13 -111 -125.5 -220t-165.5 -117q-3 0 -5.5 2.5t-2.5 7.5q1 11 34 24.5t89 65.5q28 28 46 55t19 47z" />
    <glyph glyph-name="Agrave" unicode="&#xc0;" horiz-adv-x="1921" 
d="M1124 978q1 -73 46.5 -118t129.5 -46q152 9 247 107t98 180q-4 47 -30 58t-30 26q0 6 3 8t9 2q25 -1 46 -35.5t22 -85.5q-5 -113 -105.5 -198t-230.5 -89q-108 1 -184.5 69.5t-79.5 191.5q-3 145 153 273t506 136q138 0 258.5 -17.5t220 -41t173 -42t114.5 -20.5
q52 3 73.5 20.5t33.5 20.5q12 0 17 -8t5 -20q-1 -14 -9 -33.5t-15 -26.5q-5 -6 -19.5 -8t-54.5 -2q-98 2 -181.5 -37t-191.5 -147q-85 -85 -167.5 -196t-161.5 -263q139 2 211.5 39.5t72.5 81.5q-2 18 -15 27t-15 26q1 18 17.5 31t33.5 14q22 -1 31.5 -14t9.5 -31
q6 -45 -66 -118t-299 -81q-46 -90 -89 -211.5t-46 -236.5q2 -86 31 -124.5t65 -38.5q27 2 46.5 16.5t27.5 23.5q63 69 82 121t33 55q6 0 10 -3t4 -9q-2 -19 -59.5 -111t-143.5 -105q-91 7 -139.5 106t-48.5 214q1 84 24.5 159t53.5 138l-148 -4q-67 -82 -129.5 -164
t-129 -157.5t-147.5 -139t-186 -108.5q50 -46 102.5 -65.5t98.5 -19.5q114 7 147.5 52t45.5 51q5 0 9.5 -3t4.5 -9q0 -21 -51 -62.5t-148 -47.5q-93 4 -149 37t-82 59h-2q-29 -10 -83.5 -17t-98.5 -7q-179 0 -321.5 99.5t-150.5 298.5q13 230 189.5 351t357.5 122
q169 -5 261.5 -86t93.5 -184q17 1 101.5 8t213.5 8q76 83 158 173t143 151q152 152 275.5 225.5t212 100t135.5 32t49 17.5q-13 18 -189 54t-358 40q-407 -13 -581.5 -160t-170.5 -272zM1526 626l141 2q51 93 117.5 179.5t150.5 170.5q110 106 199.5 164.5t151.5 101.5l-2 8
q-18 5 -148 -53.5t-326 -245.5q-94 -95 -161 -176t-123 -151zM1102 628q-4 98 -79 144t-177 46q-209 -9 -388.5 -150.5t-191.5 -310.5q4 -142 111 -230t262 -91q64 1 118 14.5t83 28.5q-22 41 -34.5 80.5t-12.5 85.5q0 21 2 37.5t2 17.5q-64 1 -130 38t-71 105q2 40 21.5 63
t33.5 23q6 0 10.5 -3t4.5 -9q-3 -16 -27 -29.5t-27 -48.5q0 -17 8 -33.5t19 -27.5q21 -22 60 -32.5t108 -10.5q27 97 99 161t196 95v37zM831 341q70 17 113 42.5t74 57.5q46 49 61.5 84t14.5 45q-37 -9 -89 -30.5t-100 -67.5q-35 -35 -51.5 -67.5t-22.5 -63.5zM811 241
q0 -37 11 -76.5t36 -75.5q70 26 142.5 79t168.5 150q57 58 148.5 158t109.5 119h-81q-75 -1 -137.5 -7t-73.5 -7q-3 -27 -20.5 -76t-59.5 -94q-36 -38 -94 -69t-144 -42q0 -12 -3 -25t-3 -34zM2284 1760q36 -2 48.5 -39.5t49.5 -81.5q35 -31 62 -34t28 -13q0 -9 -7 -11.5
t-18 -2.5q-66 1 -137.5 37.5t-77.5 91.5q1 21 15.5 36.5t36.5 16.5z" />
    <glyph glyph-name="Acircumflex" unicode="&#xc2;" horiz-adv-x="1921" 
d="M2499 1711q4 -73 31.5 -91.5t31.5 -23.5q0 -3 -7 -4.5t-15 -1.5q-40 1 -66.5 23.5t-38.5 50.5q-37 -30 -89 -53.5t-91 -24.5q-6 0 -9 1.5t-3 4.5q0 14 45.5 24.5t132.5 90.5q35 36 53 61.5t27 26.5q4 0 5 -5t1 -9q0 -10 -3.5 -29.5t-4.5 -40.5zM887 24q-29 -10 -83.5 -17
t-98.5 -7q-179 0 -321.5 99.5t-150.5 298.5q13 230 189.5 351t357.5 122q169 -5 261.5 -86t93.5 -184q17 1 101.5 8t213.5 8q77 83 158.5 173t142.5 151q152 152 275.5 225.5t212 100t135.5 32t49 17.5q-13 18 -189 54t-358 40q-405 -12 -580.5 -157.5t-171.5 -274.5
q1 -73 46.5 -118t129.5 -46q152 9 247 107t98 180q-4 47 -30 58t-30 26q0 6 3 8t9 2q25 -2 46 -36.5t22 -84.5q-5 -112 -105 -197t-231 -90q-108 1 -184.5 69.5t-79.5 191.5q-3 145 153.5 273t505.5 136q142 0 262.5 -17.5t219 -41t170 -42t114.5 -20.5q46 3 71.5 20.5
t35.5 20.5q12 0 17 -8t5 -20q-1 -14 -9 -33.5t-15 -26.5q-5 -6 -19.5 -8t-54.5 -2q-98 2 -181.5 -37t-191.5 -147q-85 -85 -167.5 -196t-161.5 -263q139 2 211.5 39.5t72.5 81.5q-2 18 -15 27t-15 26q1 18 17 31t34 14q22 -1 31.5 -14t9.5 -31q6 -45 -67.5 -118t-297.5 -81
q-46 -90 -89 -211.5t-46 -236.5q1 -79 29 -121t67 -42q25 2 45.5 16.5t28.5 23.5q63 69 82 121t33 55q6 0 10 -3t4 -9q-2 -19 -59.5 -111t-143.5 -105q-91 7 -139.5 106t-48.5 214q1 84 24.5 159t53.5 138l-148 -4q-67 -82 -129.5 -164t-129 -157.5t-147.5 -139t-186 -108.5
q50 -46 101.5 -65.5t99.5 -19.5q114 7 147.5 52t45.5 51q5 0 9.5 -3t4.5 -9q0 -21 -51 -62.5t-148 -47.5q-93 4 -149 37t-82 59h-2zM1667 628q51 91 117.5 178t150.5 172q110 106 199.5 164.5t151.5 101.5l-2 8q-18 5 -148 -53.5t-326 -245.5q-93 -93 -156.5 -169.5
t-129.5 -157.5zM1102 628q-4 98 -79 144t-177 46q-209 -9 -388.5 -150t-191.5 -311q4 -142 111 -230t262 -91q65 1 120 14.5t81 28.5q-22 41 -34.5 80.5t-12.5 85.5q0 21 2 37.5t2 17.5q-64 1 -130 38t-71 105q2 40 21 63t34 23q6 0 10.5 -3t4.5 -9q-3 -16 -27 -29.5
t-27 -48.5q0 -17 8 -33.5t19 -27.5q21 -22 60 -32.5t108 -10.5q27 97 99 161t196 95v37zM831 341q70 17 113 42.5t74 57.5q46 49 61.5 84t14.5 45q-37 -9 -89 -30.5t-100 -67.5q-35 -35 -51.5 -67.5t-22.5 -63.5zM811 241q0 -37 11 -76.5t36 -75.5q70 26 142.5 79t168.5 150
q57 58 148.5 158t109.5 119h-81q-75 -1 -137.5 -7t-73.5 -7q-3 -27 -20.5 -76t-59.5 -94q-36 -38 -94 -69t-144 -42q0 -12 -3 -25t-3 -34z" />
    <glyph glyph-name="Egrave" unicode="&#xc8;" horiz-adv-x="1280" 
d="M1290 386q-3 -157 -167.5 -330t-456.5 -189q-208 6 -331 125t-126 298q-1 200 176 368t543 211q-59 50 -91 105.5t-32 128.5q1 139 141.5 244.5t409.5 111.5q202 -4 281.5 -72t76.5 -147q-3 -109 -98 -182t-250 -76q-105 2 -165.5 43t-61.5 98q2 65 58.5 104t139.5 40
q44 0 67 -8.5t23 -22.5q0 -6 -3 -8t-9 -2q-9 2 -27 12.5t-57 11.5q-73 -1 -119.5 -35.5t-48.5 -85.5q-1 -38 35.5 -67t118.5 -31q126 2 244 67.5t127 170.5q0 64 -63 108.5t-183 46.5q-208 -10 -374 -146t-173 -284q1 -53 21.5 -78.5t44.5 -44.5q10 0 45.5 3.5t99.5 3.5
q107 0 171 -14.5t66 -39.5q2 -11 -18.5 -22t-83.5 -12q-135 4 -198 28.5t-87 28.5q-291 -41 -464 -264t-177 -408q0 -122 81.5 -202t238.5 -84q248 20 418.5 221.5t177.5 351.5q1 65 -41.5 111.5t-134.5 48.5q-170 -11 -283 -144t-117 -250q0 -54 30 -92.5t89 -40.5
q28 0 57 12.5t50 32.5q36 41 40 65t19 25q7 0 9.5 -3t2.5 -9q-1 -32 -48 -83t-124 -56q-72 1 -121 49.5t-51 130.5q9 152 143 263.5t291 117.5q114 -2 180.5 -71t67.5 -183zM1430 1760q36 -2 48.5 -39.5t49.5 -81.5q35 -31 62 -34t28 -13q0 -9 -7 -11.5t-18 -2.5
q-66 1 -137.5 37.5t-77.5 91.5q1 21 15.5 36.5t36.5 16.5z" />
    <glyph glyph-name="Ecircumflex" unicode="&#xca;" horiz-adv-x="1280" 
d="M1569 1709q36 38 52.5 61.5t25.5 24.5q4 0 5 -4.5t1 -7.5q-1 -10 -5.5 -32.5t-5.5 -39.5q4 -69 33 -90t33 -25q0 -3 -6.5 -4.5t-13.5 -1.5q-43 1 -68.5 23.5t-38.5 50.5q-39 -30 -90.5 -53.5t-91.5 -24.5q-6 0 -8 2.5t-2 5.5q0 13 43.5 20.5t136.5 94.5zM805 1103
q1 140 141.5 245.5t409.5 110.5q202 -4 281.5 -72t76.5 -147q-3 -107 -97.5 -181t-250.5 -77q-105 2 -165.5 42.5t-61.5 98.5q2 65 59 104t139 40q44 0 67 -8.5t23 -22.5q0 -6 -3 -8t-9 -2q-9 2 -26.5 12.5t-57.5 11.5q-72 -1 -119 -35t-49 -86q-1 -38 35.5 -67t118.5 -31
q127 2 245 68.5t126 169.5q0 61 -61.5 107t-184.5 48q-208 -10 -374 -146t-173 -284q1 -53 21.5 -78.5t44.5 -44.5q10 0 45.5 3.5t99.5 3.5q107 0 171 -14.5t66 -39.5q2 -11 -18.5 -22t-83.5 -12q-138 3 -197.5 27.5t-78.5 27.5q-253 -16 -446.5 -232.5t-203.5 -437.5
q0 -120 81.5 -201t238.5 -85q247 20 418 221t178 352q1 65 -41.5 111.5t-134.5 48.5q-170 -11 -283 -144t-117 -250q0 -54 29.5 -92.5t89.5 -40.5q32 0 59.5 12.5t47.5 32.5q36 41 40 65t19 25q7 0 9.5 -3t2.5 -9q-1 -28 -46.5 -80.5t-125.5 -58.5q-71 1 -120.5 49.5
t-51.5 130.5q9 152 143 263.5t291 117.5q114 -2 180.5 -71t67.5 -183q-3 -154 -166.5 -328.5t-457.5 -190.5q-209 6 -331.5 125t-125.5 298q-1 200 175 367.5t544 211.5q-59 50 -91 105.5t-32 128.5z" />
    <glyph glyph-name="Edieresis" unicode="&#xcb;" horiz-adv-x="1280" 
d="M1550 1701q-2 -38 -32 -72.5t-68 -36.5q-23 0 -34 14t-11 35q2 40 32.5 73.5t69.5 35.5q19 0 31 -12t12 -37zM805 1103q1 139 141 244.5t410 111.5q202 -4 281.5 -72t76.5 -147q-3 -107 -97.5 -181t-250.5 -77q-105 2 -165.5 42.5t-61.5 98.5q3 65 60 104t138 40
q44 0 67 -8.5t23 -22.5q0 -6 -3 -8t-9 -2q-10 2 -28.5 12.5t-55.5 11.5q-72 -1 -119 -35t-49 -86q-1 -38 35.5 -67t118.5 -31q127 2 245 68.5t126 169.5q0 61 -61.5 107t-184.5 48q-208 -10 -374 -146t-173 -284q1 -53 21.5 -78.5t44.5 -44.5q10 0 45.5 3.5t99.5 3.5
q107 0 171 -14.5t66 -39.5q2 -11 -18.5 -22t-83.5 -12q-135 4 -198 28.5t-87 28.5q-291 -41 -464 -264t-177 -408q1 -123 82.5 -202.5t237.5 -83.5q248 21 418.5 222.5t177.5 350.5q1 65 -41.5 111.5t-134.5 48.5q-170 -11 -283 -144t-117 -250q0 -54 29 -92.5t90 -40.5
q28 0 57 12.5t50 32.5q36 41 41 65t18 25q7 0 9.5 -3t2.5 -9q-1 -32 -48 -83t-124 -56q-72 1 -121 49.5t-51 130.5q9 152 143 263.5t291 117.5q114 -2 180.5 -71t67.5 -183q-2 -153 -165 -328t-459 -191q-209 6 -331.5 126t-125.5 297q-1 197 175 366.5t544 212.5
q-59 50 -91 105.5t-32 128.5zM1790 1701q-1 -36 -30.5 -71t-69.5 -38q-19 0 -32 12t-13 40q1 32 30.5 67.5t71.5 38.5q17 0 29.5 -11t13.5 -38z" />
    <glyph glyph-name="Icircumflex" unicode="&#xce;" horiz-adv-x="1622" 
d="M2187 1709q36 38 53 61.5t25 24.5q4 0 5 -4.5t1 -7.5q-1 -11 -5 -34t-5 -38q4 -70 33 -90t33 -25q-1 -3 -7.5 -4.5t-13.5 -1.5q-43 1 -68.5 23.5t-37.5 50.5q-38 -30 -90 -53.5t-91 -24.5q-6 0 -9 2t-3 6q-1 13 42 20t138 95zM2345 1441q15 -1 20 -11.5t5 -21.5
q0 -30 -19.5 -48.5t-54.5 -19.5q-34 3 -122 -26.5t-192 -126.5q-92 -92 -162.5 -220t-133 -269.5t-134 -271.5t-163.5 -228q-102 -103 -250 -157.5t-342 -56.5q-288 6 -435.5 121t-148.5 287q5 178 139 284t336 109q181 -4 274.5 -84.5t94.5 -185.5q-2 -99 -83 -184.5
t-214 -91.5q-97 2 -160 46.5t-65 112.5q0 39 24.5 68.5t71.5 30.5q16 0 23.5 -4t7.5 -11q-1 -9 -8.5 -11.5t-14.5 -2.5l-23 2q-29 -1 -47.5 -21.5t-19.5 -50.5q2 -51 50 -85t116 -35q124 5 217 85.5t98 174.5q-3 88 -76.5 136.5t-183.5 49.5q-203 -6 -346.5 -125
t-149.5 -272q9 -159 154 -241.5t317 -82.5q110 -1 236.5 44t239.5 155q125 133 229 302t208.5 340t232.5 307t302 202q6 3 6.5 6.5t0.5 7.5q-85 31 -226.5 58.5t-279.5 29.5q-346 -8 -549.5 -154.5t-208.5 -332.5q1 -88 64.5 -152t175.5 -67q156 9 262 116t110 211
q-1 60 -36 100t-99 42q-84 -3 -158 -65.5t-79 -143.5q4 -54 31.5 -62t31.5 -20q0 -9 -4 -12t-10 -3q-30 1 -49.5 28t-20.5 63q5 95 86.5 161.5t173.5 69.5q77 -2 123 -55.5t47 -130.5q-4 -120 -108.5 -221t-262.5 -107q-134 2 -235.5 87t-106.5 228q-4 164 154.5 311.5
t523.5 157.5q121 0 237 -17.5t213 -39t160.5 -38.5t82.5 -19q42 3 60 25.5t42 25.5z" />
    <glyph glyph-name="Idieresis" unicode="&#xcf;" horiz-adv-x="1622" 
d="M2023 1641q1 34 31.5 70t71.5 39q18 0 30.5 -13t12.5 -36q-2 -38 -32 -72.5t-69 -36.5q-21 0 -33 13t-12 36zM2345 1441q15 -1 20 -12t5 -21q0 -30 -19.5 -48.5t-54.5 -19.5q-34 3 -122 -26.5t-192 -126.5q-92 -92 -162.5 -220t-133 -269.5t-134 -271.5t-163.5 -228
q-102 -103 -250 -157.5t-342 -56.5q-288 6 -435.5 121t-148.5 287q5 178 138.5 284t336.5 109q181 -4 274.5 -84.5t94.5 -185.5q-2 -99 -83 -184.5t-214 -91.5q-97 2 -160 46.5t-65 112.5q0 39 24.5 68.5t71.5 30.5q14 0 22.5 -4t8.5 -11q-1 -9 -8.5 -11.5t-14.5 -2.5l-23 2
q-29 -1 -47.5 -21.5t-19.5 -50.5q2 -50 50 -84.5t116 -35.5q126 5 218.5 85.5t96.5 174.5q-3 88 -77 136.5t-183 49.5q-200 -6 -344.5 -125t-151.5 -272q9 -159 154 -241.5t317 -82.5q110 -1 236.5 44t239.5 155q125 133 229 302t208.5 340t232.5 307t302 202q6 3 6.5 6.5
t0.5 7.5q-85 31 -226.5 58.5t-279.5 29.5q-346 -8 -549.5 -154.5t-208.5 -332.5q1 -88 64.5 -152t175.5 -67q156 9 262 116t110 211q0 59 -35 99.5t-100 42.5q-86 -3 -159 -66t-78 -143q4 -54 31.5 -62t31.5 -20q0 -9 -4 -12t-10 -3q-30 1 -49.5 28t-20.5 63
q5 95 86.5 161.5t173.5 69.5q77 -2 123 -55.5t47 -130.5q-4 -120 -108 -221t-263 -107q-136 2 -236.5 86.5t-105.5 228.5q-4 164 154.5 311.5t523.5 157.5q121 0 234.5 -17.5t209 -39t161 -38.5t88.5 -19q42 3 59.5 25.5t42.5 25.5zM2408 1699q-2 -38 -32.5 -71.5
t-67.5 -35.5q-17 0 -30.5 11.5t-14.5 40.5q1 29 29.5 66t72.5 40q18 0 30 -12t13 -39z" />
    <glyph glyph-name="acute" unicode="&#xb4;" horiz-adv-x="598" 
d="M440 966q-3 -47 -75 -93t-181 -49q-10 -1 -18.5 0.5t-9.5 10.5q1 14 34.5 12.5t88.5 46.5q37 43 55 76t61 35q22 0 33.5 -9.5t11.5 -29.5z" />
    <glyph glyph-name="grave" unicode="`" horiz-adv-x="598" 
d="M229 1007q38 -2 49.5 -39.5t49.5 -81.5q35 -31 62 -33.5t28 -11.5q0 -9 -7 -12t-18 -3q-69 1 -139 36.5t-76 90.5q1 21 15 37t36 17z" />
    <glyph glyph-name="circumflex" unicode="&#x2c6;" horiz-adv-x="598" 
d="M395 1017q4 0 5 -4.5t1 -7.5q0 -10 -3.5 -29.5t-4.5 -40.5q4 -71 32 -91.5t32 -23.5q-1 -4 -7.5 -6t-13.5 -2q-42 1 -67 23.5t-37 50.5q-37 -30 -89 -52.5t-91 -23.5q-7 0 -10 1.5t-3 4.5q1 13 49.5 26t130.5 89q39 40 53 63t23 23z" />
    <glyph glyph-name="dieresis" unicode="&#xa8;" horiz-adv-x="598" 
d="M246 951q-1 -38 -30.5 -72t-68.5 -36q-20 0 -30.5 12t-10.5 35q1 43 30 75.5t67 34.5q18 0 30.5 -12t12.5 -37zM385 847q-20 -1 -31.5 8.5t-11.5 38.5q1 35 31 68.5t73 35.5q19 0 30 -11t11 -38q-2 -37 -32.5 -68.5t-69.5 -33.5z" />
    <glyph glyph-name="tilde" unicode="&#x2dc;" horiz-adv-x="598" 
d="M104 871q-5 0 -7.5 3t-2.5 8q1 11 36 55.5t93 50.5q47 -3 101.5 -20.5t87.5 -20.5q38 3 53 26.5t27 26.5q6 0 7 -2t1 -6q-1 -16 -39.5 -67t-108.5 -58q-45 2 -99 18.5t-87 18.5q-33 -2 -41.5 -16.5t-20.5 -16.5z" />
    <glyph glyph-name="Ugrave" unicode="&#xd9;" horiz-adv-x="1579" 
d="M1679 1578q-67 1 -138 37.5t-77 91.5q1 21 15.5 36.5t36.5 16.5q37 -2 49 -39.5t49 -81.5q35 -31 62 -34t28 -13q0 -9 -7 -11.5t-18 -2.5zM743 1453q220 -6 329.5 -118t109.5 -261q0 -119 -62 -237t-186 -269q-47 -61 -96.5 -123.5t-89 -121t-64.5 -112.5t-25 -103
q0 -41 22.5 -68.5t61.5 -28.5q89 8 231 160.5t292 351.5q146 197 280 401.5t273 467.5h8q0 -26 12.5 -36.5t34.5 -10.5q25 0 46.5 13t41.5 34h10q-102 -181 -213.5 -377.5t-210 -379.5t-160 -325.5t-61.5 -214.5q0 -32 16.5 -55.5t51.5 -24.5q27 -1 56.5 23t72.5 84
q59 100 77 142.5t31 41.5q8 0 11.5 -4t3.5 -10q-5 -25 -61 -116t-99 -138q-20 -20 -43 -31.5t-51 -12.5q-51 1 -84.5 44.5t-34.5 134.5q0 100 62.5 264t187.5 406q-337 -484 -520 -670t-263 -179q-62 2 -97 57t-36 153q0 80 22.5 145.5t64.5 128t96.5 129t117.5 148.5
q95 126 149.5 233t55.5 189q-2 106 -83 173.5t-214 69.5q-221 -9 -391.5 -163t-179.5 -338q-2 -40 17.5 -87t82.5 -90l-6 66q4 166 109 302t260 144q86 -2 131 -56.5t45 -131.5q-4 -140 -119 -254t-287 -121q-34 0 -60.5 5.5t-45.5 13.5q15 -54 64.5 -111.5t129.5 -62.5
q37 0 58 11.5t37 29.5q29 33 29.5 58t17.5 26q6 -1 9 -7.5t3 -7.5q-1 -36 -41 -79.5t-111 -47.5q-90 4 -145.5 67t-71.5 130q-79 44 -128 110.5t-50 165.5q5 182 164 318t405 143zM360 812q1 -30 4.5 -51t4.5 -29q21 -8 39.5 -13t48.5 -5q164 9 274.5 133.5t114.5 253.5
q-1 66 -38.5 102.5t-96.5 36.5q-132 -8 -238.5 -137.5t-112.5 -290.5z" />
    <glyph glyph-name="Ucircumflex" unicode="&#xdb;" horiz-adv-x="1579" 
d="M1655 1709q33 35 51 60t27 26q4 0 5 -4.5t1 -7.5q-1 -14 -5 -35t-5 -39q4 -68 32.5 -88t32.5 -25q0 -3 -6.5 -4.5t-13.5 -1.5q-42 1 -68.5 23.5t-38.5 50.5q-37 -30 -89 -53.5t-91 -24.5q-6 0 -9 2t-3 6q-1 13 42 20t138 95zM743 1453q220 -6 329.5 -118t109.5 -261
q-1 -128 -66.5 -246t-181.5 -260q-47 -61 -96.5 -123.5t-89 -121t-64.5 -112.5t-25 -103q0 -41 22.5 -68.5t61.5 -28.5q90 8 231.5 160.5t291.5 351.5q146 197 280.5 401.5t272.5 467.5h8q0 -26 12.5 -36.5t34.5 -10.5q25 0 46.5 13t41.5 34h10q-102 -181 -213.5 -377.5
t-210 -379.5t-160 -325.5t-61.5 -214.5q0 -32 17 -55.5t51 -24.5q27 -1 56.5 23t72.5 84q59 100 77 142.5t31 41.5q8 0 11.5 -4t3.5 -10q-5 -25 -61 -116t-99 -138q-20 -20 -43 -31.5t-51 -12.5q-51 1 -84.5 44.5t-34.5 134.5q0 100 62.5 264t187.5 406q-337 -484 -520 -670
t-263 -179q-62 2 -97 57t-36 153q0 80 22.5 145.5t64.5 128t96.5 129t117.5 148.5q95 126 149.5 233t55.5 189q-2 106 -83 173.5t-214 69.5q-221 -9 -391.5 -163t-179.5 -338q-2 -40 17.5 -87t82.5 -90l-6 66q4 166 109 302t260 144q86 -2 131 -56.5t45 -131.5
q-4 -140 -119 -254t-287 -121q-35 0 -59.5 5.5t-46.5 13.5q15 -55 64.5 -112t129.5 -62q31 0 54.5 11.5t40.5 29.5q29 33 29.5 58t17.5 26q6 -1 9 -7.5t3 -7.5q1 -27 -35 -74.5t-117 -52.5q-90 4 -145.5 67t-71.5 130q-79 44 -128 110.5t-50 165.5q5 182 164 318t405 143z
M360 812q1 -30 4.5 -51t4.5 -29q22 -8 39.5 -13t48.5 -5q164 9 274.5 133.5t114.5 253.5q-1 66 -38.5 102.5t-96.5 36.5q-132 -7 -238.5 -136t-112.5 -292z" />
    <glyph glyph-name="macron" unicode="&#xaf;" horiz-adv-x="1020" 
d="M0 1551h1018v-77h-1018v77z" />
    <glyph glyph-name="Yacute" unicode="&#xdd;" horiz-adv-x="1792" 
d="M1563 1158q4 117 100 192.5t229 78.5q56 0 116 -11.5t116.5 -31t108 -39t91.5 -33.5q150 98 269.5 145t218.5 47q101 -3 140.5 -41.5t37.5 -81.5q2 -58 -75 -124t-255 -72q-100 1 -193 18.5t-159 38.5q-186 -178 -309 -334.5t-219.5 -301t-198.5 -287t-246 -289.5
q-147 -149 -337.5 -253t-430.5 -109q-217 5 -345.5 105.5t-131.5 248.5q2 105 74.5 180t197.5 78q110 -2 176 -54.5t68 -124.5q0 -34 -23 -66t-67 -34q-28 0 -54 18t-28 52q5 41 36.5 48t35.5 42q-3 42 -47.5 69.5t-98.5 28.5q-98 -5 -153.5 -74t-56.5 -147
q1 -124 118 -230.5t336 -114.5q328 9 573 272.5t257 684.5q-6 315 -177 512t-432 203q-199 -5 -321.5 -123.5t-126.5 -290.5q1 -73 27 -136t61 -101q59 179 174.5 259t251.5 79q157 -4 235 -80.5t78 -171.5q-1 -113 -99.5 -205.5t-279.5 -97.5q-114 1 -193 36.5t-151 92.5
q3 -170 110 -281t279 -115q97 3 159.5 34.5t90.5 60.5q51 56 59.5 93t22.5 38q6 0 9 -3.5t3 -13.5q0 -49 -86.5 -134.5t-257.5 -94.5q-205 10 -308 136t-103 245v59q-49 62 -76.5 130t-28.5 159q8 236 175.5 384t402.5 153q203 5 386 -150.5t195 -535.5q1 -227 -80.5 -458.5
t-252.5 -399.5q155 116 261.5 271.5t208 334t241 362.5t360.5 354l-4 5q-81 20 -191.5 49t-206.5 32q-108 -1 -185 -52t-81 -144q1 -59 47.5 -104.5t122.5 -47.5q65 4 81.5 29t31.5 29q6 0 8 -3t2 -10q-1 -25 -32.5 -44.5t-84.5 -20.5q-84 1 -139 50t-57 134zM1935 1760
q24 0 34.5 -10.5t10.5 -26.5q-2 -43 -72 -89t-186 -50q-19 0 -24 1t-4 3q1 16 35 15.5t88 46.5q36 42 56 75t62 35zM887 1035q-104 6 -223 -63t-179 -279q62 -51 144.5 -94.5t216.5 -46.5q171 6 253.5 87t82.5 169q-2 95 -83 159.5t-212 67.5zM2810 1488q-92 0 -204.5 -47
t-231.5 -139q58 -28 144 -52t192 -26q113 2 184.5 49t73.5 110q-2 55 -49 80t-109 25z" />
    <glyph glyph-name="yacute" unicode="&#xfd;" 
d="M293 640q-67 -71 -85 -109.5t-34 -39.5q-4 0 -6 2t-2 8q6 28 73.5 109t125.5 91q40 -1 60.5 -37.5t20.5 -93.5q-2 -75 -40.5 -150t-90 -143.5t-89.5 -125t-38 -101.5q0 -25 13.5 -36t34.5 -11q30 2 59.5 23t44.5 36q89 92 206 271t224 373q7 -10 15.5 -14.5t25.5 -4.5
q14 1 50.5 6t68.5 6q12 0 20 -2.5t8 -9.5t-8 -8.5t-20 -1.5q-30 1 -52 -12t-47 -52q-94 -163 -171.5 -313.5t-144 -281.5t-128 -233t-125.5 -168q-70 -70 -156 -108t-189 -39q-126 5 -174 52t-47 85q1 31 19 53.5t48 22.5q25 0 42.5 -16t17.5 -42q-1 -19 -15.5 -31
t-17.5 -36q1 -25 28.5 -46.5t82.5 -23.5q74 1 129 26.5t107 79.5q83 82 187.5 262.5t287.5 539.5q-61 -92 -169.5 -241t-206.5 -165q-43 1 -67.5 30t-25.5 88q0 79 38 155t89.5 144.5t90 127t40.5 103.5q-1 29 -14 38.5t-25 8.5q-10 0 -26.5 -9.5t-42.5 -35.5zM889 966
q-2 -43 -71.5 -90.5t-184.5 -51.5q-8 -1 -18 0.5t-11 10.5q1 14 34.5 12.5t88.5 46.5q38 43 56.5 76t60.5 35q23 -1 34 -12t11 -27z" />
    <glyph glyph-name="degree" unicode="&#xb0;" horiz-adv-x="614" 
d="M502 964q73 -2 117 -47.5t45 -110.5q-2 -70 -47.5 -114.5t-114.5 -45.5q-72 2 -115.5 48t-44.5 110q1 64 44 111t116 49zM504 933q-55 -2 -88.5 -39t-34.5 -88q1 -51 34 -89t89 -40q56 2 88 41t33 86q-1 52 -35 89.5t-86 39.5z" />
    <glyph glyph-name="Ccedilla" unicode="&#xc7;" horiz-adv-x="1280" 
d="M223 251q25 404 376.5 791.5t735.5 416.5q137 -3 207 -74.5t70 -177.5q-7 -164 -123 -281t-262 -122q-90 1 -150.5 53t-62.5 137q4 96 76.5 168t164.5 76q32 0 63.5 -11.5t33.5 -31.5q0 -1 -2 -6t-7 -6q-11 2 -21.5 18.5t-45.5 18.5q-67 -4 -140 -77.5t-79 -172.5
q1 -64 35.5 -101.5t93.5 -38.5q125 9 242.5 144t125.5 285q-1 82 -51 129.5t-141 48.5q-98 1 -221 -61.5t-269 -207.5q-183 -185 -369.5 -486.5t-201.5 -526.5q4 -154 92 -237.5t215 -85.5q253 26 418.5 275.5t171.5 428.5q0 74 -39.5 126t-122.5 54q-150 -11 -266.5 -155
t-122.5 -292q0 -65 31 -102.5t88 -38.5q36 0 60 11t46 34q42 46 50.5 78t19.5 33q6 0 10 -4t4 -9q-1 -27 -49.5 -89t-138.5 -70q-75 2 -122.5 60.5t-49.5 152.5q7 157 134 280.5t286 130.5q112 -2 178 -78t68 -198q-7 -215 -183 -426.5t-442 -228.5q-175 3 -292 121.5
t-122 324.5zM504 -201q25 0 39 -15t14 -38q-7 -62 -67 -111t-82 -53q-5 1 -7 3t-2 5q0 12 18.5 20t49.5 36q12 13 19.5 22t7.5 19q-3 18 -27 22t-27 29q1 26 19.5 43.5t44.5 17.5z" />
    <glyph glyph-name="ccedilla" unicode="&#xe7;" horiz-adv-x="598" 
d="M616 681q-22 2 -59.5 -14.5t-91.5 -69.5q-86 -89 -178 -247.5t-99 -248.5q1 -44 24.5 -68t61.5 -24q38 1 74 21t68 53q91 96 114.5 147t36.5 52q6 0 9.5 -4t3.5 -9q-5 -25 -53.5 -89t-86.5 -103q-32 -33 -71.5 -56t-92.5 -25q-68 3 -106 57t-39 143q9 178 153 334.5
t318 166.5q54 0 84.5 -25t30.5 -79q-2 -65 -37.5 -122.5t-83.5 -61.5q-22 0 -36.5 16t-14.5 41q1 35 25.5 61t56.5 27q3 0 7.5 -1t10.5 -1q26 1 36.5 20t10.5 41q0 31 -20.5 49.5t-55.5 18.5zM221 -20q29 0 41 -15.5t12 -38.5q-7 -60 -67 -110t-82 -54q-4 1 -6 3t-2 6
q1 11 19 19.5t48 35.5q9 9 18.5 21.5t10.5 19.5q-3 18 -27.5 22t-27.5 29q1 29 20 46t43 16z" />
    <glyph glyph-name="Ntilde" unicode="&#xd1;" horiz-adv-x="2048" 
d="M2234 1609q1 13 36.5 56.5t94.5 49.5q47 -3 98 -20.5t85 -20.5q40 3 55.5 27t28.5 27q4 0 6 -3t2 -6q-1 -18 -42 -68.5t-108 -56.5q-45 2 -97.5 17.5t-88.5 17.5q-30 -2 -39.5 -14t-19.5 -14q-7 0 -9 2.5t-2 5.5zM2007 1437q108 0 155.5 11t63.5 38q0 19 11 31.5t26 13.5
q12 0 18.5 -5.5t6.5 -15.5q0 -42 -75 -71.5t-222 -30.5q-106 0 -181 2t-114 2q-279 1 -459 -51t-289 -162q-50 -49 -84 -112t-35 -132q3 -100 72 -160.5t164 -62.5q141 7 247.5 115.5t112.5 230.5q-1 68 -34 105t-91 37q-74 -3 -151.5 -70.5t-83.5 -169.5q3 -53 25.5 -63
t25.5 -19l-12 -10q-34 1 -54 34t-20 81q5 96 85 163t173 70q91 -3 135.5 -58.5t44.5 -131.5q-3 -125 -105.5 -228.5t-262.5 -109.5q-155 4 -242 96.5t-88 224.5q-4 25 9.5 90.5t71.5 142t194.5 131t381.5 56.5q108 -1 285.5 -5.5t294.5 -6.5zM928 462q-4 -114 -89 -194
t-202 -83q-88 1 -151 42t-66 114q3 54 36.5 84.5t65.5 30.5q6 0 9.5 -2t3.5 -9q-5 -16 -43 -28t-43 -76q0 -52 41 -84t118 -33q119 3 208.5 73.5t94.5 166.5q-2 83 -75.5 137.5t-188.5 56.5q-190 -4 -328 -104t-145 -244q4 -133 116 -218.5t281 -88.5q197 11 347 119
t215 180q172 178 316 366.5t256 349.5t185.5 261t108.5 102q28 -2 36 -30.5t7 -65.5q-4 -164 -62.5 -336t-135.5 -336.5t-135 -306t-60 -241.5q0 -21 5 -33.5t15 -12.5q14 0 39 45.5t66 134.5t106.5 221t161.5 306q257 482 492 616.5t368 118.5q46 0 70 -10t24 -29
q-1 -19 -18 -33.5t-37 -15.5q-24 4 -36.5 28.5t-70.5 27.5q-102 9 -272.5 -122t-415.5 -515q-125 -193 -205.5 -342.5t-132 -252t-83 -154t-56.5 -53.5q-30 2 -46.5 55.5t-16.5 148.5q-5 110 32 261t170 429q51 98 121.5 248.5t77.5 199.5q0 11 -2.5 17t-11.5 6
q-35 -19 -123 -149t-206 -315t-248 -367.5t-247 -307.5q-70 -78 -202 -162.5t-334 -92.5q-231 7 -354.5 119t-124.5 259q3 159 124 264t318 109q134 -1 230.5 -67t101.5 -183z" />
    <glyph glyph-name="ntilde" unicode="&#xf1;" 
d="M811 947q38 3 53 26.5t27 26.5q6 0 7 -2t1 -6q-1 -16 -39 -67t-108 -58q-45 2 -100 18.5t-87 18.5q-32 -2 -41.5 -16.5t-19.5 -16.5q-5 0 -7.5 3t-2.5 8q1 11 36 55.5t93 50.5q47 -3 102.5 -20.5t85.5 -20.5zM150 474q-5 0 -6 2t-1 6q5 24 68.5 110t132.5 97
q39 -1 54 -28t14 -68q-1 -60 -26 -137.5t-58 -151.5q76 113 179 244t173 143q34 -1 52 -32t18 -82q-2 -70 -38 -141.5t-82 -140.5t-82 -128t-36 -105q0 -26 11.5 -39.5t31.5 -13.5q26 1 44.5 16t29.5 27q60 65 75 104t33 40q4 0 6 -2t2 -7q-5 -25 -66.5 -103t-123.5 -88
q-40 2 -63.5 44t-24.5 106q0 72 36 143.5t82 138.5t83 121t39 91q1 9 -4 21.5t-25 13.5q-78 -18 -235.5 -242t-272.5 -439h-10q-4 13 -12.5 21.5t-28.5 8.5q-21 0 -38 -9t-40 -23h-8q141 224 239.5 402.5t102.5 239.5q0 20 -10 29.5t-27 9.5q-15 -1 -31 -10.5t-28 -22.5
q-59 -64 -84.5 -113.5t-44.5 -52.5z" />
    <glyph glyph-name="exclamdown" unicode="&#xa1;" horiz-adv-x="682" 
d="M958 1216q-1 -41 -30 -81.5t-80 -43.5q-36 2 -47 25t-10 46q1 43 31 81t77 40q29 -1 44 -20t15 -47zM244 -12q-35 1 -53.5 12t-18.5 34q0 26 36 84.5t96.5 145.5t138 201t161.5 249q108 182 133.5 234t40.5 46q9 0 11 -5t2 -13q2 -6 -38.5 -77t-148.5 -282
q-96 -188 -148.5 -312t-82 -193.5t-56 -96.5t-73.5 -27z" />
    <glyph glyph-name="questiondown" unicode="&#xbf;" horiz-adv-x="981" 
d="M911 1019q21 0 34 -15.5t13 -39.5q-2 -47 -48 -96.5t-118.5 -103.5t-152.5 -115.5t-147 -131.5q-73 -71 -137 -172.5t-68 -191.5q-1 -58 35.5 -103.5t126.5 -48.5q94 4 157.5 58.5t65.5 111.5q-4 34 -30 49.5t-30 44.5q0 35 27.5 70.5t75.5 38.5q36 -1 58.5 -25.5
t23.5 -64.5q-4 -107 -105 -197t-254 -97q-124 4 -195.5 72t-72.5 173q-1 52 22 111t84 122q60 59 161.5 117.5t207 116t179 113.5t77.5 108q-3 22 -22.5 30t-22.5 23q1 17 18 29.5t37 13.5zM1038 1271q27 -1 43.5 -20.5t16.5 -49.5q-1 -36 -29.5 -76.5t-77.5 -44.5
q-31 1 -45 20t-14 50q1 46 31.5 82.5t74.5 38.5z" />
    <glyph glyph-name="currency" unicode="&#xa4;" horiz-adv-x="797" 
d="M258 759l51 51l76 -76q20 21 76.5 47.5t134.5 28.5q78 -2 132.5 -28.5t74.5 -47.5l76 76l51 -51l-76 -76q29 -29 51 -83t23 -124q-2 -79 -27.5 -134t-46.5 -75l76 -75l-51 -52l-76 76q-16 -18 -70 -45.5t-137 -30.5q-83 3 -138 30t-73 46l-76 -76l-51 52l76 75
q-25 24 -48.5 79.5t-25.5 129.5q1 67 23.5 123t50.5 84zM868 478q-2 116 -78 197t-196 84q-114 -3 -193 -82.5t-82 -202.5q2 -111 77 -194.5t200 -87.5q121 4 195.5 88t76.5 198z" />
    <glyph glyph-name="sterling" unicode="&#xa3;" horiz-adv-x="1151" 
d="M1116 -35q-3 53 -50 89t-103 37q-60 -3 -77 -25.5t-30 -25.5q-9 0 -11.5 4.5t-2.5 9.5q2 21 35 37t75 17q77 -2 131 -47.5t56 -105.5q-1 -51 -57.5 -96t-155.5 -49q-78 2 -139.5 30.5t-120 74.5t-125 96.5t-152.5 98.5q-43 -35 -112.5 -73.5t-141.5 -42.5q-40 1 -64.5 18
t-25.5 53q1 53 63 99.5t173 49.5q46 0 78.5 -9t72.5 -22q64 66 95 138.5t67 175.5q-13 0 -42.5 1t-49.5 1q-83 0 -102.5 -12t-16.5 -35q0 -13 -5 -18t-13 -5q-12 1 -16.5 11t-4.5 18q1 40 40.5 54t109.5 13q36 0 63.5 -2t40.5 -2q34 121 69.5 214.5t102.5 162.5
q66 63 155 97t158 34q95 -2 138.5 -52t42.5 -120q-1 -72 -40.5 -148.5t-99.5 -82.5q-28 1 -44.5 19t-16.5 48q1 37 22.5 64t53.5 28l35 -4q30 1 43.5 29t13.5 68q-1 62 -38 96.5t-97 34.5q-123 -3 -214 -137.5t-182 -360.5q51 -2 102 -5t62 -3q46 2 61.5 13t26.5 13
q5 0 9 -3.5t4 -10.5q1 -12 -15 -25t-55 -14q-18 0 -89.5 4.5t-117.5 7.5q-44 -96 -96.5 -165t-136.5 -152q116 -61 196 -116t136.5 -97t106.5 -65.5t107 -25.5q64 3 90 35t25 63zM66 65q0 -21 17 -38t56 -18q57 2 122.5 37t105.5 74q-41 23 -74 36t-72 13
q-69 -2 -111.5 -33.5t-43.5 -70.5z" />
    <glyph glyph-name="yen" unicode="&#xa5;" horiz-adv-x="1110" 
d="M344 771q1 117 70.5 192t189.5 78q123 -1 194 -101.5t72 -283.5q0 -69 -7.5 -108t-18.5 -86q160 341 292.5 469t211.5 121q24 0 48.5 -12t26.5 -33q0 -13 -6 -21t-22 -8q-14 3 -17.5 23.5t-40.5 23.5q-74 3 -202.5 -135.5t-272.5 -454.5h240q16 0 23.5 -2.5t7.5 -9.5
q0 -8 -7.5 -12t-23.5 -4h-254l-57 -129h233q5 1 13.5 -0.5t9.5 -12.5q0 -9 -10.5 -12.5t-24.5 -3.5h-236q-87 -184 -234 -311.5t-294 -134.5q-76 1 -128 42.5t-54 117.5q0 51 33.5 93t93.5 45q15 0 25.5 -5.5t10.5 -18.5q0 -8 -5 -14.5t-17 -6.5q-10 1 -17.5 4.5t-17.5 4.5
q-31 -2 -55 -30.5t-25 -63.5q0 -45 41.5 -80t130.5 -38q74 -9 199.5 61.5t228.5 334.5h-280q-10 0 -18.5 1.5t-8.5 8.5q0 12 9.5 15.5t29.5 3.5h281l36 129h-254q-9 0 -13.5 2t-4.5 8q0 12 9.5 15t29.5 3h240q4 31 9 74.5t5 101.5q5 97 -33 237.5t-180 154.5
q-84 -4 -122.5 -52.5t-37.5 -89.5q5 -47 40 -64t40 -46q-1 -22 -19 -47t-44 -27q-29 1 -45.5 27t-16.5 67z" />
    <glyph glyph-name="section" unicode="&#xa7;" horiz-adv-x="1024" 
d="M879 1340q122 -4 187.5 -73.5t66.5 -155.5q-1 -77 -41.5 -119t-102.5 -43q-45 0 -85.5 23.5t-43.5 70.5q0 30 17 48.5t51 19.5q32 0 46.5 -16.5t14.5 -42.5q-1 -18 -5 -25.5t-5 -17.5q0 -11 7 -16t24 -5q46 2 69 39.5t23 85.5q-1 81 -58 138t-165 59q-115 -3 -179 -74
t-65 -170q0 -92 38 -164t89 -137.5t90 -140t41 -170.5q-1 -117 -87 -196.5t-251 -82.5q7 -29 19.5 -73.5t13.5 -103.5q-2 -130 -92 -220t-240 -95q-133 5 -205.5 80t-74.5 171q2 70 45 121t120 53q60 -2 106.5 -30.5t49.5 -91.5q0 -28 -17.5 -49t-52.5 -23q-31 2 -45 19.5
t-14 41.5q1 19 9 33t9 26q-1 15 -18 25t-41 10q-54 0 -88 -33.5t-35 -96.5q2 -109 68 -167t174 -59q133 5 203 85.5t71 191.5q-4 72 -44 142t-91 138.5t-90 142t-41 157.5q2 118 91.5 202.5t246.5 88.5q-8 28 -16 64t-9 84q1 132 83.5 229t228.5 102zM602 830
q-34 5 -140 -38t-120 -191q8 -100 81 -199.5t118 -195.5h30q53 -3 139 38.5t95 170.5q-2 61 -23.5 115.5t-54.5 105.5t-66.5 99t-58.5 95z" />
    <glyph glyph-name="florin" unicode="&#x192;" horiz-adv-x="598" 
d="M330 431h-135q-14 0 -19.5 3.5t-5.5 10.5q0 8 5 10.5t13 2.5h154q130 305 246.5 447.5t265.5 140.5q61 -1 90 -17t29 -41q0 -21 -16.5 -39.5t-43.5 -19.5q-39 6 -41.5 48t-66.5 48q-69 -12 -141.5 -129t-200.5 -436h158q8 0 12 -1.5t4 -10.5q0 -8 -5 -11.5t-18 -3.5h-165
q-155 -334 -266.5 -535t-197.5 -291q-30 -33 -88 -70t-148 -41q-66 3 -94.5 27.5t-28.5 48.5q2 23 17 35.5t34 11.5q53 -6 51 -51.5t58 -52.5q34 3 62.5 26.5t41.5 38.5q45 49 89 126t92 180.5t110.5 239t148.5 305.5z" />
    <glyph glyph-name="cent" unicode="&#xa2;" horiz-adv-x="598" 
d="M680 613q-1 30 -21.5 48.5t-50.5 19.5q-136 -26 -275.5 -248.5t-150.5 -335.5q1 -46 25.5 -69t64.5 -23q31 1 64 21t65 53q78 82 107.5 139.5t44.5 59.5q6 0 9 -5t3 -10q-5 -24 -55 -88.5t-88 -103.5q-32 -33 -68.5 -55t-77.5 -24l-26 4q-36 -57 -82 -105.5t-107 -52.5
q-35 2 -63.5 21t-31.5 41q1 9 5.5 14t11.5 4q14 -3 25 -27.5t58 -29.5q51 4 87.5 47.5t69.5 91.5q-58 31 -77.5 82.5t-18.5 104.5q9 181 150.5 339.5t314.5 168.5q42 72 86.5 104t87.5 31q22 0 34.5 -6t12.5 -18q-1 -7 -8 -9.5t-8 -2.5q-7 1 -18 5t-25 5q-29 1 -57.5 -22.5
t-71.5 -86.5q44 -13 61 -41t16 -63q-2 -65 -37 -122.5t-83 -61.5q-21 0 -35 15t-15 42q1 30 24 58t52 30q8 0 15.5 -2t13.5 -2q20 1 31.5 20.5t11.5 44.5z" />
    <glyph glyph-name="acircumflex" unicode="&#xe2;" 
d="M735 931q38 40 52.5 63t23.5 23q4 0 5 -4.5t1 -7.5q0 -10 -3.5 -29.5t-4.5 -40.5q4 -73 31.5 -91t31.5 -26q0 -3 -6.5 -4.5t-13.5 -1.5q-42 1 -67 23.5t-37 50.5q-38 -30 -90 -52.5t-91 -23.5q-6 0 -9 1.5t-3 4.5q1 13 49.5 26t130.5 89zM618 40q61 66 95 131t49 70
q6 0 7 -3.5t1 -7.5q-5 -19 -74 -121.5t-143 -116.5q-39 2 -54 33t-14 78q1 73 22.5 148t53.5 147q-151 -219 -237 -310.5t-129 -89.5q-37 2 -53.5 34t-16.5 90q15 258 174 414.5t285 160.5q42 -1 55 -25t12 -55q0 -7 -1 -20.5t-3 -28.5l78 146h8q0 -25 9 -32.5t26 -6.5
q24 0 42.5 11.5t35.5 27.5l10 -4q-59 -76 -192.5 -325t-149.5 -337q0 -22 10 -34.5t27 -12.5t34.5 11.5t32.5 27.5zM160 54q0 -18 9 -30.5t28 -12.5q88 26 253.5 256.5t184.5 356.5q0 25 -10.5 40.5t-36.5 16.5q-102 -31 -257 -279t-171 -348z" />
    <glyph glyph-name="ecircumflex" unicode="&#xea;" horiz-adv-x="555" 
d="M461 810q-6 0 -9 1.5t-3 4.5q1 13 49 26t131 89q38 40 52 63t24 23q4 0 5 -4.5t1 -7.5q-1 -10 -4.5 -29.5t-4.5 -40.5q4 -73 32 -91t32 -26q0 -3 -7 -4.5t-14 -1.5q-40 1 -66 23.5t-38 50.5q-45 -37 -100.5 -56.5t-79.5 -19.5zM582 271q-6 -25 -104 -144t-216 -135
q-64 2 -101 55.5t-38 144.5q17 219 183.5 358.5t277.5 144.5q38 0 55.5 -19t17.5 -56q-9 -118 -121.5 -200.5t-218.5 -86.5h-45q-34 -62 -62 -123t-30 -117q0 -35 20 -61t64 -27q36 0 71.5 21.5t74.5 60.5q102 106 125.5 151t35.5 44q7 0 9 -2t2 -9zM588 681
q-53 -1 -130.5 -86.5t-170.5 -243.5q75 0 122.5 21t90.5 65q71 73 98.5 126t26.5 77q0 23 -11 32t-26 9z" />
    <glyph glyph-name="ocircumflex" unicode="&#xf4;" horiz-adv-x="682" 
d="M772 1017q4 0 5 -4.5t1 -7.5q0 -10 -3.5 -29.5t-4.5 -40.5q4 -73 32 -91t32 -26q-1 -3 -7.5 -4.5t-13.5 -1.5q-40 1 -66 23.5t-38 50.5q-38 -30 -91.5 -52.5t-89.5 -23.5q-6 0 -9 1.5t-3 4.5q1 13 49.5 26t130.5 89q39 40 53 63t23 23zM266 -12q-69 1 -104 54t-35 152
q14 235 171.5 372t287.5 140q71 0 108 -51t37 -152q-15 -245 -175 -378.5t-290 -136.5zM186 79q0 -34 21.5 -56t62.5 -23q144 31 269 276t133 339q-1 35 -23.5 55.5t-58.5 20.5q-149 -31 -272.5 -275.5t-131.5 -336.5z" />
    <glyph glyph-name="ucircumflex" unicode="&#xfb;" 
d="M768 669q31 1 45.5 13.5t30.5 23.5h10q-106 -166 -212 -362.5t-114 -274.5q0 -26 12 -41t33 -15q18 1 29.5 9.5t22.5 19.5q56 62 79.5 118t38.5 60q5 0 8 -2t3 -6q-3 -19 -40.5 -79t-70.5 -95q-12 -13 -31.5 -25t-40.5 -13q-31 0 -54.5 27t-24.5 85q1 66 25 140t56 144
q-62 -91 -168.5 -239.5t-183.5 -164.5q-31 1 -58.5 34.5t-29.5 99.5q2 78 42 154.5t92 147.5t93 128t46 90q-1 19 -12 31t-27 12q-13 0 -31 -9t-41 -32q-57 -59 -80 -92.5t-35 -34.5q-4 0 -6 2t-2 6q5 21 70.5 93t124.5 82q38 -1 58.5 -32t20.5 -83q-4 -74 -44 -146.5
t-91 -141.5t-90 -129t-41 -112q1 -30 13 -41t28 -10q20 1 41 16t41 35q92 97 215.5 290t208.5 356h4q0 -17 8.5 -27t28.5 -10zM788 935q4 -71 32 -91.5t32 -23.5q0 -4 -6 -6t-15 -2q-39 1 -62 21t-44 51q-40 -30 -89.5 -51.5t-86.5 -22.5q-6 0 -10 1t-4 5q1 13 49 26t131 89
q38 40 52 63t26 23q4 0 4 -4.5v-7.5q-1 -10 -4.5 -29.5t-4.5 -40.5z" />
    <glyph glyph-name="aacute" unicode="&#xe1;" 
d="M733 714q0 -25 9 -32.5t26 -6.5q26 0 43.5 11.5t34.5 27.5l10 -4q-57 -76 -191.5 -324.5t-150.5 -337.5q0 -23 10 -35t27 -12q15 0 33.5 11.5t33.5 27.5q65 70 96.5 133.5t47.5 67.5q6 0 7 -3.5t1 -7.5q-5 -19 -74 -121.5t-143 -116.5q-39 2 -54 33t-14 78q1 73 22.5 148
t53.5 147q-151 -219 -237 -310.5t-129 -89.5q-37 2 -53.5 34t-16.5 90q15 258 174.5 414.5t286.5 160.5q41 -1 53.5 -25t11.5 -55q0 -7 -1 -20.5t-3 -28.5l78 146h8zM887 1005q21 0 33 -9.5t12 -29.5q-3 -47 -75 -93t-181 -49q-10 -1 -19 0.5t-10 10.5q1 14 34.5 12.5
t88.5 46.5q38 43 56 76t61 35zM160 54q0 -18 9 -30.5t28 -12.5q89 26 254 256.5t184 356.5q0 25 -11 40.5t-36 16.5q-104 -31 -258 -280.5t-170 -346.5z" />
    <glyph glyph-name="eacute" unicode="&#xe9;" horiz-adv-x="555" 
d="M569 824q-10 -1 -18.5 0.5t-9.5 10.5q1 14 34.5 12.5t88.5 46.5q38 43 56.5 76t59.5 35q21 0 33 -10.5t12 -28.5q-1 -36 -67.5 -86.5t-188.5 -55.5zM582 271q-6 -25 -104 -144t-216 -135q-62 2 -100 53.5t-39 146.5q17 219 184 358.5t277 144.5q41 -1 57.5 -21.5
t15.5 -53.5q-9 -116 -120.5 -199.5t-219.5 -87.5h-45q-34 -62 -62 -123t-30 -117q0 -35 20 -61t64 -27q38 0 73 21.5t73 60.5q102 106 125.5 151t35.5 44q7 0 9 -2t2 -9zM588 681q-52 -1 -130.5 -86.5t-170.5 -243.5q76 0 123 21t90 65q71 73 98.5 126t26.5 77q0 23 -11 32
t-26 9z" />
    <glyph glyph-name="oacute" unicode="&#xf3;" horiz-adv-x="682" 
d="M891 966q-2 -43 -73.5 -90.5t-182.5 -51.5q-10 -1 -19 0.5t-10 10.5q1 14 34.5 12.5t88.5 46.5q38 43 56.5 76t60.5 35q20 0 32.5 -10.5t12.5 -28.5zM590 691q-151 -31 -274 -275.5t-130 -336.5q0 -34 21.5 -56t62.5 -23q143 31 268.5 276t133.5 339q-1 35 -23.5 55.5
t-58.5 20.5zM127 194q15 241 175.5 375.5t283.5 136.5q71 0 108 -51t37 -152q-14 -242 -173 -377t-292 -138q-69 1 -104 54t-35 152z" />
    <glyph glyph-name="uacute" unicode="&#xfa;" 
d="M172 529q5 21 70.5 93t124.5 82q38 -1 58.5 -32t20.5 -83q-4 -74 -44 -146.5t-91 -141.5t-90 -129t-41 -112q1 -30 13 -41t28 -10q23 1 42 15t40 36q92 97 215.5 290t208.5 356h4q0 -17 8.5 -27t28.5 -10q27 1 43.5 13.5t32.5 23.5h10q-106 -166 -212 -362.5t-114 -274.5
q0 -26 12 -41t33 -15q18 1 29.5 9.5t22.5 19.5q56 62 79.5 118t38.5 60q5 0 8 -2t3 -6q-3 -20 -40.5 -79.5t-70.5 -94.5q-12 -13 -31.5 -25t-40.5 -13q-31 0 -54.5 27t-24.5 85q1 66 25 140t56 144q-62 -91 -168.5 -239.5t-183.5 -164.5q-31 1 -58.5 34.5t-29.5 99.5
q2 78 42 154.5t92 147.5t93 128t46 90q-1 19 -12 31t-27 12q-13 0 -31 -9t-41 -32q-57 -59 -80 -92.5t-35 -34.5q-4 0 -6 2t-2 6zM844 1005q20 0 32.5 -10.5t12.5 -28.5q-3 -46 -76 -92t-180 -50q-10 -1 -19 0.5t-10 10.5q1 14 34.5 12.5t88.5 46.5q38 43 56.5 76t60.5 35z
" />
    <glyph glyph-name="agrave" unicode="&#xe0;" 
d="M768 675q23 0 42 11.5t36 27.5l10 -4q-57 -76 -191.5 -324.5t-150.5 -337.5q0 -22 10 -34.5t27 -12.5q15 0 33.5 11.5t33.5 27.5q65 70 96.5 133.5t47.5 67.5q6 0 7 -3.5t1 -7.5q-5 -19 -74 -121.5t-143 -116.5q-39 2 -54 33t-14 78q1 73 22.5 148t53.5 147
q-151 -219 -237 -310.5t-129 -89.5q-36 2 -53 34t-17 90q15 259 175 415t284 160q42 -1 55 -25t12 -55q0 -7 -1 -20.5t-3 -28.5l78 146h8q0 -24 7.5 -32t27.5 -7zM160 54q0 -18 10 -30.5t27 -12.5q88 26 253.5 256.5t184.5 356.5q0 25 -11 40.5t-36 16.5q-104 -31 -258 -280
t-170 -347zM569 953q1 21 15.5 37t36.5 17q36 -2 48.5 -39.5t49.5 -81.5q35 -31 62 -33.5t28 -11.5q0 -9 -7 -12t-18 -3q-67 1 -138 36.5t-77 90.5z" />
    <glyph glyph-name="egrave" unicode="&#xe8;" horiz-adv-x="555" 
d="M612 886q35 -31 62 -33.5t28 -11.5q0 -9 -6.5 -12t-17.5 -3q-67 1 -138 36.5t-77 90.5q0 21 14.5 37t36.5 17q36 -2 48.5 -39.5t49.5 -81.5zM262 -8q-61 2 -99.5 53.5t-39.5 146.5q17 219 183.5 358.5t277.5 144.5q39 -1 56 -21.5t17 -53.5q-9 -118 -122 -200.5
t-218 -86.5h-45q-34 -62 -62 -123t-30 -117q0 -35 20 -61t64 -27q38 0 73 21.5t73 60.5q102 106 125.5 151t35.5 44q7 0 9 -2t2 -9q-6 -25 -104 -144t-216 -135zM287 351q76 0 123 21t90 65q71 73 98.5 126t26.5 77q0 23 -11 32t-26 9q-53 -1 -130.5 -86.5t-170.5 -243.5z
" />
    <glyph glyph-name="ograve" unicode="&#xf2;" horiz-adv-x="682" 
d="M745 826q-64 1 -136.5 36t-78.5 91q1 21 15.5 37t36.5 17q36 -2 48.5 -39.5t49.5 -81.5q35 -31 62 -33.5t28 -11.5q0 -9 -7.5 -12t-17.5 -3zM590 691q-151 -31 -274 -275.5t-130 -336.5q0 -34 21.5 -56t62.5 -23q143 31 268.5 276t133.5 339q-1 35 -23.5 55.5t-58.5 20.5
zM586 706q71 0 108 -51t37 -152q-14 -243 -173 -377.5t-292 -137.5q-69 1 -104 54t-35 152q15 240 175.5 375t283.5 137z" />
    <glyph glyph-name="ugrave" unicode="&#xf9;" 
d="M549 953q0 21 14.5 37t36.5 17q36 -2 48.5 -39.5t49.5 -81.5q35 -31 62 -33.5t28 -11.5q0 -9 -6.5 -12t-17.5 -3q-63 1 -136 35.5t-79 91.5zM754 212q-3 -18 -40.5 -78.5t-70.5 -95.5q-12 -13 -31.5 -25t-40.5 -13q-31 0 -54.5 27t-24.5 85q1 66 25 140t56 144
q-62 -91 -168.5 -239.5t-183.5 -164.5q-31 1 -58.5 34.5t-29.5 99.5q2 78 42 154.5t92 147.5t93 128t46 90q-1 19 -12 31t-27 12q-13 0 -31 -9t-41 -32q-57 -59 -80 -92.5t-35 -34.5q-4 0 -6 2t-2 6q5 21 70.5 93t124.5 82q38 -1 58.5 -32t20.5 -83q-4 -74 -44 -146.5
t-91 -141.5t-90 -129t-41 -112q1 -30 13 -41t28 -10q23 1 42 15t40 36q92 97 215.5 290t208.5 356h4q0 -17 8.5 -27t28.5 -10q27 1 43.5 13.5t32.5 23.5h10q-106 -166 -212 -362.5t-114 -274.5q0 -26 12 -41t33 -15q18 1 29.5 9.5t22.5 19.5q56 62 79.5 118t38.5 60
q5 0 8 -2t3 -6z" />
    <glyph glyph-name="adieresis" unicode="&#xe4;" 
d="M197 11q88 26 253.5 256.5t184.5 356.5q0 25 -11 40.5t-36 16.5q-104 -31 -258 -280t-170 -347q0 -18 9 -30.5t28 -12.5zM553 -8q-39 2 -54 33t-14 78q1 73 22.5 148t53.5 147q-151 -219 -237 -310.5t-129 -89.5q-37 2 -53.5 34t-16.5 90q15 258 174 414.5t285 160.5
q42 -1 55 -25t12 -55q0 -7 -1 -20.5t-3 -28.5l78 146h8q0 -24 8 -32t27 -7q23 0 42 11.5t36 27.5l10 -4q-57 -76 -191.5 -324.5t-150.5 -337.5q0 -22 10 -34.5t27 -12.5q15 0 33.5 11.5t33.5 27.5q65 70 96.5 133.5t47.5 67.5q6 0 7 -3.5t1 -7.5q-5 -19 -74 -121.5
t-143 -116.5zM705 951q-2 -38 -31.5 -72t-67.5 -36q-20 0 -30.5 12t-10.5 35q1 40 29.5 74t67.5 36q18 0 30.5 -12t12.5 -37zM844 847q-20 -1 -31.5 8.5t-11.5 38.5q1 32 31 66.5t73 37.5q19 0 30 -11t11 -38q-2 -37 -33.5 -68.5t-68.5 -33.5z" />
    <glyph glyph-name="edieresis" unicode="&#xeb;" horiz-adv-x="555" 
d="M582 271q-6 -25 -104 -144t-216 -135q-62 2 -100 53.5t-39 146.5q17 219 184 358.5t277 144.5q39 0 56 -20.5t17 -54.5q-9 -119 -122 -201t-218 -86h-45q-34 -62 -62 -123t-30 -117q0 -35 20 -61t64 -27q38 0 73 21.5t73 60.5q102 106 125.5 151t35.5 44q7 0 9 -2t2 -9z
M588 681q-53 -1 -130.5 -86.5t-170.5 -243.5q76 0 123 21t90 65q71 73 98.5 126t26.5 77q0 23 -11 32t-26 9zM569 1000q19 0 31 -12t12 -37q-2 -38 -31.5 -72t-66.5 -36q-20 0 -30.5 12t-10.5 35q1 40 29.5 74t66.5 36zM752 847q-20 -1 -31.5 9.5t-11.5 37.5q1 35 31 68.5
t73 35.5q19 0 30 -11t11 -38q-2 -36 -32.5 -68t-69.5 -34z" />
    <glyph glyph-name="odieresis" unicode="&#xf6;" horiz-adv-x="682" 
d="M590 691q-148 -31 -272 -275.5t-132 -336.5q0 -34 21.5 -56t62.5 -23q143 31 268.5 276t133.5 339q-1 35 -23.5 55.5t-58.5 20.5zM586 706q71 0 108 -51t37 -152q-14 -243 -174 -377.5t-291 -137.5q-69 1 -104 54t-35 152q15 240 175.5 375t283.5 137zM680 951
q-2 -36 -31 -70.5t-67 -37.5q-20 0 -30.5 12.5t-10.5 34.5q2 43 31 75.5t65 34.5q19 0 31 -12t12 -37zM922 949q-2 -36 -33 -68t-70 -34q-20 -1 -31.5 9.5t-11.5 37.5q1 35 31.5 68.5t73.5 35.5q18 0 29.5 -11t11.5 -38z" />
    <glyph glyph-name="udieresis" unicode="&#xfc;" 
d="M172 529q6 21 71.5 93t123.5 82q38 -1 58.5 -32t20.5 -83q-4 -74 -44 -146.5t-91 -141.5t-90 -129t-41 -112q1 -30 13 -41t28 -10q21 1 41 15t41 36q92 97 215.5 290t208.5 356h4q0 -17 8.5 -27t28.5 -10q27 1 43.5 13.5t32.5 23.5h10q-106 -166 -212 -362.5t-114 -274.5
q0 -26 12 -41t33 -15q18 1 29.5 9.5t22.5 19.5q56 62 79.5 118t38.5 60q5 0 8 -2t3 -6q-3 -20 -40.5 -79.5t-70.5 -94.5q-12 -13 -31.5 -25t-40.5 -13q-31 0 -54.5 27t-24.5 85q1 66 25 140t56 144q-62 -91 -168.5 -239.5t-183.5 -164.5q-31 1 -58.5 34.5t-29.5 99.5
q2 76 42 153.5t92 148.5t93 128t46 90q-1 19 -12 31t-27 12q-13 0 -31 -9t-41 -32q-57 -59 -80 -92.5t-35 -34.5q-4 0 -6 2t-2 6zM690 951q-2 -36 -31 -70.5t-67 -37.5q-20 0 -30.5 12.5t-10.5 34.5q2 42 30.5 75t65.5 35q19 0 31 -12t12 -37zM932 949q-2 -36 -33 -68
t-70 -34q-20 -1 -31.5 9.5t-11.5 37.5q2 35 33 68.5t72 35.5q18 0 29.5 -11t11.5 -38z" />
    <glyph glyph-name="Aring" unicode="&#xc5;" horiz-adv-x="1921" 
d="M887 24q-29 -10 -83.5 -17t-98.5 -7q-179 0 -321.5 99.5t-150.5 298.5q13 230 190.5 351t356.5 122q169 -5 261.5 -86t93.5 -184q17 1 101.5 8t213.5 8q77 83 158.5 173t142.5 151q152 152 275.5 225.5t212 100t135.5 32t49 17.5q-13 18 -189 54t-358 40
q-411 -13 -584 -161t-168 -271q1 -73 46.5 -118t129.5 -46q153 9 247.5 107t97.5 180q-4 47 -30 58t-30 26q0 6 3 8t9 2q25 -1 46 -35.5t22 -85.5q-5 -112 -105 -197t-231 -90q-108 1 -184.5 69t-79.5 192q-3 145 154 273t505 136q142 0 262.5 -17.5t219 -41t170 -42
t114.5 -20.5q46 3 70.5 20.5t36.5 20.5q12 0 17 -8t5 -20q-1 -14 -9 -33.5t-15 -26.5q-5 -6 -19.5 -8t-54.5 -2q-98 2 -181.5 -37t-191.5 -147q-85 -85 -167.5 -196t-161.5 -263q150 3 217.5 43t66.5 78q-2 18 -15 27t-15 26q1 18 17.5 31t33.5 14q22 -1 31.5 -14t9.5 -31
q6 -45 -67.5 -118t-297.5 -81q-46 -90 -89 -211.5t-46 -236.5q1 -79 29 -121t67 -42q25 2 45.5 16.5t28.5 23.5q63 69 82 121t33 55q6 0 10 -3t4 -9q-2 -19 -59.5 -111t-143.5 -105q-91 7 -139.5 106t-48.5 214q1 84 24.5 159t53.5 138l-148 -4q-67 -82 -129.5 -164
t-129 -157.5t-147.5 -139t-186 -108.5q50 -46 102.5 -65.5t98.5 -19.5q112 7 146 52t47 51q5 0 9.5 -3t4.5 -9q0 -21 -51 -62.5t-148 -47.5q-93 4 -149 37t-82 59h-2zM1526 626l141 2q51 93 117.5 179.5t150.5 170.5q110 106 199.5 164.5t151.5 101.5l-2 8q-18 5 -148 -53.5
t-326 -245.5q-94 -95 -161 -176t-123 -151zM846 818q-209 -9 -388.5 -150.5t-191.5 -310.5q4 -142 109.5 -230t263.5 -91q65 1 120 14.5t81 28.5q-22 41 -34.5 80.5t-12.5 85.5q0 21 2 37.5t2 17.5q-64 1 -130 38t-71 105q2 40 21.5 63t33.5 23q6 0 10.5 -3t4.5 -9
q-3 -16 -27 -29.5t-27 -48.5q0 -17 8 -32.5t19 -26.5q20 -22 57.5 -33.5t110.5 -11.5q27 97 99 161t196 95v37q-4 98 -79 144t-177 46zM831 341q70 17 113 42.5t74 57.5q46 49 61.5 84t14.5 45q-37 -9 -89 -30.5t-100 -67.5q-35 -35 -51.5 -67.5t-22.5 -63.5zM811 241
q0 -37 11 -76.5t36 -75.5q70 26 142.5 79t168.5 150q57 58 148.5 158t109.5 119h-81q-75 -1 -137.5 -7t-73.5 -7q-3 -27 -20.5 -76t-59.5 -94q-36 -38 -94 -69t-144 -42q0 -12 -3 -25t-3 -34zM2339 1635q2 51 39.5 93t91.5 45q38 -1 58 -26t20 -58q-2 -50 -38.5 -91.5
t-88.5 -44.5q-35 0 -58 21.5t-24 60.5zM2466 1752q-43 -2 -74.5 -38.5t-32.5 -76.5q1 -31 18.5 -47t45.5 -16q37 2 68.5 36.5t33.5 78.5q0 25 -13.5 43.5t-45.5 19.5z" />
    <glyph glyph-name="icircumflex" unicode="&#xee;" horiz-adv-x="426" 
d="M522 931q38 40 52.5 63t23.5 23q4 0 5 -4.5t1 -7.5q0 -10 -3.5 -29.5t-4.5 -40.5q4 -73 31.5 -91t31.5 -26q0 -3 -6.5 -4.5t-13.5 -1.5q-42 1 -67 23.5t-37 50.5q-38 -30 -90 -52.5t-91 -23.5q-6 0 -9 1.5t-3 4.5q1 13 49.5 26t130.5 89zM395 697q43 -2 61 -39t17 -81
q-4 -70 -45 -138.5t-94 -134t-93 -127t-42 -119.5q0 -22 11.5 -37t29.5 -16q62 13 126 102.5t80 102.5q5 0 6 -2t1 -8q-5 -25 -75 -111t-138 -97q-48 4 -69 47t-21 89q2 76 41.5 148.5t92 141t92.5 126t44 100.5q0 19 -8.5 27t-24.5 8q-20 -1 -42.5 -19t-39.5 -34
q-58 -62 -83 -104t-40 -44q-4 0 -6 2.5t-2 5.5q6 24 80.5 111.5t140.5 99.5z" />
    <glyph glyph-name="Oslash" unicode="&#xd8;" horiz-adv-x="1366" 
d="M1124 1003q0 9 4.5 11.5t12.5 2.5q9 -1 22.5 -7t36.5 -7q85 5 157 80.5t77 164.5q0 33 -15 54t-39 34q-206 -156 -367 -360.5t-202 -388.5l885 608l10 80q-1 62 -38 96.5t-97 34.5q-39 0 -82.5 -15.5t-81.5 -39.5q32 -23 49 -51t17 -70q-2 -88 -81 -164.5t-216 -81.5
q-25 0 -38.5 4.5t-13.5 14.5zM754 611q8 184 177.5 400t401.5 340q-9 2 -17.5 3t-19.5 1q-43 5 -141 -34t-246 -181q-200 -200 -344.5 -426t-167.5 -412l361 248q-2 13 -3 30t-1 31zM997 427q5 0 8 -4.5t3 -7.5q-2 -13 -26 -23.5t-52 -11.5q-64 2 -106.5 42.5t-55.5 90.5
l-371 -256q8 -93 75 -166.5t183 -77.5q105 2 214.5 67.5t211.5 168.5q155 155 338.5 412.5t257.5 474.5l-868 -596q1 -52 31 -96.5t80 -47.5q35 2 50 15.5t27 15.5zM1765 1242q189 128 236.5 162.5t54.5 30.5q11 -1 14 -7.5t3 -11.5q8 -6 -43.5 -41t-260.5 -176
q-27 -396 -381 -786t-714 -419q-142 6 -222.5 82t-107.5 144q-184 -128 -228 -159.5t-46 -26.5q-6 0 -12 4t-7 12q-7 12 41.5 41.5t237.5 163.5q-10 29 -15.5 61.5t-5.5 73.5q19 355 318.5 661t650.5 326q36 0 55 -2.5t29 -7.5q62 28 115.5 41.5t97.5 13.5q78 0 128.5 -46
t61.5 -134z" />
    <glyph glyph-name="AE" unicode="&#xc6;" horiz-adv-x="2560" 
d="M1276 806q-105 1 -185.5 71t-84.5 201q-2 174 160.5 291.5t510.5 122.5q241 -5 374 -43t235 -43h22q59 33 149.5 57t200.5 25q169 -2 252.5 -64.5t83.5 -158.5q-1 -110 -87 -197t-241 -92q-103 2 -165 46.5t-64 113.5q2 57 42 90.5t97 34.5q29 0 50 -8.5t22 -20.5
q0 -6 -3 -8t-9 -2q-9 1 -19 11t-43 11q-50 -1 -80.5 -29t-31.5 -73q1 -50 48.5 -82t125.5 -33q89 0 204 65t126 197q-1 70 -68.5 120t-190.5 52q-213 -11 -359.5 -161.5t-152.5 -303.5q1 -53 18.5 -77.5t41.5 -42.5q15 1 68.5 6t127.5 6q98 0 143 -12t44 -29
q1 -15 -22.5 -25t-86.5 -10q-94 1 -152.5 13t-97.5 26q-300 -57 -436.5 -243t-134.5 -345q3 -138 83.5 -213t197.5 -77q217 18 381.5 202.5t173.5 333.5q0 65 -41 108.5t-123 45.5q-128 -6 -234 -108t-112 -230q1 -61 36 -96.5t99 -36.5q49 3 61.5 23.5t22.5 23.5
q5 0 7.5 -3t2.5 -10q1 -12 -22.5 -30.5t-79.5 -20.5q-75 1 -123.5 51.5t-50.5 134.5q5 129 111 225t259 101q113 -1 174 -65.5t62 -178.5q-6 -192 -161.5 -341.5t-391.5 -158.5q-195 3 -324.5 121t-134.5 328q0 58 11 112.5t30 108.5l-160 -4q-172 -241 -309.5 -383.5
t-290.5 -199.5q40 -36 97.5 -58t115.5 -23q120 7 148.5 51t42.5 50q7 0 9.5 -4t2.5 -10q1 -19 -45.5 -60.5t-159.5 -47.5q-93 4 -148 36t-81 57q-34 -9 -79 -16.5t-110 -8.5q-203 4 -334.5 116t-136.5 299q11 220 182.5 349t370.5 132q157 -1 253.5 -74t99.5 -207
q108 13 201.5 18t115.5 5q72 80 171 196.5t177 196.5q107 107 221.5 187t286.5 175q-84 10 -200 32.5t-267 25.5q-364 -11 -544.5 -153t-180.5 -285q1 -75 47.5 -125t122.5 -52q126 7 230 105.5t110 198.5q-2 36 -18.5 47t-18.5 20q0 4 2.5 5t5.5 1q22 -1 42.5 -30t21.5 -78
q-5 -113 -105.5 -199.5t-234.5 -91.5zM2220 871q-70 47 -104.5 113t-34.5 148q-60 -73 -157 -213.5t-134 -233.5q109 86 209 127t221 59zM1479 632l155 4q91 173 197.5 309.5t349.5 360.5q-207 -96 -387.5 -291t-314.5 -383zM750 308q-76 0 -134 34.5t-61 100.5
q1 32 14.5 49t26.5 17q6 0 9 -3t3 -9q-2 -10 -15 -21t-15 -39q3 -52 55 -79t121 -27q26 98 105 167t200 101l4 45q-4 92 -80.5 144t-181.5 53q-199 -10 -380 -162t-194 -330q3 -138 108 -225t275 -90q63 1 109 12.5t78 26.5q-26 39 -39 82t-13 94q0 23 2.5 36.5t2.5 22.5z
M780 339q101 27 176 91.5t93 146.5q-115 -41 -181.5 -100.5t-87.5 -137.5zM772 306q0 -12 -3 -25t-3 -34q1 -52 16 -93.5t37 -76.5q78 39 139.5 84t121 104.5t133 143.5t176.5 198q-57 0 -137.5 -5t-166.5 -17q-20 -111 -98 -185.5t-215 -93.5z" />
    <glyph glyph-name="aring" unicode="&#xe5;" 
d="M197 11q88 26 253.5 256.5t184.5 356.5q0 25 -10.5 40.5t-36.5 16.5q-101 -31 -256.5 -280t-171.5 -347q0 -18 9 -30.5t28 -12.5zM553 -8q-39 2 -54 33t-14 78q1 73 22.5 148t53.5 147q-151 -219 -237 -310.5t-129 -89.5q-37 2 -53.5 34t-16.5 90q15 259 174 415t285 160
q39 0 53.5 -21.5t13.5 -58.5q0 -7 -1 -20.5t-3 -28.5l78 146h8q-1 -25 9.5 -32.5t25.5 -6.5q26 0 43.5 11.5t34.5 27.5l10 -4q-59 -76 -192.5 -324.5t-149.5 -337.5q0 -22 9 -34.5t28 -12.5q17 0 34.5 11.5t32.5 27.5q61 66 95 131t49 70q6 0 7 -3.5t1 -7.5
q-5 -19 -74 -121.5t-143 -116.5zM711 812q-27 0 -45 18t-19 52q2 50 36.5 85.5t76.5 37.5q31 0 49 -17.5t18 -48.5q-2 -47 -35.5 -86t-80.5 -41zM809 937q1 20 -9.5 35t-39.5 16q-39 -3 -67 -38.5t-29 -67.5q1 -28 16 -41t33 -13q38 2 66.5 36.5t29.5 72.5z" />
    <glyph glyph-name="iacute" unicode="&#xed;" horiz-adv-x="426" 
d="M395 697q42 -2 60 -38.5t18 -81.5q-4 -68 -45 -136.5t-94 -136t-93 -129t-42 -117.5q0 -20 11.5 -36t29.5 -17q61 13 125.5 102.5t80.5 102.5q5 0 6 -2t1 -8q-5 -25 -75 -111t-138 -97q-48 4 -69 47t-21 89q2 76 41.5 149.5t92 142t93.5 126t45 98.5q0 17 -9.5 26
t-25.5 9q-20 -1 -42.5 -19t-39.5 -34q-58 -62 -83 -104t-40 -44q-4 0 -6 2.5t-2 5.5q6 24 79 111.5t142 99.5zM651 1005q21 0 33 -10.5t12 -28.5q-2 -44 -73.5 -91t-182.5 -51q-10 -1 -18.5 0.5t-9.5 10.5q1 14 34.5 12.5t88.5 46.5q38 43 56.5 76t59.5 35z" />
    <glyph glyph-name="oslash" unicode="&#xf8;" horiz-adv-x="682" 
d="M588 689q-124 -17 -232 -199t-153 -321l471 416q0 60 -22.5 82.5t-63.5 21.5zM188 79q0 -34 20 -55.5t64 -22.5q43 0 74 17t60 47q78 83 154.5 226.5t113.5 256.5l-477 -418q-3 -10 -6 -22.5t-3 -28.5zM594 706q57 -1 82.5 -27t36.5 -62q78 65 101 87t32 20q6 0 8 -3.5
t2 -6.5q-3 -13 -44 -46t-89 -79q5 -23 8.5 -49t3.5 -52q-12 -206 -163 -349.5t-300 -150.5q-56 2 -87 27t-40 70q-70 -58 -96.5 -83t-38.5 -25q-5 1 -7.5 4t-2.5 7q-2 7 24 27.5t115 96.5q-3 15 -6.5 37t-3.5 51q15 233 175.5 368t289.5 138z" />
    <glyph glyph-name="ae" unicode="&#xe6;" horiz-adv-x="938" 
d="M780 658q44 3 80 21.5t78 21.5q40 -1 60 -26t20 -55q-2 -89 -110 -184t-292 -111q-38 -62 -67 -119.5t-31 -104.5q0 -41 22 -67t68 -27q38 1 77 24t77 62q85 89 110.5 135.5t38.5 46.5q7 0 9 -2t2 -8q-6 -31 -104 -144.5t-212 -128.5q-69 2 -104 51t-35 142q0 14 1 33
t3 41q-80 -121 -156 -191t-125 -72q-38 1 -57.5 31t-19.5 89q14 247 175.5 412t307.5 171q43 -1 58 -26t14 -56q0 -15 -4 -31.5t-9 -33.5l78 125h6q3 -9 9.5 -14t31.5 -5zM160 56q0 -20 9.5 -32.5t31.5 -12.5q99 29 263.5 269.5t182.5 347.5q-1 29 -13 40t-28 11
q-109 -27 -269.5 -264.5t-176.5 -358.5zM856 445q63 64 92 116t29 81q-1 24 -13 34.5t-28 10.5q-52 -2 -136 -95.5t-171 -248.5q71 3 120.5 23.5t106.5 78.5z" />
    <glyph glyph-name="Adieresis" unicode="&#xc4;" horiz-adv-x="1921" 
d="M887 24q-29 -10 -83.5 -17t-98.5 -7q-179 0 -321.5 99.5t-150.5 298.5q13 230 189 351t358 122q167 -5 260.5 -86t94.5 -184q17 1 101.5 8t213.5 8q45 49 130 143t171 181q152 152 275.5 225.5t212 100t135.5 32t49 17.5q-13 18 -189 54t-358 40q-405 -12 -580.5 -157.5
t-171.5 -274.5q1 -73 46.5 -118t129.5 -46q153 9 247.5 107t97.5 180q-4 47 -30 58t-30 26q0 6 3 8t9 2q23 -1 44.5 -35.5t23.5 -85.5q-5 -113 -105.5 -198t-230.5 -89q-108 1 -184.5 69.5t-79.5 191.5q-3 145 154 273t505 136q142 0 262.5 -17.5t219 -41t170 -42
t114.5 -20.5q53 3 73 20.5t34 20.5q12 0 17 -8t5 -20q-1 -14 -9 -33.5t-15 -26.5q-5 -6 -19.5 -8t-54.5 -2q-98 2 -181.5 -37t-191.5 -147q-85 -85 -167.5 -196t-161.5 -263q139 2 211.5 39.5t72.5 81.5q-2 18 -15 27t-15 26q1 18 17.5 31t33.5 14q22 -1 31.5 -14t9.5 -31
q6 -45 -67.5 -118t-297.5 -81q-46 -90 -89 -211.5t-46 -236.5q1 -79 29 -121t67 -42q25 2 45.5 16.5t28.5 23.5q63 69 82 121t33 55q6 0 10 -3t4 -9q-2 -19 -59.5 -111t-143.5 -105q-91 7 -139.5 106t-48.5 214q1 84 24.5 159t53.5 138l-148 -4q-67 -82 -129.5 -164
t-129 -157.5t-147.5 -139t-186 -108.5q50 -46 101.5 -65.5t99.5 -19.5q114 7 147.5 52t45.5 51q5 0 9.5 -3t4.5 -9q0 -21 -51 -62.5t-148 -47.5q-93 4 -149 37t-82 59h-2zM1526 626l141 2q51 92 117.5 179t150.5 171q110 106 199.5 164.5t151.5 101.5l-2 8q-18 5 -148 -53.5
t-326 -245.5q-94 -95 -161 -176t-123 -151zM846 818q-209 -9 -388.5 -150.5t-191.5 -310.5q4 -142 109.5 -230t263.5 -91q65 1 120 14.5t81 28.5q-22 41 -34.5 80.5t-12.5 85.5q0 21 2 37.5t2 17.5q-64 1 -130 38t-71 105q2 40 21.5 63t33.5 23q6 0 10.5 -3t4.5 -9
q-3 -16 -27 -29.5t-27 -48.5q0 -17 8 -33.5t19 -27.5q21 -22 60 -32.5t108 -10.5q27 97 99 161t196 95v37q-4 98 -79 144t-177 46zM831 341q70 17 113 42.5t74 57.5q46 49 61.5 84t14.5 45q-37 -9 -89 -30.5t-100 -67.5q-35 -35 -51.5 -67.5t-22.5 -63.5zM811 241
q0 -37 11 -76.5t36 -75.5q70 26 142.5 79t168.5 150q57 58 148.5 158t109.5 119h-81q-75 -1 -137.5 -7t-73.5 -7q-3 -27 -20.5 -76t-59.5 -94q-36 -38 -94 -69t-144 -42q0 -12 -3 -25t-3 -34zM2349 1752q19 0 31 -12t12 -37q-1 -38 -30.5 -72.5t-69.5 -36.5
q-22 0 -33.5 13.5t-11.5 36.5q2 39 32 72.5t70 35.5zM2531 1594q-20 -1 -32.5 10t-12.5 40q1 35 30.5 70t72.5 38q18 0 30.5 -12t12.5 -35q-2 -42 -33 -75.5t-68 -35.5z" />
    <glyph glyph-name="igrave" unicode="&#xec;" horiz-adv-x="426" 
d="M336 953q0 21 14.5 37t36.5 17q36 -2 48.5 -39.5t49.5 -81.5q35 -31 62 -33.5t28 -11.5q0 -9 -6.5 -12t-17.5 -3q-67 1 -138 36.5t-77 90.5zM395 697q43 -2 61 -39t17 -81q-4 -70 -45 -138.5t-94 -134t-93 -127t-42 -119.5q0 -22 11.5 -37t29.5 -16q62 13 126 102.5
t80 102.5q5 0 6 -2t1 -8q-5 -25 -75 -111t-138 -97q-48 4 -69 47t-21 89q2 74 41.5 147.5t92 143t93.5 128t45 97.5q0 17 -10 26t-25 9q-20 -1 -42.5 -19t-39.5 -34q-58 -62 -83 -104t-40 -44q-4 0 -6 2.5t-2 5.5q6 26 79.5 113t141.5 98z" />
    <glyph glyph-name="Odieresis" unicode="&#xd6;" horiz-adv-x="1366" 
d="M1774 1703q-2 -42 -33.5 -75.5t-67.5 -35.5q-20 0 -32.5 12t-12.5 37q1 34 31 70t72 39q16 0 29 -10.5t14 -36.5zM1178 984q-24 0 -39 4t-15 15q0 9 5.5 11.5t13.5 2.5q8 -1 23.5 -6t39.5 -6q82 5 152.5 80.5t75.5 162.5q-2 47 -22 64.5t-30 23.5
q-209 -155 -385.5 -384.5t-187.5 -403.5q2 -70 34.5 -110.5t76.5 -41.5q34 2 49.5 16.5t27.5 16.5q7 0 10 -4.5t3 -7.5q-2 -16 -27 -26.5t-53 -10.5q-79 2 -127 65.5t-49 159.5q7 187 174.5 403.5t406.5 340.5q-9 3 -21 4.5t-22 1.5q-43 4 -141 -36.5t-242 -178.5
q-190 -190 -347 -428t-167 -428q3 -121 77.5 -195t180.5 -76q97 1 205 60.5t219 171.5q189 189 401 503t230 531q-1 58 -38 92t-99 35q-39 0 -82.5 -15.5t-81.5 -39.5q32 -23 49 -51.5t17 -69.5q-3 -95 -85.5 -168.5t-209.5 -77.5zM1575 1422q90 -1 141.5 -61t52.5 -168
q-26 -389 -379 -779t-718 -420q-145 3 -251.5 109t-111.5 295q19 347 318.5 653t650.5 326q36 0 54.5 -2.5t29.5 -7.5q62 28 117.5 41.5t95.5 13.5zM1534 1701q-2 -38 -32 -72.5t-68 -36.5q-23 0 -34 14t-11 35q2 36 32 71t70 38q19 0 31 -12t12 -37z" />
    <glyph glyph-name="Udieresis" unicode="&#xdc;" horiz-adv-x="1579" 
d="M743 1453q220 -6 329.5 -118t109.5 -261q-1 -122 -65 -242t-183 -264q-47 -61 -96.5 -123.5t-89 -121t-64.5 -112.5t-25 -103q0 -41 22.5 -68.5t61.5 -28.5q89 8 231 160.5t292 351.5q146 197 280.5 401.5t272.5 467.5h8q1 -26 14.5 -36.5t32.5 -10.5q25 0 46.5 13
t41.5 34h10q-102 -179 -213.5 -375.5t-210 -379.5t-160 -326.5t-61.5 -215.5q0 -32 16.5 -55.5t51.5 -24.5q27 -1 56.5 23t72.5 84q59 100 77 142.5t31 41.5q8 0 11.5 -4t3.5 -10q-5 -25 -61 -116t-99 -138q-20 -20 -43 -31.5t-51 -12.5q-51 1 -84.5 44.5t-34.5 134.5
q0 100 62.5 264t187.5 406q-337 -484 -520 -670t-263 -179q-62 2 -97 57t-36 153q0 80 22.5 145.5t64.5 128t96.5 129t117.5 148.5q95 126 149.5 233t55.5 189q-2 106 -84 173.5t-215 69.5q-211 -9 -385 -159.5t-184 -341.5q-2 -40 17.5 -87t82.5 -90l-6 66q4 170 109 304
t260 142q86 -2 131 -56.5t45 -131.5q-4 -140 -119 -254t-287 -121q-34 0 -59.5 5.5t-46.5 13.5q15 -54 64.5 -111.5t129.5 -62.5q36 0 57.5 11.5t37.5 29.5q29 33 29.5 58t17.5 26q6 -1 9 -7.5t3 -7.5q-1 -36 -41 -79.5t-111 -47.5q-90 4 -145.5 67t-71.5 130
q-79 44 -128 110.5t-50 165.5q5 182 163 318t406 143zM360 812q1 -30 4.5 -51t4.5 -29q22 -8 41 -13t47 -5q164 9 274.5 133.5t114.5 253.5q-1 66 -38.5 102.5t-96.5 36.5q-132 -8 -238.5 -137.5t-112.5 -290.5zM1565 1750q18 0 30.5 -12t12.5 -37q-2 -39 -32.5 -73
t-68.5 -36q-22 0 -33.5 13t-11.5 36q2 40 33 73.5t70 35.5zM1847 1701q-2 -39 -32 -73t-68 -36q-18 0 -31 10.5t-14 38.5q1 31 29.5 68.5t72.5 40.5q19 0 31 -12t12 -37z" />
    <glyph glyph-name="Eacute" unicode="&#xc9;" horiz-adv-x="1280" 
d="M1688 1269q0 61 -61.5 107t-184.5 48q-208 -10 -374 -146t-173 -284q1 -53 21.5 -78.5t44.5 -44.5q10 0 45.5 3.5t99.5 3.5q107 0 171 -14.5t66 -39.5q2 -11 -18.5 -22t-83.5 -12q-135 4 -198 28.5t-87 28.5q-291 -41 -464 -264t-177 -408q0 -122 81.5 -202t238.5 -84
q248 20 418.5 221.5t177.5 351.5q1 65 -41.5 111.5t-134.5 48.5q-170 -11 -283 -144t-117 -250q0 -52 29 -91.5t90 -41.5q28 0 57 12.5t50 32.5q36 41 40 65t19 25q7 0 9.5 -3t2.5 -9q-1 -32 -48 -83t-124 -56q-72 1 -121 49.5t-51 130.5q9 152 143 263.5t291 117.5
q114 -2 180.5 -71t67.5 -183q-2 -153 -165 -328t-459 -191q-208 6 -331 125t-126 298q-1 201 176 368.5t543 210.5q-60 50 -91.5 105.5t-31.5 128.5q1 139 142.5 244.5t408.5 111.5q202 -4 281.5 -72t76.5 -147q-3 -107 -97.5 -181t-250.5 -77q-104 2 -165 42.5t-62 98.5
q3 65 60 104t138 40q44 0 67 -8.5t23 -22.5q0 -6 -3 -8t-9 -2q-10 2 -28.5 12.5t-55.5 11.5q-72 -1 -119 -35t-49 -86q-1 -38 35.5 -67t118.5 -31q130 2 246.5 68.5t124.5 169.5zM1767 1721q-3 -43 -75 -89t-183 -50q-17 0 -22.5 1t-5.5 7q1 15 34.5 13.5t88.5 46.5
q38 43 57.5 75.5t60.5 34.5q21 0 33 -10t12 -29z" />
    <glyph glyph-name="idieresis" unicode="&#xef;" horiz-adv-x="426" 
d="M506 951q-2 -36 -31 -70.5t-67 -37.5q-18 0 -29.5 11t-11.5 36q1 40 29.5 74t66.5 36q18 0 30.5 -13t12.5 -36zM174 486q6 24 78.5 111.5t142.5 99.5q43 -2 61 -39t17 -81q-4 -70 -45 -138.5t-94 -134t-93 -127t-42 -119.5q0 -20 11.5 -36t29.5 -17q62 13 126 102.5
t80 102.5q5 0 6 -2t1 -8q-5 -25 -75 -111t-138 -97q-48 4 -69 47t-21 89q2 74 41.5 147.5t92 143t93.5 128t45 97.5q0 19 -10 27t-25 8q-20 -1 -42.5 -19t-39.5 -34q-58 -62 -83 -104t-40 -44q-4 0 -6 2.5t-2 5.5zM748 949q-2 -37 -33 -68.5t-70 -33.5q-20 -1 -31.5 8.5
t-11.5 38.5q1 35 31.5 68.5t73.5 35.5q18 0 29.5 -11.5t11.5 -37.5z" />
    <glyph glyph-name="germandbls" unicode="&#xdf;" horiz-adv-x="811" 
d="M1141 1246q-1 66 -34.5 99.5t-88.5 33.5q-47 -1 -96 -28t-95 -72q-92 -92 -170.5 -241.5t-164.5 -350.5t-203 -447t-285 -533q-94 -144 -173 -185.5t-137 -37.5q-53 1 -86 20t-35 52q2 29 20 41.5t33 11.5q49 -5 47.5 -50.5t53.5 -52.5q32 3 57.5 21.5t36.5 30.5
q125 153 305 555.5t198 499.5q0 31 -20 45.5t-54 14.5q-22 0 -28 2.5t-5 9.5q0 10 7 12t20 2h139q43 95 76 170.5t63.5 138t67.5 117t88 101.5q92 90 198.5 137t200.5 47q91 -2 134.5 -49.5t43.5 -112.5q1 -54 -23.5 -103.5t-80.5 -105.5q-74 -69 -162 -125.5t-169 -106.5
t-132 -102.5t-51 -111.5q12 -97 94 -180.5t94 -200.5q-5 -91 -87 -154.5t-181 -67.5q-92 3 -144 51t-53 122q1 63 36 106t87 45q37 -1 54.5 -20.5t15.5 -46.5t-16 -45t-35 -19q-10 0 -21 3t-22 3q-21 0 -40 -15.5t-20 -49.5q0 -41 32 -76t95 -37q76 2 128.5 67t54.5 165
q-6 83 -47.5 177.5t-47.5 162.5q0 57 29 100t80 85t123 97.5t160 137.5q65 64 100 123.5t35 119.5z" />
    <glyph glyph-name="Ocircumflex" unicode="&#xd4;" horiz-adv-x="1366" 
d="M754 605q7 187 174.5 403.5t406.5 340.5q-9 3 -21 4.5t-22 1.5q-43 4 -141 -36.5t-242 -178.5q-190 -190 -347 -428t-167 -428q3 -121 77.5 -195t180.5 -76q96 1 204.5 60.5t219.5 171.5q189 189 401 503t230 531q-1 57 -38 91.5t-99 35.5q-39 0 -82.5 -15.5t-81.5 -39.5
q32 -23 49 -52.5t17 -68.5q-2 -86 -80 -163.5t-215 -82.5q-24 0 -39 4t-15 15q0 9 5.5 11.5t13.5 2.5q8 -1 23.5 -6t39.5 -6q82 5 152.5 79.5t75.5 163.5q0 32 -14.5 53.5t-39.5 34.5q-213 -161 -387 -388t-184 -400q2 -70 34.5 -110.5t76.5 -41.5q33 2 49 16.5t28 16.5
q7 0 10 -4.5t3 -7.5q-1 -15 -25 -25.5t-55 -11.5q-77 2 -125.5 65t-50.5 160zM1567 1707q37 39 54 63t26 25q4 0 5 -4.5t1 -7.5q-1 -11 -5.5 -34t-5.5 -40q4 -67 33 -88t33 -25q0 -3 -7 -4.5t-15 -1.5q-40 1 -66.5 23.5t-38.5 50.5q-38 -31 -91.5 -54.5t-88.5 -23.5
q-6 0 -9 2t-3 6q0 13 43 20.5t135 92.5zM1575 1422q90 -1 141.5 -61t52.5 -168q-26 -389 -379 -779t-718 -420q-147 3 -252.5 110.5t-110.5 293.5q19 347 318.5 653t650.5 326q36 0 55 -2.5t29 -7.5q62 28 115.5 41.5t97.5 13.5z" />
    <glyph glyph-name="Aacute" unicode="&#xc1;" horiz-adv-x="1921" 
d="M705 0q-179 0 -321.5 99.5t-150.5 298.5q13 230 190.5 351t356.5 122q169 -5 261.5 -86t93.5 -184q17 1 101.5 8t213.5 8q77 83 158.5 173t142.5 151q152 152 275.5 225.5t212 100t135.5 32t49 17.5q-13 18 -189 54t-358 40q-405 -12 -580.5 -157.5t-171.5 -274.5
q1 -73 46.5 -118t129.5 -46q152 9 247 107t98 180q-4 47 -30 58t-30 26q0 6 3 8t9 2q23 -1 44.5 -35.5t23.5 -85.5q-5 -112 -105 -197t-231 -90q-108 1 -184.5 69.5t-79.5 191.5q-3 146 154 273.5t505 135.5q142 0 262.5 -17.5t219 -41t170 -42t114.5 -20.5q46 3 71.5 20.5
t35.5 20.5q12 0 17 -8t5 -20q-1 -14 -9 -33.5t-15 -26.5q-5 -6 -19.5 -8t-54.5 -2q-98 2 -181.5 -37t-191.5 -147q-85 -85 -167.5 -196t-161.5 -263q139 2 211.5 39.5t72.5 81.5q-2 18 -15 27t-15 26q1 18 17.5 31t33.5 14q22 -1 31.5 -14t9.5 -31q6 -45 -67.5 -118
t-297.5 -81q-46 -90 -89 -211.5t-46 -236.5q1 -79 29 -121t67 -42q25 2 45.5 16.5t28.5 23.5q63 69 82 121t33 55q6 0 10 -3t4 -9q-2 -19 -59.5 -111t-143.5 -105q-91 7 -139.5 106t-48.5 214q1 84 24.5 159t53.5 138l-148 -4q-67 -82 -129.5 -164t-129 -157.5t-147.5 -139
t-186 -108.5q50 -46 101.5 -65.5t99.5 -19.5q112 7 146 52t47 51q5 0 9.5 -3t4.5 -9q0 -21 -51 -62.5t-148 -47.5q-93 4 -149 37t-82 59h-2q-29 -10 -83.5 -17t-98.5 -7zM1665 628q51 91 118.5 178t151.5 172q110 106 199.5 164.5t151.5 101.5l-2 8q-18 5 -148 -53.5
t-326 -245.5q-94 -95 -161 -176t-123 -151zM846 818q-209 -9 -388.5 -150.5t-191.5 -310.5q4 -142 109.5 -230t263.5 -91q65 1 120 14.5t81 28.5q-22 41 -34.5 80.5t-12.5 85.5q0 21 2 37.5t2 17.5q-64 1 -130 38t-71 105q2 40 21.5 63t33.5 23q6 0 10.5 -3t4.5 -9
q-3 -16 -27 -29.5t-27 -48.5q0 -17 8 -33.5t19 -27.5q21 -22 60 -32.5t108 -10.5q27 97 99 161t196 95v37q-4 98 -79 144t-177 46zM831 341q70 17 113 42.5t74 57.5q46 49 61.5 84t14.5 45q-37 -9 -89 -30.5t-100 -67.5q-35 -35 -51.5 -67.5t-22.5 -63.5zM811 241
q0 -37 11 -76.5t36 -75.5q70 26 142.5 79t168.5 150q57 58 148.5 158t109.5 119h-81q-75 -1 -137.5 -7t-73.5 -7q-3 -27 -20.5 -76t-59.5 -94q-36 -38 -94 -69t-144 -42q0 -12 -3 -25t-3 -34zM2664 1721q-3 -43 -76 -89t-182 -50q-10 0 -18.5 0.5t-9.5 7.5q1 15 34.5 13.5
t88.5 46.5q38 43 57.5 75.5t60.5 34.5q21 0 33 -10t12 -29z" />
    <glyph glyph-name="Atilde" unicode="&#xc3;" horiz-adv-x="1921" 
d="M887 24q-29 -10 -83.5 -17t-98.5 -7q-179 0 -321.5 99.5t-150.5 298.5q13 230 190.5 351t356.5 122q169 -5 261.5 -86t93.5 -184q17 1 101.5 8t213.5 8q77 83 158.5 173t142.5 151q152 152 275.5 225.5t212 100t135.5 32t49 17.5q-13 18 -189 54t-358 40
q-405 -13 -580.5 -158.5t-171.5 -273.5q1 -73 46.5 -118t129.5 -46q152 9 247 107t98 180q-4 47 -30 58t-30 26q0 6 3 8t9 2q23 -1 44.5 -35.5t23.5 -85.5q-5 -112 -105 -197t-231 -90q-109 1 -185 69.5t-79 191.5q-3 146 154 273.5t505 135.5q142 0 262.5 -17.5t219 -41
t170 -42t114.5 -20.5q46 3 71.5 20.5t35.5 20.5q12 0 17 -8t5 -20q-1 -14 -9 -33.5t-15 -26.5q-5 -6 -19.5 -8t-54.5 -2q-98 2 -181.5 -37t-191.5 -147q-85 -85 -167.5 -196t-161.5 -263q139 2 211.5 39.5t72.5 81.5q-2 18 -15 27.5t-15 25.5q1 18 17.5 31t33.5 14
q22 -1 31.5 -14t9.5 -31q6 -43 -66 -117t-299 -82q-46 -90 -89 -211.5t-46 -236.5q1 -79 29 -121t67 -42q27 2 46.5 16.5t27.5 23.5q63 69 82 121t33 55q6 0 10 -3t4 -9q-2 -19 -59.5 -111t-143.5 -105q-91 7 -139.5 106t-48.5 214q1 84 24.5 159t53.5 138l-148 -4
q-67 -82 -129.5 -164t-129 -157.5t-147.5 -139t-186 -108.5q50 -46 103 -65.5t98 -19.5q112 7 146 52t47 51q5 0 9.5 -3t4.5 -9q0 -21 -51 -62.5t-148 -47.5q-94 4 -149.5 37t-81.5 59h-2zM1526 626l141 2q51 92 117.5 179t150.5 171q110 106 199.5 164.5t151.5 101.5l-2 8
q-18 5 -148 -53.5t-326 -245.5q-94 -95 -161 -176t-123 -151zM846 818q-209 -9 -388.5 -150.5t-191.5 -310.5q4 -142 111 -230t262 -91q65 1 120 14.5t81 28.5q-22 41 -34.5 80.5t-12.5 85.5q0 21 2 37.5t2 17.5q-64 1 -130 38t-71 105q2 40 21.5 63t33.5 23q6 0 10.5 -3
t4.5 -9q-3 -16 -27 -29.5t-27 -48.5q0 -17 8 -33.5t19 -27.5q21 -22 60 -32.5t108 -10.5q27 97 99 161t196 95v37q-4 98 -79 144t-177 46zM831 341q70 17 113 42.5t74 57.5q46 49 61.5 84t14.5 45q-37 -9 -89 -30.5t-100 -67.5q-35 -35 -51.5 -67.5t-22.5 -63.5zM811 241
q0 -37 11 -76.5t36 -75.5q70 26 142.5 79t168.5 150q57 58 148.5 158t109.5 119h-81q-75 -1 -137.5 -7t-73.5 -7q-3 -27 -20.5 -76t-59.5 -94q-36 -38 -94 -69t-144 -42q0 -12 -3 -25t-3 -34zM2265 1598q-5 0 -7.5 3t-2.5 8q1 11 35.5 55.5t93.5 50.5q46 -3 98 -20.5
t90 -20.5q39 3 53.5 27t26.5 27q6 0 7 -2t1 -7q-1 -16 -39 -67t-108 -58q-45 2 -99 18.5t-87 18.5q-34 -2 -43 -16.5t-19 -16.5z" />
    <glyph glyph-name="atilde" unicode="&#xe3;" 
d="M733 714q0 -24 8 -32t27 -7q26 0 43.5 11.5t34.5 27.5l10 -4q-66 -90 -196.5 -332.5t-145.5 -329.5q0 -22 10 -34.5t27 -12.5q15 0 33.5 11.5t33.5 27.5q65 70 96.5 133.5t47.5 67.5q6 0 7 -3.5t1 -7.5q-5 -19 -74 -121.5t-143 -116.5q-39 2 -54 33t-14 78q1 73 22.5 148
t53.5 147q-151 -219 -237 -310.5t-129 -89.5q-37 2 -53.5 34t-16.5 90q15 258 174 414.5t285 160.5q40 -1 54 -24.5t13 -55.5q0 -7 -1 -20.5t-3 -28.5l78 146h8zM197 11q89 26 254 256.5t184 356.5q0 25 -10.5 40.5t-36.5 16.5q-104 -31 -258 -280t-170 -347q0 -18 9 -30.5
t28 -12.5zM524 871q-5 0 -7.5 3t-2.5 8q1 11 35.5 55.5t93.5 50.5q47 -3 101.5 -20.5t86.5 -20.5q39 3 54.5 26.5t25.5 26.5q6 0 7.5 -2t1.5 -6q-1 -16 -39.5 -67t-108.5 -58q-45 2 -98 18.5t-88 18.5q-33 -2 -41.5 -16.5t-20.5 -16.5z" />
    <glyph glyph-name="Eth" unicode="&#xd0;" horiz-adv-x="1706" 
d="M821 1080q-91 -3 -164 -64.5t-77 -144.5q3 -50 26.5 -55t26.5 -20q0 -5 -1 -9t-7 -4q-19 0 -40.5 27.5t-23.5 75.5q4 91 82 149t178 60q106 -3 162 -64.5t57 -148.5q-4 -138 -122.5 -247.5t-301.5 -115.5q-178 5 -276.5 108t-99.5 249q0 190 163.5 354.5t491.5 175.5
q257 -7 431.5 -110.5t248.5 -215.5q102 104 174 161.5t180 113.5q120 62 223 88.5t193 25.5q73 0 125.5 -14.5t54.5 -42.5q0 -15 -14.5 -29.5t-38.5 -15.5q-31 5 -43 39t-92 39q-187 -9 -381 -155t-318 -322q40 -69 65 -151t26 -204q-1 -243 -140 -427t-405 -194
q-120 4 -223.5 36.5t-169.5 58.5q-84 -34 -185.5 -64t-224.5 -33q-74 1 -108 19.5t-33 52.5q3 59 61 92t141 33q88 -2 184.5 -23.5t157.5 -41.5q100 64 159.5 128t119.5 157h-227q-4 0 -11 1.5t-8 8.5q0 12 9.5 15t35.5 3h221q68 96 136.5 192.5t132 182.5t116 152.5
t88.5 99.5q-89 119 -249.5 193.5t-352.5 76.5q-289 -7 -476.5 -155.5t-194.5 -352.5q1 -115 74.5 -190t213.5 -78q179 7 300 120t126 243q0 63 -43.5 111t-132.5 50zM1155 42q238 9 379.5 199.5t144.5 455.5q1 49 -11 113t-48 137q-89 -118 -203.5 -265.5t-202.5 -246.5h236
q18 0 24 -2.5t5 -11.5q0 -6 -8.5 -10t-20.5 -4h-256q-70 -78 -145 -144.5t-218 -152.5q62 -22 145 -44t179 -24zM459 167q-98 -2 -146.5 -32t-48.5 -66q-1 -29 28 -45.5t97 -16.5q122 2 207 32.5t145 61.5q-63 26 -136.5 45.5t-145.5 20.5z" />
    <glyph glyph-name="eth" unicode="&#xf0;" horiz-adv-x="682" 
d="M590 691q-34 0 -64 -16t-59 -45q-83 -91 -178 -274.5t-103 -276.5q0 -34 21.5 -56t62.5 -23q143 30 268.5 273t133.5 342q0 35 -21.5 55.5t-60.5 20.5zM1055 1136q7 0 10.5 -3t3.5 -8q4 -11 -30 -17.5t-154 -35.5q0 -19 1 -31.5t1 -19.5q-7 -336 -182 -670.5t-435 -360.5
q-78 2 -111 55t-32 144q15 242 174 378.5t285 138.5q79 -5 96 -50.5t14 -74.5q40 90 71 216t40 259q-74 -17 -191.5 -44t-134.5 -30q-6 0 -9 4.5t-3 7.5q-9 11 48.5 24t289.5 62q-4 212 -31 282t-31 87q0 6 3.5 10t13.5 4q16 -5 61 -111.5t60 -254.5q41 9 100.5 23.5
t71.5 15.5z" />
    <glyph glyph-name="eth" unicode="&#x111;" horiz-adv-x="682" 
d="M590 691q-34 0 -64 -16t-59 -45q-83 -91 -178 -274.5t-103 -276.5q0 -34 21.5 -56t62.5 -23q143 30 268.5 273t133.5 342q0 35 -21.5 55.5t-60.5 20.5zM1055 1136q7 0 10.5 -3t3.5 -8q4 -11 -30 -17.5t-154 -35.5q0 -19 1 -31.5t1 -19.5q-7 -336 -182 -670.5t-435 -360.5
q-78 2 -111 55t-32 144q15 242 174 378.5t285 138.5q79 -5 96 -50.5t14 -74.5q40 90 71 216t40 259q-74 -17 -191.5 -44t-134.5 -30q-6 0 -9 4.5t-3 7.5q-9 11 48.5 24t289.5 62q-4 212 -31 282t-31 87q0 6 3.5 10t13.5 4q16 -5 61 -111.5t60 -254.5q41 9 100.5 23.5
t71.5 15.5z" />
    <glyph glyph-name="Iacute" unicode="&#xcd;" horiz-adv-x="1622" 
d="M2370 1408q0 -29 -18.5 -48t-55.5 -20q-34 3 -122 -26.5t-192 -126.5q-92 -92 -162.5 -220t-133 -269.5t-134 -271.5t-163.5 -228q-102 -103 -250 -157.5t-342 -56.5q-288 6 -435.5 121.5t-148.5 286.5q5 178 138.5 284t336.5 109q181 -4 274.5 -84.5t94.5 -185.5
q-2 -99 -83 -184.5t-214 -91.5q-97 2 -160 46.5t-65 112.5q0 39 24.5 68.5t71.5 30.5q14 0 22.5 -4t8.5 -11q0 -6 -6 -10t-17 -4l-23 2q-29 -1 -47.5 -21.5t-19.5 -50.5q2 -50 50 -84.5t116 -35.5q126 5 218.5 85.5t96.5 174.5q-3 88 -78 136.5t-182 49.5
q-202 -6 -345.5 -125t-150.5 -272q9 -160 154 -242t317 -82q110 -1 236.5 44t239.5 155q125 133 229 302t208.5 340t232.5 307t302 202q6 3 6.5 6.5t0.5 7.5q-85 31 -226.5 58.5t-279.5 29.5q-346 -8 -549.5 -154.5t-208.5 -332.5q1 -88 64.5 -152t175.5 -67q153 9 260 116
t112 211q-1 60 -36 100t-99 42q-84 -3 -158 -65.5t-79 -143.5q4 -54 31.5 -62t31.5 -20q0 -9 -4 -12t-10 -3q-30 1 -49.5 28t-20.5 63q5 95 86.5 161.5t173.5 69.5q77 -2 123 -55.5t47 -130.5q-4 -120 -108.5 -221t-262.5 -107q-136 2 -236.5 86.5t-105.5 228.5
q-4 164 154.5 311.5t523.5 157.5q121 0 237 -17.5t213 -39t160.5 -38.5t82.5 -19q41 3 59.5 25.5t42.5 25.5q15 -1 20 -12t5 -21zM2179 1650q38 43 57.5 75.5t61.5 34.5q20 0 32.5 -10t12.5 -29q-3 -45 -76 -90t-182 -49q-10 0 -19 0.5t-10 7.5q1 13 34.5 12t88.5 48z" />
    <glyph glyph-name="Igrave" unicode="&#xcc;" horiz-adv-x="1622" 
d="M1997 1705q1 22 14.5 38t34.5 17q37 -2 50 -39.5t50 -81.5q35 -31 62 -34t28 -13q0 -9 -7.5 -11.5t-18.5 -2.5q-66 1 -136.5 37t-76.5 90zM2243 1390q41 3 59.5 25.5t42.5 25.5q15 -1 20 -12t5 -21q0 -30 -19.5 -48.5t-54.5 -19.5q-34 3 -122 -26.5t-192 -126.5
q-92 -92 -162.5 -220t-133 -269.5t-134 -271.5t-163.5 -228q-102 -103 -250 -157.5t-342 -56.5q-285 6 -434 121t-150 287q5 178 138 284t337 109q179 -4 273.5 -84.5t95.5 -185.5q-2 -101 -83 -186t-214 -90q-97 2 -160 47.5t-65 111.5q0 39 24.5 68.5t71.5 30.5
q14 0 22.5 -4t8.5 -11q0 -6 -6 -10t-17 -4l-23 2q-29 -1 -47.5 -21.5t-19.5 -50.5q2 -51 50 -85t116 -35q123 5 216.5 84.5t98.5 175.5q-3 88 -78 136.5t-182 49.5q-202 -6 -345.5 -125t-150.5 -272q9 -159 154 -241.5t317 -82.5q110 -1 236.5 44t239.5 155q125 133 229 302
t208.5 340t232.5 307t302 202q6 3 6.5 6.5t0.5 7.5q-85 31 -226.5 58.5t-279.5 29.5q-346 -8 -549.5 -154.5t-208.5 -332.5q1 -88 64.5 -152t175.5 -67q156 9 262 116t110 211q-1 60 -36 100t-99 42q-84 -3 -158 -65.5t-79 -143.5q4 -54 31.5 -62t31.5 -20q0 -9 -4 -12
t-10 -3q-30 1 -49.5 28t-20.5 63q5 95 86.5 161.5t173.5 69.5q77 -2 123 -55.5t47 -130.5q-4 -120 -108 -221t-263 -107q-131 2 -233.5 86.5t-108.5 228.5q-4 164 154.5 311.5t523.5 157.5q121 0 237 -17.5t213 -39t160.5 -38.5t82.5 -19z" />
    <glyph glyph-name="Oacute" unicode="&#xd3;" horiz-adv-x="1366" 
d="M1178 984q-24 0 -39 4t-15 15q0 9 5.5 11.5t13.5 2.5q8 -1 23.5 -6t39.5 -6q83 5 153.5 79.5t74.5 163.5q0 32 -14.5 53.5t-39.5 34.5q-213 -161 -387 -388t-184 -400q2 -70 34.5 -110.5t76.5 -41.5q35 2 50 16.5t27 16.5q7 0 10 -4.5t3 -7.5q-2 -16 -27 -26.5t-53 -10.5
q-79 2 -127 65.5t-49 159.5q7 187 174.5 403.5t406.5 340.5q-9 3 -21 4.5t-22 1.5q-43 4 -141 -36.5t-242 -178.5q-190 -190 -347 -428t-167 -428q3 -121 77.5 -195t180.5 -76q97 1 205 60.5t219 171.5q189 189 401 503t230 531q-1 57 -38 91.5t-99 35.5q-39 0 -82.5 -15.5
t-81.5 -39.5q32 -23 49 -52.5t17 -68.5q-2 -86 -80 -163.5t-215 -82.5zM1575 1422q90 -1 141.5 -61t52.5 -168q-26 -389 -379 -779t-718 -420q-148 3 -253 110.5t-110 293.5q19 347 318 653t651 326q36 0 55 -2.5t29 -7.5q62 28 115.5 41.5t97.5 13.5zM1722 1760
q21 0 33 -10t12 -29q-3 -43 -75 -89t-181 -50q-10 0 -19.5 0.5t-10.5 7.5q1 15 34.5 13.5t88.5 46.5q38 43 57.5 75.5t60.5 34.5z" />
    <glyph glyph-name="Ograve" unicode="&#xd2;" horiz-adv-x="1366" 
d="M1593 1578q-66 1 -137.5 37.5t-77.5 91.5q1 21 15.5 36.5t36.5 16.5q36 -2 48.5 -39.5t49.5 -81.5q35 -31 62 -34t28 -13q0 -9 -7 -11.5t-18 -2.5zM1178 984q-24 0 -39 4t-15 15q0 9 5.5 11.5t13.5 2.5q8 -1 23.5 -6t39.5 -6q82 5 152.5 79.5t75.5 163.5q0 32 -14.5 53.5
t-39.5 34.5q-213 -161 -387 -388t-184 -400q2 -70 34.5 -110.5t76.5 -41.5q35 2 50 16.5t27 16.5q7 0 10 -4.5t3 -7.5q-2 -16 -27 -26.5t-53 -10.5q-79 2 -127 65.5t-49 159.5q8 187 175.5 404t405.5 340q-9 3 -21 4.5t-22 1.5q-43 4 -141 -36.5t-242 -178.5
q-190 -190 -347 -428t-167 -428q3 -121 77.5 -195t180.5 -76q95 1 204 60.5t220 171.5q189 189 401 503t230 531q-1 57 -38 91.5t-99 35.5q-39 0 -82.5 -15.5t-81.5 -39.5q32 -23 49 -52.5t17 -68.5q-2 -86 -80 -163.5t-215 -82.5zM1769 1193q-26 -389 -379 -779t-718 -420
q-148 3 -253 110.5t-110 293.5q19 347 318 653t651 326q36 0 55 -2.5t29 -7.5q62 28 115.5 41.5t97.5 13.5q92 -1 142.5 -61t51.5 -168z" />
    <glyph glyph-name="Otilde" unicode="&#xd5;" horiz-adv-x="1366" 
d="M1530 1715q47 -3 101 -20.5t87 -20.5q39 3 53.5 27t26.5 27q6 0 7 -2t1 -7q-1 -16 -39 -67t-108 -58q-45 2 -99 18.5t-87 18.5q-34 -2 -42 -16.5t-20 -16.5q-5 0 -7.5 3t-2.5 8q1 11 36 55.5t93 50.5zM1178 984q-24 0 -39 4t-15 15q0 9 5.5 11.5t13.5 2.5q8 -1 23.5 -6
t39.5 -6q83 5 153.5 79.5t74.5 163.5q0 32 -14.5 53.5t-39.5 34.5q-213 -161 -387 -388t-184 -400q2 -70 34.5 -110.5t76.5 -41.5q35 2 50 16.5t27 16.5q7 0 10 -4.5t3 -7.5q-2 -16 -27 -26.5t-53 -10.5q-79 2 -127 65.5t-49 159.5q8 187 175.5 404t405.5 340q-9 3 -21 4.5
t-22 1.5q-43 4 -141 -36.5t-242 -178.5q-190 -190 -347 -428.5t-167 -427.5q3 -121 77.5 -195t180.5 -76q97 1 205 60.5t219 171.5q189 189 401 503t230 531q-1 57 -38 91.5t-99 35.5q-39 0 -82.5 -15.5t-81.5 -39.5q32 -23 49 -52.5t17 -68.5q-2 -86 -80 -163.5t-215 -82.5
zM1575 1422q90 -1 141.5 -61t52.5 -168q-26 -389 -379 -779t-718 -420q-147 3 -252.5 110t-110.5 294q19 348 318 653.5t651 325.5q36 0 55 -2.5t29 -7.5q62 28 115.5 41.5t97.5 13.5z" />
    <glyph glyph-name="otilde" unicode="&#xf5;" horiz-adv-x="682" 
d="M496 882q1 11 36 55.5t93 50.5q47 -3 101 -20.5t87 -20.5q38 3 53 26.5t27 26.5q6 0 7 -2t1 -6q-1 -16 -39 -67t-108 -58q-46 2 -100 18.5t-87 18.5q-33 -2 -41.5 -16.5t-19.5 -16.5q-5 0 -7.5 3t-2.5 8zM590 691q-151 -31 -274 -275.5t-130 -336.5q0 -34 21.5 -56
t62.5 -23q143 31 268.5 276t133.5 339q-1 35 -24 55.5t-58 20.5zM586 706q71 0 108 -51t37 -152q-14 -243 -174 -377.5t-291 -137.5q-69 1 -104 54t-35 152q15 239 175 374.5t284 137.5z" />
    <glyph glyph-name="Scaron" unicode="&#x160;" horiz-adv-x="1536" 
d="M1247 1320q163 -7 258 -79t97 -120q0 -6 -3.5 -9t-9.5 -3q-16 1 -19.5 21t-31.5 51q-45 45 -122 69.5t-173 24.5q-103 0 -176 -26t-125 -79q-32 -30 -45.5 -66t-13.5 -106q117 -1 215 -64.5t135 -174.5q8 -1 41 -6t90 -6q56 0 95 4.5t61 13.5q138 242 334.5 476.5
t345.5 252.5q34 0 56 -19t23 -59q-7 -111 -191 -322.5t-466 -328.5q-39 -84 -75 -166t-71.5 -157.5t-76.5 -143.5t-94 -123q-90 -91 -205 -135.5t-266 -45.5q-266 6 -414 139.5t-150 328.5q15 249 208 392t384 146l-2 31q4 124 114 205t273 84zM868 726q47 -1 74.5 -16.5
t28.5 -28.5q0 -5 -2.5 -7.5t-7.5 -2.5q-10 2 -24 17.5t-48 17.5q-68 -3 -161.5 -71t-102.5 -165q0 -61 44.5 -108t139.5 -50q69 1 131 33t119 90q80 81 105.5 151.5t23.5 153.5q-88 26 -147.5 54t-98.5 67q-27 28 -42 54.5t-26 48.5q-141 -5 -335 -161.5t-213 -410.5
q4 -158 117 -254.5t290 -99.5q143 3 254.5 59.5t181.5 128.5q41 45 83 104.5t85 130t84 141.5t82 134q-6 -1 -35 -5t-92 -5q-49 0 -88.5 3t-48.5 3q0 -12 1 -22.5t1 -22.5q-4 -162 -116 -279.5t-283 -123.5q-118 3 -180.5 60.5t-63.5 139.5q6 114 91 177.5t179 64.5z
M895 968q33 -73 102.5 -125t188.5 -76q1 18 -12 50.5t-54 74.5q-37 38 -90.5 57t-134.5 19zM2259 1418q0 29 -17 43.5t-44 14.5q-67 9 -214 -136.5t-354 -547.5q105 39 206 108t189 158q112 113 172.5 211t61.5 149zM2251 1650q-4 73 -32 91t-32 25q1 4 7.5 5.5t13.5 1.5
q41 -1 66.5 -23.5t37.5 -50.5q38 30 90.5 53.5t91.5 24.5q7 0 10 -2.5t3 -6.5q0 -11 -47.5 -21.5t-135.5 -92.5q-38 -40 -51.5 -63t-23.5 -23q-4 0 -5 4.5t-1 7.5q1 10 4.5 29.5t3.5 40.5z" />
    <glyph glyph-name="scaron" unicode="&#x161;" horiz-adv-x="555" 
d="M285 507q80 81 200 168t197 94q22 0 32.5 -10t10.5 -29q-1 -24 -23 -51t-47 -29q-21 3 -34 23.5t-37 23.5q-51 -3 -98 -58t-50 -126q6 -81 48 -148t48 -145q-5 -102 -91 -163.5t-191 -64.5q-77 1 -126.5 37.5t-51.5 114.5q2 67 43 123t98 60q25 0 42.5 -14.5t18.5 -43.5
q-2 -31 -22 -51.5t-37 -21.5q-10 1 -26.5 10t-30.5 10q-28 -2 -46.5 -29.5t-19.5 -60.5q0 -43 33.5 -76t95.5 -35q100 6 148.5 95.5t48.5 189.5q0 26 -3.5 88t-4.5 88q0 47 10.5 86t32.5 66q-97 -74 -143.5 -122t-55.5 -50q-3 0 -4.5 1.5t-1.5 4.5q1 9 12.5 21t24.5 24z
M627 880q-4 73 -32 91t-32 25q0 3 7 5t14 2q41 -1 66.5 -23.5t37.5 -50.5q38 30 90.5 53.5t91.5 24.5q7 0 10 -2.5t3 -6.5q-1 -11 -48.5 -22.5t-134.5 -91.5q-38 -41 -50.5 -63.5t-22.5 -22.5q-3 0 -6 2t-3 6q1 5 4.5 26.5t4.5 47.5z" />
    <glyph glyph-name="Uacute" unicode="&#xda;" horiz-adv-x="1579" 
d="M743 1453q220 -5 329.5 -116t109.5 -263q-1 -128 -66.5 -246t-181.5 -260q-47 -63 -96.5 -125.5t-89 -121t-64.5 -111.5t-25 -102q0 -41 22.5 -68.5t61.5 -28.5q88 8 230 160t293 352q146 197 280.5 401.5t272.5 467.5h8q0 -26 12.5 -36.5t34.5 -10.5q25 0 46.5 13
t41.5 34h10q-102 -181 -213.5 -377.5t-210 -379.5t-160 -325.5t-61.5 -214.5q0 -32 17 -55.5t51 -24.5q27 -1 56.5 23t72.5 84q59 100 77 142.5t31 41.5q8 0 11.5 -4t3.5 -10q-5 -25 -61 -116t-99 -138q-20 -20 -43 -31.5t-51 -12.5q-51 1 -84.5 44.5t-34.5 134.5
q0 100 62.5 264t187.5 406q-337 -484 -520 -670t-263 -179q-62 2 -97 57t-36 153q0 80 22.5 145.5t64.5 128t96.5 129t117.5 148.5q95 126 149.5 233t55.5 189q-2 106 -83 173.5t-214 69.5q-221 -9 -391.5 -163t-179.5 -338q-2 -40 17.5 -87t82.5 -90l-6 66q4 168 109 303
t260 143q86 -2 131 -56.5t45 -131.5q-4 -140 -119 -254t-287 -121q-34 0 -59.5 5.5t-46.5 13.5q15 -54 64.5 -111.5t129.5 -62.5q35 0 56.5 11.5t38.5 29.5q29 33 29.5 58t17.5 26q6 -1 9 -7.5t3 -7.5q0 -36 -39.5 -79.5t-112.5 -47.5q-90 4 -145.5 67t-71.5 130
q-79 44 -128 110.5t-50 165.5q5 184 164 319t405 142zM360 812q1 -30 4.5 -51t4.5 -29q22 -8 41 -13t47 -5q164 9 274.5 134t114.5 253q-1 66 -38.5 102.5t-96.5 36.5q-132 -8 -238.5 -137.5t-112.5 -290.5zM1808 1760q22 0 33.5 -9.5t11.5 -29.5q-3 -43 -75 -89t-181 -50
q-10 0 -19.5 0.5t-10.5 7.5q1 13 34.5 12t88.5 48q38 43 56 75.5t62 34.5z" />
    <glyph glyph-name="Ydieresis" unicode="&#x178;" horiz-adv-x="1792" 
d="M1563 1158q4 117 100 192.5t229 78.5q56 0 116 -11.5t116.5 -31t108 -39t91.5 -33.5q150 98 269.5 145t218.5 47q101 -3 140.5 -41.5t37.5 -81.5q2 -58 -75 -124t-255 -72q-100 1 -193 18.5t-159 38.5q-186 -178 -309 -334.5t-219.5 -301t-198.5 -287t-246 -289.5
q-147 -149 -337.5 -253t-430.5 -109q-217 5 -345.5 105.5t-131.5 248.5q2 105 74.5 180t197.5 78q110 -2 176 -54.5t68 -124.5q0 -34 -23 -66t-67 -34q-28 0 -54 18t-28 52q5 41 36.5 48t35.5 42q-3 42 -47.5 69.5t-98.5 28.5q-98 -5 -153.5 -74t-56.5 -147
q1 -124 118 -230.5t336 -114.5q324 9 570.5 272.5t259.5 684.5q-6 315 -177 512t-432 203q-199 -5 -321.5 -123.5t-126.5 -290.5q1 -73 27 -136t61 -101q59 179 174.5 259t251.5 79q157 -4 235 -80.5t78 -171.5q-1 -113 -99.5 -205.5t-279.5 -97.5q-114 1 -193 36.5
t-151 92.5q3 -170 110 -281t279 -115q97 3 159.5 34.5t90.5 60.5q51 56 59.5 93t22.5 38q6 0 9 -3.5t3 -13.5q0 -49 -86.5 -134.5t-257.5 -94.5q-205 10 -308 136t-103 245v59q-49 62 -76.5 130t-28.5 159q8 236 175.5 384t402.5 153q203 5 386 -150.5t195 -535.5
q1 -227 -80.5 -458.5t-252.5 -399.5q155 116 261.5 271.5t208 334t241 362.5t360.5 354l-4 5q-81 20 -191.5 49t-206.5 32q-108 -1 -185 -52t-81 -144q1 -59 47.5 -104.5t122.5 -47.5q65 4 81.5 29t31.5 29q6 0 8 -3t2 -10q-1 -25 -32.5 -44.5t-84.5 -20.5q-84 1 -139 50
t-57 134zM1720 1750q23 -1 33 -14.5t10 -32.5q-1 -39 -30.5 -74t-69.5 -37q-23 0 -33 14t-10 35q1 34 30.5 70t69.5 39zM1958 1750q23 -1 33 -14.5t10 -32.5q-1 -39 -30.5 -74t-69.5 -37q-23 0 -33 14t-10 35q1 34 30.5 70t69.5 39zM887 1035q-104 6 -223 -63t-179 -279
q62 -51 144.5 -94.5t216.5 -46.5q171 6 253.5 87t82.5 169q-2 95 -83 159.5t-212 67.5zM2810 1488q-92 0 -204.5 -47t-231.5 -139q58 -28 144 -52t192 -26q113 2 184.5 49t73.5 110q-2 55 -49 80t-109 25z" />
    <glyph glyph-name="ydieresis" unicode="&#xff;" 
d="M362 685q-10 0 -27.5 -10.5t-43.5 -36.5q-67 -71 -84.5 -109t-32.5 -38q-4 0 -6 2t-2 8q6 27 73.5 108.5t125.5 91.5q40 -1 60.5 -37.5t20.5 -93.5q-2 -75 -40.5 -150t-90 -143.5t-89.5 -126t-38 -100.5q0 -25 13.5 -36t34.5 -11q30 2 59.5 23t44.5 36q89 92 206 271
t224 373q7 -10 15.5 -14.5t25.5 -4.5q16 1 49.5 6t69.5 6q12 0 20 -2.5t8 -9.5t-8 -8.5t-20 -1.5q-41 0 -55.5 -13t-30.5 -34q-99 -164 -176.5 -315.5t-143 -282t-129 -236t-133.5 -179.5q-70 -70 -156 -108t-189 -39q-127 5 -175 52t-46 85q1 31 18.5 53.5t48.5 22.5
q25 0 42.5 -16t17.5 -42q-1 -19 -15.5 -32t-17.5 -35q1 -25 28.5 -46.5t82.5 -23.5q73 1 128.5 26.5t107.5 79.5q51 56 102.5 130.5t105.5 172t118.5 221t148.5 278.5q-61 -92 -169.5 -241t-206.5 -165q-43 1 -67.5 29.5t-25.5 88.5q0 79 38 155t89.5 144.5t90 127
t40.5 103.5q-1 29 -13 38.5t-26 8.5zM719 951q-2 -36 -31 -70.5t-67 -37.5q-23 0 -32 12.5t-9 34.5q1 40 29.5 74t66.5 36q18 0 30.5 -12t12.5 -37zM961 949q-2 -36 -33 -68t-70 -34q-22 -1 -32.5 9.5t-10.5 37.5q1 35 31.5 68.5t73.5 35.5q18 0 29.5 -11t11.5 -38z" />
    <glyph glyph-name="Thorn" unicode="&#xde;" horiz-adv-x="1878" 
d="M2286 1195q-68 2 -97 31.5t-28 62.5q0 16 7 28t15 13q5 0 8.5 -2.5t3.5 -9.5q-1 -7 -6 -13.5t-6 -17.5q0 -18 21 -36.5t61 -20.5q72 3 167.5 64.5t104.5 142.5q0 31 -23 49t-69 18q-86 4 -256 -75t-344 -291q104 -61 172 -159.5t70 -215.5q-7 -184 -131.5 -292
t-278.5 -110q-62 2 -113.5 31t-54.5 56q0 9 3.5 13.5t11.5 4.5q12 -4 28 -32t78 -32q127 8 239.5 146t119.5 303q1 84 -36.5 149t-121.5 119q-107 -145 -182.5 -280t-135 -255t-118 -220.5t-129.5 -176.5q-73 -75 -198.5 -133t-301.5 -62q-241 3 -386 102t-149 267
q6 153 133 252t310 103h45q-3 13 -5.5 31t-2.5 43q2 187 177.5 321.5t493.5 140.5q151 -1 249.5 -26t172.5 -66q99 99 163 152.5t149 103.5q79 45 164.5 76.5t164.5 32.5q62 0 94.5 -27t32.5 -74q-6 -93 -94.5 -159.5t-191.5 -69.5zM1788 1142q-60 30 -135.5 48t-186.5 19
q-306 -11 -492.5 -170t-197.5 -331q118 -26 179.5 -78.5t78.5 -120.5q128 33 215 131.5t90 198.5q0 55 -31 92t-94 39q-86 -4 -153.5 -68t-71.5 -143q4 -58 34 -62t34 -18q0 -5 -4.5 -8.5t-10.5 -3.5q-19 0 -44.5 26.5t-28.5 81.5q3 79 71.5 142t169.5 67q77 -2 123 -51
t47 -127q-4 -118 -99 -215t-239 -113q-9 -144 -107.5 -204t-182.5 -58q-80 1 -141 37.5t-64 97.5q1 22 10.5 35.5t17.5 13.5q7 0 9 -5t2 -11q-1 -9 -11.5 -16.5t-11.5 -28.5q-1 -20 35.5 -50.5t126.5 -33.5q82 1 144 27t102 67q35 36 44.5 64t8.5 63q-107 1 -176.5 46
t-106.5 128q-187 -3 -327.5 -95t-147.5 -230q2 -116 110.5 -206t293.5 -95q243 7 393.5 147t265.5 326q43 69 92 147t103.5 161t120 169t143.5 168zM782 648q20 -76 73.5 -110.5t119.5 -34.5q24 0 31.5 1t11.5 1q-25 63 -83.5 100t-152.5 43z" />
    <glyph glyph-name="thorn" unicode="&#xfe;" 
d="M1346 1361q-42 6 -53 45t-93 45q-53 1 -110.5 -26.5t-124.5 -94.5q-54 -51 -109 -133t-124.5 -199.5t-160 -276.5t-209.5 -364q84 123 178 230t169 114q45 -2 60.5 -46.5t14.5 -108.5q0 -108 -43 -211.5t-135 -196.5q-75 -75 -135.5 -110t-112.5 -36q-47 1 -72.5 27
t-25.5 72l8 70q-84 -140 -196 -350.5t-186 -353.5h-8q1 21 -7 29.5t-30 7.5q-14 1 -30 -8t-35 -27h-15q243 432 411 743t283.5 522t200.5 344t163 207q99 97 221 149.5t236 53.5q66 0 96.5 -16t30.5 -48q0 -16 -15.5 -34t-41.5 -19zM279 89q0 -39 17 -60.5t52 -21.5
q107 31 239 281t144 348q0 26 -9 35.5t-22 9.5q-88 -21 -245.5 -233.5t-175.5 -358.5z" />
    <glyph glyph-name="smallbullet" unicode="&#x2219;" horiz-adv-x="416" 
d="M152 435q29 -1 49.5 -21t21.5 -48q0 -29 -18 -51t-53 -23q-36 1 -55 23t-19 49q1 27 22.5 48.5t51.5 22.5z" />
    <glyph glyph-name="mu" unicode="&#xb5;" 
d="M367 704q41 -1 57.5 -33t15.5 -78q-2 -62 -40 -142.5t-88 -163.5t-87 -148.5t-37 -94.5q0 -15 10 -25t25 -10q17 0 32.5 8t33.5 27q95 99 218 288t220 372h4q1 -15 9.5 -25t31.5 -10q19 0 36 10t36 25h10q-159 -256 -242 -423.5t-84 -211.5q0 -19 9 -37t34 -19
q10 0 24 5.5t28 19.5q55 61 81.5 119.5t38.5 62.5q7 0 9 -2t2 -6q-3 -19 -41 -79.5t-76 -100.5q-17 -17 -30.5 -24.5t-33.5 -7.5q-42 1 -61.5 31.5t-19.5 82.5q1 62 25 134t56 148q-62 -94 -142 -202t-130 -160q-21 -22 -39.5 -30.5t-38.5 -9.5q-28 2 -38.5 13t-16.5 27
q-61 -113 -146.5 -284.5t-143.5 -292.5h-8q0 16 -6 26.5t-31 10.5q-16 0 -35 -10.5t-33 -24.5h-12q146 275 263 485.5t200 359t127 237.5t46 117q1 13 -3 22t-19 9q-19 -1 -42.5 -17.5t-43.5 -37.5q-43 -44 -65 -77.5t-34 -35.5q-6 0 -8 1t-2 7q3 11 33 47.5t55 61.5
q23 24 49 44.5t58 21.5z" />
    <glyph glyph-name="paragraph" unicode="&#xb6;" horiz-adv-x="1229" 
d="M993 1312h527l-21 -45q-21 2 -93 -7t-106 -51q-22 -41 -74 -145t-140.5 -285.5t-218.5 -453t-310 -647.5h-78l758 1574h-164l-760 -1574h-77l382 794q-175 6 -228 85t-48 153q18 283 234 441t417 161z" />
    <glyph glyph-name="threequarters" unicode="&#xbe;" horiz-adv-x="1194" 
d="M434 816q3 50 64.5 97.5t142.5 50.5q54 -1 88 -25.5t35 -67.5q0 -58 -52.5 -97t-152.5 -79l-2 -6q33 -4 65.5 -29t34.5 -75q-5 -83 -88 -140.5t-180 -60.5q-64 1 -101 27.5t-38 72.5q1 26 15.5 43.5t33.5 18.5q20 0 31.5 -8.5t11.5 -28.5q-3 -36 -26.5 -40.5t-26.5 -20.5
q1 -19 23.5 -30t58.5 -11q71 4 142.5 70.5t76.5 144.5q1 17 -9.5 29.5t-43.5 13.5q-34 -2 -62.5 -17.5t-34.5 -17.5q-7 0 -9.5 5.5t-2.5 10.5q17 16 134 79.5t134 166.5q1 26 -11.5 37.5t-47.5 11.5q-70 -2 -123.5 -39t-56.5 -86q0 -14 6 -21.5t24 -7.5q28 0 53 14t48 38
q34 36 37 52.5t12 16.5q3 0 2.5 -3.5t-0.5 -6.5q-3 -57 -45 -94.5t-92 -38.5q-31 0 -49.5 12.5t-18.5 38.5zM1083 570l113 9q-53 -68 -101 -129.5t-92.5 -118t-85 -104.5t-75.5 -87l6 -4q8 0 19.5 2t39.5 2q31 0 58.5 -3.5t66.5 -4.5q139 189 174.5 243t42.5 48q3 0 4.5 -1
t1.5 -5q2 0 -31.5 -57t-119.5 -226q45 3 74.5 21.5t38.5 21.5q4 0 4 -2v-4q-2 -15 -39.5 -36t-89.5 -23l-56 -111q-42 0 -69 -0.5t-35 -0.5l88 110q-46 1 -69 4.5t-44 3.5q-50 -2 -75 -12.5t-29 -12.5q-6 0 -9 3.5t-3 8.5q0 15 18 39.5t56 74.5t92.5 135t125.5 216z
M1249 964h60l-965 -974h-59z" />
    <glyph glyph-name="minus" unicode="&#x2212;" horiz-adv-x="819" 
d="M342 312h567v-59h-567v59z" />
    <glyph glyph-name="onequarter" unicode="&#xbc;" horiz-adv-x="1194" 
d="M514 800q93 77 136 120t61 44q7 0 9.5 -3t2.5 -8q-8 -39 -106 -222.5t-187 -338.5q-40 0 -73 -3.5t-44 -4.5q33 49 79 116.5t97.5 139.5t96.5 137.5t78 112.5l-5 6q-36 -36 -78 -71.5t-75 -65.5q-52 -41 -118 -90.5t-85 -53.5q-5 0 -7.5 3t-2.5 8q-1 11 51.5 43.5
t169.5 130.5zM1083 570l113 9q-82 -112 -179 -235.5t-175 -203.5l6 -4q8 0 19.5 2t39.5 2q31 0 58.5 -3.5t66.5 -4.5q141 191 175 244.5t42 46.5q3 0 4.5 -1t1.5 -5q2 0 -31.5 -57t-119.5 -226q45 3 74.5 21.5t38.5 21.5q3 0 3.5 -2t0.5 -4q-2 -15 -39.5 -36t-89.5 -23
l-56 -111q-42 0 -69 -0.5t-35 -0.5l88 110q-47 1 -68 4.5t-45 3.5q-50 -2 -75 -12.5t-29 -12.5q-6 0 -9 3.5t-3 8.5q0 15 18 39.5t56 74.5t92.5 135t125.5 216zM1225 964h59l-965 -974h-59z" />
    <glyph glyph-name="onehalf" unicode="&#xbd;" horiz-adv-x="1194" 
d="M956 132q43 -1 61.5 -24.5t18.5 -51.5q0 -20 8 -27t23 -7q22 2 50 24t44 39q27 28 40.5 45.5t23.5 18.5q4 0 5 -3t1 -6q-1 -7 -19 -29t-45 -49q-26 -27 -62.5 -46.5t-72.5 -21.5q-47 3 -62 26.5t-14 39.5q0 20 -7.5 30.5t-22.5 10.5q-17 0 -47.5 -17.5t-65.5 -51.5
q-19 -20 -27.5 -30.5t-19.5 -11.5q-4 1 -6 3t-2 5q2 18 21.5 49.5t39.5 51.5q66 60 174 122t162 110q37 37 60 80t24 84q0 36 -21.5 49t-58.5 12q-81 -3 -140.5 -51t-62.5 -105q0 -26 14 -40.5t38 -14.5q25 1 47 15.5t35 27.5q49 54 61 90t20 37q4 0 4.5 -3t0.5 -9
q-2 -62 -50 -119t-116 -61q-34 0 -54.5 18t-21.5 51q3 73 71 128.5t160 58.5q75 -1 109 -33.5t33 -79.5q-2 -80 -52.5 -128t-125 -83t-153.5 -73t-140 -97l4 -4q22 15 52.5 32.5t63.5 18.5zM547 800q93 77 136 120t60 44q8 0 10.5 -3t2.5 -8q-8 -39 -106.5 -222.5
t-186.5 -338.5q-54 0 -82 -3.5t-35 -4.5q33 49 79 116.5t97 139.5t96.5 137.5t77.5 112.5l-4 6q-36 -36 -78 -71.5t-75 -65.5q-51 -41 -116.5 -90.5t-86.5 -53.5q-5 0 -7.5 3t-2.5 8q-1 11 51.5 43.5t169.5 130.5zM1225 964h59l-965 -974h-59z" />
    <glyph glyph-name="ordfeminine" unicode="&#xaa;" horiz-adv-x="512" 
d="M666 1175q-68 -97 -135.5 -179.5t-114.5 -87.5q-30 1 -41 29.5t-10 65.5q10 180 121.5 293.5t209.5 117.5q34 -1 41 -25t6 -53l52 90h8l-2 -10q0 -8 5.5 -12t14.5 -4q21 1 35 9.5t25 16.5l12 -4q-59 -83 -148 -250t-98 -225q0 -15 5.5 -21.5t19.5 -6.5q45 11 89.5 85
t57.5 85q5 0 7.5 -2t2.5 -7q-4 -18 -39.5 -69.5t-52.5 -69.5q-13 -14 -29 -25t-38 -12q-26 0 -37.5 22.5t-11.5 63.5q2 60 18 105.5t27 79.5zM700 1398q-75 -23 -184.5 -201.5t-120.5 -243.5q0 -14 6 -21t17 -7q61 18 178.5 180t130.5 256q0 18 -7 27.5t-20 9.5z" />
    <glyph glyph-name="ordmasculine" unicode="&#xba;" horiz-adv-x="512" 
d="M745 1418q63 -3 84 -49.5t19 -103.5q-10 -159 -121.5 -259.5t-208.5 -103.5q-63 2 -85 47.5t-21 104.5q10 165 122.5 263.5t210.5 100.5zM518 919q97 20 186 188t95 248q-1 21 -17.5 35t-40.5 14q-96 -21 -185 -192t-95 -242q0 -25 15 -38t42 -13z" />
    <glyph glyph-name="guillemotleft" unicode="&#xab;" horiz-adv-x="555" 
d="M416 568q7 0 9.5 -4t2.5 -12q1 -14 -36.5 -73.5t-131.5 -104.5q19 -17 40.5 -48t23.5 -75q-3 -55 -32 -98t-48 -45q-8 0 -10.5 3.5t-2.5 8.5q3 14 21.5 32.5t21.5 65.5q-1 35 -14 58.5t-27 35.5q-40 38 -60.5 45.5t-20.5 20.5q0 8 4 12t14 4q27 0 77.5 21t92.5 61
q40 44 50 68t26 24zM426 99q-6 0 -9 2.5t-3 6.5q3 15 20.5 34.5t20.5 67.5q-7 71 -53.5 105.5t-53.5 45.5q2 18 51.5 29.5t124.5 79.5q42 44 53.5 65t22.5 21q7 0 9.5 -4t2.5 -12q0 -19 -40.5 -72.5t-122.5 -103.5v-5q32 -32 45.5 -59t13.5 -59q-3 -55 -32.5 -97.5
t-49.5 -44.5z" />
    <glyph glyph-name="guilsinglleft" unicode="&#x2039;" horiz-adv-x="383" 
d="M231 124q3 8 20.5 24.5t20.5 69.5q-8 84 -61 113.5t-61 44.5q2 19 56.5 24.5t137.5 79.5q33 36 44 60.5t22 25.5q10 0 13 -6t3 -12q-2 -21 -25 -55t-45 -56q-23 -23 -45 -36t-51 -29q19 -16 39.5 -47t22.5 -80q-4 -61 -34.5 -98.5t-41.5 -38.5q-7 1 -11 6.5t-4 9.5z" />
    <glyph glyph-name="guillemotright" unicode="&#xbb;" horiz-adv-x="555" 
d="M227 132q-1 15 36.5 74.5t131.5 105.5q-20 19 -40.5 50t-22.5 75q3 49 31.5 93t50.5 47q7 0 9.5 -4t2.5 -9q-3 -14 -22.5 -31.5t-22.5 -64.5q1 -35 15.5 -60.5t27.5 -37.5q38 -36 59 -43.5t21 -20.5q-3 -19 -57.5 -25t-131.5 -73q-40 -43 -49 -66.5t-24 -23.5
q-7 0 -11 3.5t-4 10.5zM242 577q-3 -15 -20.5 -33.5t-20.5 -65.5q7 -74 54 -109t54 -46q-1 -18 -47.5 -25t-130.5 -84q-40 -43 -50 -63.5t-26 -20.5q-7 0 -9.5 4t-2.5 12q2 25 48.5 80t119.5 97q-35 34 -49.5 61.5t-14.5 58.5q3 55 33.5 98.5t50.5 45.5q8 0 9.5 -2.5
t1.5 -7.5z" />
    <glyph glyph-name="plusminus" unicode="&#xb1;" horiz-adv-x="819" 
d="M655 566v-205h254v-59h-254v-205h-59v205h-254v59h254v205h59zM342 58h567v-58h-567v58z" />
    <glyph glyph-name="guilsinglright" unicode="&#x203a;" horiz-adv-x="383" 
d="M242 577q9 0 10.5 -4t1.5 -9q-3 -12 -21.5 -34.5t-21.5 -61.5q8 -84 61.5 -114.5t61.5 -47.5q-4 -19 -63 -28.5t-121 -63.5q-43 -46 -53.5 -71t-26.5 -25q-5 0 -9 5t-4 11q3 32 52.5 89.5t113.5 86.5v4q-27 25 -43.5 52.5t-17.5 70.5q3 57 31.5 97.5t48.5 42.5z" />
    <glyph glyph-name="Delta" unicode="&#x2206;" horiz-adv-x="1425" 
d="M733 1431l651 -1431h-1335l651 1431h33zM647 1099l-450 -1008h905z" />
    <glyph glyph-name="partialdiff" unicode="&#x2202;" horiz-adv-x="1020" 
d="M414 1078q-34 0 -54 15.5t-20 46.5q2 60 58 102.5t147 44.5q150 -1 247.5 -138t100.5 -402q-3 -317 -126 -539t-329 -233q-137 4 -219 102t-84 260q3 194 103.5 310.5t257.5 119.5q88 1 144.5 -42t92.5 -146q16 59 22.5 138.5t6.5 164.5q0 169 -33 254.5t-98 85.5
q-53 -9 -101 -72t-116 -72zM524 710q-101 -1 -171.5 -117.5t-73.5 -341.5q3 -136 55 -188t117 -50q123 6 186 137.5t63 321.5q-1 109 -48 173t-128 65z" />
    <glyph glyph-name="notequal" unicode="&#x2260;" horiz-adv-x="1700" 
d="M823 472h619v-131h-705l-245 -315l-107 82l188 233h-319v131h401l209 262h-610v131h700l246 316l98 -78l-180 -238h324v-131h-414z" />
    <glyph glyph-name="periodcentered" unicode="&#xb7;" horiz-adv-x="1028" 
d="M512 550q-51 2 -88 39t-39 88q2 51 39 88t88 39q51 -2 88 -39t39 -88q-2 -51 -39 -88t-88 -39z" />
    <glyph glyph-name="bullet" unicode="&#x2022;" horiz-adv-x="1204" 
d="M598 1046q134 -5 213.5 -92.5t81.5 -202.5q-2 -115 -81.5 -201t-213.5 -90q-131 4 -210 90t-81 201q2 115 81 202.5t210 92.5z" />
    <glyph glyph-name="integral" unicode="&#x222b;" horiz-adv-x="1020" 
d="M717 1435q-81 -14 -103.5 -269.5t-19.5 -582.5q2 -425 -86 -684.5t-295 -267.5q-81 2 -124.5 40t-43.5 100q0 47 26 71t72 23q80 -7 88.5 -64.5t63.5 -66.5q83 11 104.5 253.5t18.5 599.5q-2 411 86 676t295 274q80 -1 123.5 -38.5t44.5 -100.5q0 -46 -26 -68t-73 -22
q-79 8 -87.5 63.5t-63.5 63.5z" />
    <glyph glyph-name="quotesinglbase" unicode="&#x201a;" horiz-adv-x="508" 
d="M119 95q0 45 29.5 77.5t93.5 33.5q60 1 108 -42t51 -138q1 -102 -65 -191.5t-209 -170.5l-25 29q89 59 154 126.5t68 143.5q0 25 -10 32t-31 6q-13 0 -27.5 -0.5t-30.5 -0.5q-47 0 -76 22t-30 73z" />
    <glyph glyph-name="breve" unicode="&#x2d8;" horiz-adv-x="1020" 
d="M262 1402q29 -92 94.5 -117t147.5 -22q81 -3 146.5 22t94.5 117h46q-12 -110 -82.5 -186.5t-204.5 -79.5q-135 3 -205 79.5t-82 186.5h45z" />
    <glyph glyph-name="caron" unicode="&#x2c7;" horiz-adv-x="1020" 
d="M221 1439h58l233 -213l229 213h58l-230 -344h-118z" />
    <glyph glyph-name="dotaccent" unicode="&#x2d9;" horiz-adv-x="1020" 
d="M512 1140q-44 1 -74.5 31.5t-31.5 74.5q1 45 31.5 75.5t74.5 31.5q44 -1 74.5 -31.5t31.5 -75.5q-1 -44 -31.5 -74.5t-74.5 -31.5z" />
    <glyph glyph-name="lozenge" unicode="&#x25ca;" horiz-adv-x="2040" 
d="M434 673l578 737l590 -733l-590 -734zM1016 1230l-438 -553l438 -553l446 553z" />
    <glyph glyph-name="fraction" unicode="&#x2215;" horiz-adv-x="340" 
d="M676 1435l-923 -1460h-90l923 1460h90z" />
    <glyph glyph-name="product" unicode="&#x220f;" horiz-adv-x="1700" 
d="M66 1549h1564v-82h-180v-1868h180v-82h-536v82h168v1868h-828v-1868h168v-82h-536v82h180v1868h-180v82z" />
    <glyph glyph-name="afii10018" unicode="&#x411;" horiz-adv-x="2077" 
d="M1098 134q128 95 210 226q42 67 73.5 124.5t54.5 108.5q43 78 72 132q-27 -5 -52 -13q-52 -16 -95.5 -36.5t-75.5 -44t-50 -45.5q-17 -21 -28.5 -40t-11.5 -41q0 -35 19.5 -53.5t50.5 -13.5q28 7 34 45q3 1 8 1q10 0 10 -11q0 -2 -2 -10q-5 -42 -48 -48q-38 -6 -62.5 20
t-24.5 68q0 47 34 87q26 31 62.5 57.5t79 48t89.5 36.5q38 12 77 19q13 25 26 48q15 28 30 53q30 51 63.5 94t76.5 85q63 64 136 104.5t161 41.5q37 0 65 -6.5t29 -20.5q0 -12 -16 -12q-11 1 -34.5 10t-53.5 10q-49 0 -108.5 -29t-114.5 -83q-75 -78 -127 -181
q-26 -53 -49 -108q33 1 66 0q64 -1 121 -13.5t105 -36.5t82.5 -63.5t54 -97t19.5 -135.5q0 -173 -134 -299q-129 -122 -289 -122q-77 0 -131 45q-58 49 -58 132q1 65 19.5 119.5t56.5 99.5q74 89 191 89q40 0 64 -14q6 -3 4 -12q0 -11 -8 -9q-8 0 -24 9q-13 8 -24 8
q-97 0 -175 -94q-42 -54 -63.5 -103t-21.5 -97q0 -27 9 -50.5t26 -42.5q36 -41 85 -41q73 0 150 49q37 24 66 53t51 64q109 169 109 321q0 73 -47 129q-42 53 -108 71q-59 18 -119 22q-43 3 -84 0q-17 -44 -32 -90l-11 -24q-23 -58 -42.5 -115t-40.5 -112t-47.5 -107
t-63 -99t-86.5 -88.5t-119 -74.5l-22 -6q-32 -12 -64 -22t-68 -17.5t-76 -12t-87 -5.5q-274 6 -442 141q-169 137 -173 348q7 217 153 339q147 123 331 124q174 -5 280 -99q108 -95 111 -229q-2 -131 -87 -219q-83 -87 -220 -92q-105 1 -176 57q-69 55 -72 145q1 71 52 118
q51 46 128 48q18 0 30 -3t13 -13q0 -13 -18 -13l-41 7q-55 -2 -99 -41t-47 -107q0 -58 48 -104q47 -46 141 -49q130 4 223 90q93 85 98 202q-2 98 -82 171q-80 72 -229 77q-186 -5 -339 -125q-154 -121 -163 -311q1 -164 132 -289q130 -123 360 -129q97 0 177 28t152 83z
M2415 1533q125 0 205 -46q82 -46 85 -132q-4 -97 -95 -154q-88 -55 -206 -57q-56 0 -128 17.5t-152 43t-165 55t-168.5 54.5t-161.5 41.5t-144 15.5q-54 -2 -76 -7q-12 -2 -23 -4t-22 -3l-4 -4q30 -29 54 -59t41 -65.5t26.5 -76.5t9.5 -90q1 -97 -48 -190q-50 -92 -155 -99
q-86 2 -145 70q-59 69 -60 178q1 60 17.5 111t45.5 93t69 76t90 60l-2 4q-43 25 -89.5 42.5t-109.5 18.5q-133 -4 -194 -70q-59 -66 -58 -130q5 -62 29 -78q26 -17 30 -31q0 -6 -4.5 -9t-9.5 -3q-17 2 -39 34q-23 34 -24 87q1 94 72 154q72 61 198 63q37 0 68.5 -5.5t59 -15
t52.5 -22t49 -27.5q53 20 103 30q53 11 141 11q99 1 190.5 -11t175.5 -30.5t161.5 -41t148.5 -42t136.5 -32.5t125.5 -13q86 2 125.5 35.5t38.5 81.5q-2 73 -75 114q-72 40 -185 42q-61 0 -110 -12.5t-73 -35.5q-19 -23 -20 -36q-2 -14 -18 -15q-19 0 -19 19q-1 29 56 61
q59 32 180 35zM1104 1021q0 -76 44 -150q45 -73 136 -77q70 1 116 70t48 186q1 93 -26 164t-89 133q-54 -23 -96.5 -56.5t-71.5 -75.5t-45 -91t-16 -103z" />
    <glyph glyph-name="afii10019" unicode="&#x412;" horiz-adv-x="1962" 
d="M633 437q-7 0 -13 2t-18 2q-19 0 -43.5 -18.5t-26.5 -58.5q0 -45 44.5 -81t136.5 -38q130 4 208 66.5t80 140.5q-2 78 -79 130t-211 54q-165 -2 -313 -92.5t-158 -243.5q2 -109 106 -191.5t287 -86.5q188 4 329.5 114.5t263.5 283.5t252 365.5t298 364.5q27 27 81.5 76
t69.5 63q-77 52 -179.5 77.5t-205.5 25.5q-305 -11 -494.5 -171.5t-195.5 -340.5q3 -86 64.5 -139t144.5 -54q129 10 234.5 124.5t111.5 219.5q-1 59 -35 89t-86 30q-67 -2 -117 -45.5t-53 -101.5q1 -19 6 -28.5t6 -21.5q0 -6 -3 -9t-9 -3q-10 0 -15 14t-5 37q4 80 63 126.5
t131 47.5q95 -6 127.5 -67.5t30.5 -112.5q-3 -120 -100.5 -216t-257.5 -101q-136 4 -216.5 86.5t-82.5 199.5q0 173 173 317.5t523 153.5q152 -1 266 -36.5t197 -87.5h2q115 87 238 143.5t231 58.5q60 1 100 -25.5t41 -86.5q-4 -91 -88 -160.5t-201 -73.5q-44 0 -77 18.5
t-35 55.5q0 16 7.5 27t16.5 12q11 0 13 -3.5t2 -8.5q-1 -10 -7.5 -13.5t-7.5 -19.5q2 -24 23 -32t39 -7q77 5 176 75.5t108 145.5q-1 38 -30 57t-78 19q-100 -2 -216 -60.5t-216 -148.5q51 -34 93 -95t44 -149q-7 -157 -125.5 -245.5t-269.5 -90.5l-17 -4q129 -36 185 -111
t55 -163q-7 -154 -131 -283.5t-285 -137.5q-88 2 -135.5 50.5t-48.5 126.5q3 104 82 201t202 104q32 0 49 -6.5t17 -17.5q0 -5 -2.5 -9t-9.5 -4q-7 1 -24.5 8.5t-39.5 8.5q-86 -9 -164.5 -113t-83.5 -196q0 -49 28 -87t85 -40q140 16 244.5 181.5t109.5 293.5
q4 55 -35.5 116t-164.5 66q-31 -1 -42 2.5t-10 17.5q1 17 12.5 32t22.5 16q14 -2 27.5 -17.5t54.5 -17.5q121 8 215 127.5t99 259.5q0 45 -16.5 85.5t-45.5 69.5q-81 -71 -151.5 -163t-163.5 -232q-123 -188 -221.5 -347t-200 -275.5t-227 -180.5t-302.5 -66
q-237 5 -362.5 99t-126.5 234q7 171 141.5 268.5t311.5 99.5q154 -1 254 -67t104 -179q-1 -86 -75.5 -158t-215.5 -77q-103 2 -158.5 45.5t-56.5 103.5q1 45 30.5 75.5t78.5 31.5q10 0 18 -2.5t8 -9.5q0 -8 -4 -12.5t-14 -4.5z" />
    <glyph glyph-name="afii10020" unicode="&#x413;" horiz-adv-x="1622" 
d="M2415 1533q61 0 113.5 -12t91.5 -34.5t61 -55.5t24 -76q-2 -49 -28 -87.5t-67 -66t-94.5 -42t-111.5 -15.5q-56 0 -128 17.5t-152 42.5t-165 54.5t-168.5 54.5t-161.5 41.5t-144 16.5q-27 -1 -45 -3t-31 -4t-23 -4t-22 -3l-4 -4q30 -29 54 -60t41.5 -66.5t26.5 -77.5
t9 -93q0 -45 -11.5 -93.5t-36.5 -89.5t-63 -68.5t-92 -31.5q-43 1 -80 19.5t-64.5 51.5t-43.5 78t-17 99q1 60 17.5 111t45.5 93t69 76t90 60l-2 4q-43 25 -89.5 42.5t-109.5 18.5q-68 -2 -116 -22t-78 -49t-44 -63.5t-14 -65.5q2 -33 10.5 -50.5t18.5 -28t18.5 -16
t11.5 -14.5q0 -6 -4.5 -9t-9.5 -3q-9 1 -19.5 10t-20 25t-16 38t-7.5 48q1 48 20 87.5t54 68t84.5 44.5t111.5 17q37 0 68.5 -5.5t59 -15t52.5 -22t49 -27.5q29 11 54 18.5t54 12.5t65.5 7.5t87.5 2.5q97 0 186.5 -12.5t172 -31.5t158.5 -41t145.5 -40.5t134 -31.5
t124.5 -13q87 2 125.5 35.5t38.5 81.5q0 36 -20 65t-55 49t-82.5 31t-102.5 11q-42 0 -78 -6t-63 -17t-43.5 -26.5t-18.5 -34.5q-2 -14 -18 -15q-19 0 -19 20q0 15 14.5 31t44 29.5t73.5 23t104 11.5zM1104 1021q0 -37 10.5 -76t32.5 -72t56 -55t81 -24q36 1 66 20t52 53
t34 82t12 106q0 91 -27 160.5t-88 131.5q-54 -23 -96.5 -56.5t-71.5 -75.5t-45 -91t-16 -103zM1081 120q145 109 227 240q10 15 27.5 46.5t39 70.5t44.5 81.5t43 80t34.5 65.5t20.5 39q15 29 30.5 56.5t30.5 52.5q30 51 63.5 94t76.5 85q64 63 136.5 104.5t160.5 41.5
q37 0 65 -6.5t29 -20.5q0 -12 -16 -12q-11 1 -34.5 10.5t-53.5 9.5q-49 0 -108.5 -29t-114.5 -83q-38 -38 -69 -84t-57.5 -97t-48 -106t-40.5 -111l-11 -24q-23 -58 -42.5 -115t-40.5 -112t-47.5 -107t-63 -99t-86.5 -88.5t-119 -74.5l-22 -6q-32 -12 -64 -22t-68 -17.5
t-76 -12t-87 -5.5q-137 3 -249.5 40.5t-193 102t-125.5 153t-47 193.5q7 217 153 339q147 123 331 124q86 -2 157.5 -29t123 -71t80 -103t30.5 -125q-1 -65 -23.5 -120.5t-62.5 -97t-96.5 -66.5t-124.5 -27q-53 1 -97.5 15.5t-77.5 41t-52.5 63.5t-20.5 82q1 36 15 66
t38 52.5t56.5 35t70.5 12.5q18 0 30 -3t13 -13q0 -13 -18 -13l-41 7q-26 -1 -51.5 -11t-46 -29t-34 -46.5t-14.5 -61.5q0 -29 12 -55.5t35.5 -48t59 -35t82.5 -14.5q65 2 122.5 26.5t101 64.5t69.5 92t28 109q-1 48 -21.5 92t-60 78t-97 55t-132.5 23q-186 -5 -339 -125
q-154 -121 -163 -311q1 -81 34.5 -155.5t96.5 -132t154 -92.5t207 -38q97 0 177 28t152 83z" />
    <glyph glyph-name="afii10021" unicode="&#x414;" horiz-adv-x="1706" 
d="M1679 697q1 66 -11.5 122t-47.5 126h-2q-45 -57 -100.5 -130t-118 -155.5t-132 -165.5t-143.5 -159q-70 -71 -133 -118.5t-160 -106.5q61 -17 140.5 -41.5t183.5 -26.5q237 9 378.5 198.5t145.5 456.5zM1573 1082q240 237 443.5 315t328.5 72q73 0 125.5 -14.5
t54.5 -42.5q-1 -17 -19 -29.5t-34 -13.5q-32 5 -42.5 38t-92.5 38q-189 -9 -380.5 -155.5t-318.5 -321.5q40 -69 65 -151t26 -204q-1 -243 -140 -426t-405 -193q-123 4 -225 35.5t-168 57.5q-84 -34 -185 -64t-225 -33q-79 2 -109.5 22.5t-29.5 52.5q3 56 63.5 89.5
t145.5 34.5q88 -2 180 -24.5t151 -42.5h2q29 20 63.5 44.5t74.5 63.5q67 70 145 178.5t162 230.5t168 233.5t162 189.5q-11 11 -25.5 27.5t-36.5 37.5q-91 91 -233 148t-310 59q-274 -5 -466 -148t-201 -358q0 -117 72 -193t212 -79q175 8 298 121t128 242q0 61 -44 109.5
t-132 51.5q-90 -3 -163.5 -64.5t-77.5 -144.5q3 -48 26.5 -56t26.5 -21q0 -5 -2 -7t-8 -2q-27 2 -44 33t-18 64q4 95 82 153t178 60q108 -3 163.5 -68t55.5 -149q-3 -131 -119.5 -240.5t-304.5 -116.5q-178 4 -276.5 106.5t-99.5 248.5q-1 190 160 354.5t495 175.5
q258 -7 431.5 -109.5t246.5 -214.5zM459 167q-94 -2 -143.5 -32t-49.5 -66q0 -29 31 -45.5t88 -16.5q125 2 210.5 32.5t145.5 61.5q-65 26 -138 45.5t-144 20.5z" />
    <glyph glyph-name="afii10022" unicode="&#x415;" horiz-adv-x="1280" 
d="M1688 1269q-1 65 -65 109t-181 46q-215 -10 -377 -146.5t-170 -283.5q1 -53 21.5 -78.5t44.5 -44.5q10 0 45.5 3.5t99.5 3.5q107 0 171 -14.5t66 -39.5q2 -11 -18.5 -22t-83.5 -12q-135 4 -198 28.5t-87 28.5q-291 -41 -464 -264t-177 -408q1 -124 83 -203t237 -83
q249 20 419 221.5t177 351.5q1 65 -41.5 111.5t-134.5 48.5q-170 -11 -283 -144t-117 -250q0 -54 29.5 -92.5t89.5 -40.5q31 0 58.5 12.5t48.5 32.5q36 41 41 65t18 25q7 0 9.5 -3t2.5 -9q-1 -30 -48 -81.5t-124 -57.5q-72 1 -121 49.5t-51 130.5q9 152 143 263.5t291 117.5
q114 -2 180.5 -71t67.5 -183q-4 -162 -170.5 -333t-453.5 -186q-210 6 -332 127.5t-125 295.5q-1 201 176 368.5t543 210.5q-63 52 -93 108t-30 126q1 140 143.5 245.5t407.5 110.5q205 -4 283.5 -72.5t74.5 -146.5q-3 -109 -98 -182t-250 -76q-114 3 -170.5 45.5
t-56.5 95.5q3 65 60 104t138 40q44 0 67 -8.5t23 -22.5q0 -5 -3.5 -7.5t-8.5 -2.5q-10 2 -28.5 12.5t-55.5 11.5q-72 -1 -119 -35t-49 -86q-1 -38 35.5 -67t118.5 -31q127 2 245 68.5t126 169.5z" />
    <glyph glyph-name="afii10024" unicode="&#x416;" horiz-adv-x="2699" 
d="M1851 286q0 -79 16 -131t47 -83.5t76 -44.5t104 -13q146 0 299 163q88 94 137.5 193.5t49.5 197.5q0 47 -24.5 74t-77.5 27q-39 0 -93 -29t-120 -92q-85 -75 -133 -158.5t-48 -171.5q0 -11 2.5 -23.5t7 -24.5t9.5 -22t10 -16q0 -3 -4 -5.5t-9 -2.5q-7 0 -11 5
q-35 35 -53 72.5t-18 79.5q0 25 13.5 61.5t37 77t56.5 81.5t72.5 76.5t83.5 62t91 37.5q36 11 64 17t49 6q38 0 71 -17t58 -46.5t39 -70.5t14 -89q0 -84 -43.5 -168t-125.5 -169q-160 -159 -364 -159q-108 0 -184.5 22.5t-124.5 63t-70 96.5t-22 123q0 81 29 174
q15 49 35 98l-28 -40q-66 -94 -128.5 -175t-129 -151.5t-149.5 -135.5q-65 -51 -130 -51q-34 0 -48 8t-14 24q0 22 19 22q1 -2 4 -7t9.5 -10t16 -8.5t23.5 -3.5q39 0 82 39t88 111.5t91.5 175t91.5 229.5q19 51 38 102.5t36 98t30.5 83t21.5 57.5q41 109 93.5 209t118.5 194
q-8 -7 -18.5 -17t-28.5 -30.5t-45.5 -54.5t-68 -88.5t-96.5 -132.5q-51 -72 -119 -169q-2 -11 -5 -24q-15 -60 -45 -134.5t-82 -162.5q-45 -71 -94.5 -129.5t-100.5 -107t-103 -87t-102 -67.5q-101 -59 -195.5 -86t-188.5 -27q-99 1 -182 26t-143.5 70.5t-95.5 110.5
t-37 147q1 66 24.5 121t64 95t96 62.5t121.5 24.5q42 0 83.5 -10.5t75.5 -30.5t56 -48.5t24 -65.5q-1 -35 -20.5 -58t-51.5 -23q-22 0 -40 16t-19 40q1 12 6 22.5t10.5 20.5t10.5 20t6 22q-1 14 -11.5 27t-27 23t-38.5 16t-45 7q-57 -2 -105 -25.5t-84 -63.5t-57 -93
t-22 -115q1 -64 24.5 -120.5t68 -99t109 -67t147.5 -24.5q72 0 139.5 17t131.5 49q65 33 130 88t131 131q42 46 74.5 88t56.5 79q25 38 50.5 81.5t52.5 96.5q63 125 98 243t35 219q0 70 -16.5 128.5t-52 102t-92 71t-136.5 35.5q-212 -17 -339 -192q-125 -174 -128 -328
q0 -40 11 -76t33.5 -63.5t56.5 -44.5t80 -18q150 10 254 151q104 139 107 257q0 48 -25 82.5t-77 36.5q-44 -4 -83 -29t-68.5 -60t-47 -73t-18.5 -67q1 -15 3.5 -23.5t5.5 -13t5.5 -7t3.5 -6.5q0 -6 -10 -6q-15 1 -22.5 19t-7.5 41q2 42 22 84.5t53 76.5t75.5 56t89.5 24
q33 -1 58.5 -14t43 -35.5t26.5 -53t9 -66.5q-3 -73 -34 -142t-82 -124t-119 -89.5t-144 -38.5q-60 2 -106.5 27t-78.5 66t-48.5 96t-17.5 117q3 105 45 189.5t109.5 143.5t155 91.5t183.5 34.5q93 -2 169 -33.5t129.5 -88.5t82.5 -137.5t29 -178.5v-48q0 -35 -4 -83
q-1 -14 -3 -29q41 59 78 111q66 94 128.5 175t129 151.5t149.5 135.5q32 26 65 38.5t65 12.5q34 0 48 -8t14 -24q0 -22 -19 -22q-1 2 -4 7t-9.5 10t-16 8.5t-23.5 3.5q-155 0 -337 -509q-3 -8 -17.5 -48t-35 -96t-44.5 -121t-45 -122q-41 -109 -93.5 -209t-118.5 -194
q8 6 18.5 16.5t28.5 31t45.5 54.5t68 88.5t95.5 132.5q55 77 129 182q42 74 94 149q70 98 150.5 188.5t169.5 169t178 137.5q110 72 207.5 104.5t183.5 32.5q82 0 129.5 -21t47.5 -71q0 -11 -4.5 -23.5t-13.5 -23.5t-22.5 -18.5t-31.5 -8.5q-25 1 -38 14t-13 31q0 10 2 20
t2 15q-1 14 -10 24.5t-23 17t-32 10t-37 3.5q-45 -2 -85.5 -9.5t-85 -26.5t-95.5 -51t-116 -82q-92 -70 -167.5 -151.5t-136.5 -169t-107 -178t-79.5 -177.5t-53.5 -167.5t-29 -149.5z" />
    <glyph glyph-name="afii10025" unicode="&#x417;" horiz-adv-x="1189" 
d="M954 752q-15 0 -32 -2t-34 -7q-11 -3 -23.5 -7t-26.5 -9q-31 3 -38 30q-7 23 5.5 36t40.5 21q12 3 25.5 1.5t28.5 -6t32 -10.5t38 -10q19 7 34 13.5t31 17.5t34.5 28t43.5 44q75 81 111.5 174t33.5 194q-1 51 -18 95.5t-48.5 77.5t-78 50.5t-106.5 13.5q-66 -4 -120 -33
t-92 -69.5t-58 -87t-19 -85.5q1 -38 16 -72.5t41.5 -60t61.5 -40t77 -11.5q41 2 74 20t56.5 43t35.5 51.5t12 46.5q0 15 -7 30t-19.5 26.5t-30.5 17.5t-40 5q-17 0 -28 -3t-16 -3q-3 0 -3 4q0 11 15 18t29 8q24 1 45.5 -6t38.5 -20t27 -31t11 -38q0 -29 -18.5 -63.5t-52 -66
t-80 -54t-102.5 -26.5q-50 -3 -89.5 9.5t-67.5 35t-43 52.5t-16 62q-5 104 100 216q22 26 54 51t69.5 45.5t80 34t86.5 16.5q66 4 127.5 -13t109.5 -51.5t77.5 -85.5t31.5 -114q3 -81 -29 -157t-86 -140t-124.5 -113t-146.5 -75q32 -25 63.5 -60t57 -78.5t41.5 -95.5
t18 -111q3 -107 -39 -191.5t-114 -144.5t-167.5 -94.5t-198.5 -40.5q-115 -7 -210.5 14.5t-164.5 70.5t-108 125t-41 177q-3 75 26.5 138.5t81 110t121 74.5t147.5 33q72 4 130.5 -10.5t100.5 -44.5t65 -73t25 -95q1 -53 -17.5 -102t-52 -87.5t-78.5 -63t-95 -27.5
q-36 -2 -69 7.5t-58.5 28.5t-41 46t-16.5 60q-1 16 5 33.5t15.5 32.5t22.5 24.5t26 10.5q18 2 31 -13q-1 -7 -1.5 -11t-5.5 -7l2 1q-5 3 -35 2q-45 -3 -43 -77q0 -24 11 -42t28 -30t38.5 -18t43.5 -5q53 3 101 24t85 55t58 77.5t20 93.5q-2 43 -20.5 77.5t-50 58.5t-74 36.5
t-91.5 9.5q-73 -5 -143 -40t-124 -90.5t-86 -126.5t-30 -146q4 -148 148 -226q121 -61 251 -54q275 17 457 317q66 105 63 214q-2 42 -13.5 79.5t-31.5 68.5t-46.5 53.5t-57.5 33.5z" />
    <glyph glyph-name="afii10026" unicode="&#x418;" horiz-adv-x="1579" 
d="M743 1453q220 -6 329.5 -118t109.5 -261q-2 -129 -70.5 -250t-177.5 -256q-47 -61 -96.5 -123.5t-89 -121t-64.5 -112.5t-25 -103q0 -41 22.5 -68.5t61.5 -28.5q85 8 229.5 160.5t295.5 351.5q146 197 280 401.5t271 467.5h8q0 -26 12.5 -36.5t34.5 -10.5q25 0 46.5 13
t41.5 34h10q-102 -181 -213.5 -376.5t-210 -378.5t-160 -326.5t-61.5 -215.5q0 -32 16.5 -55.5t51.5 -24.5q27 -1 56.5 23t72.5 84q59 100 77 142.5t31 41.5q8 0 11.5 -4t3.5 -10q-5 -25 -61 -116t-99 -138q-20 -20 -43 -31.5t-51 -12.5q-51 1 -84.5 44.5t-34.5 134.5
q0 100 62.5 264t187.5 406q-337 -484 -520 -670t-263 -179q-62 2 -97 57t-36 153q0 80 22.5 145.5t64.5 128t96.5 129t117.5 148.5q95 126 149.5 233t55.5 189q-2 106 -84 173.5t-213 69.5q-219 -9 -390.5 -163t-180.5 -338q-2 -40 17.5 -87t82.5 -90q-2 14 -4 31t-2 43
q5 166 111.5 298t257.5 140q86 -2 131 -56.5t45 -131.5q-4 -140 -119 -254t-287 -121q-34 0 -60.5 5.5t-45.5 13.5q15 -54 64.5 -111.5t129.5 -62.5q26 0 50 9t42 27q29 34 31 60.5t19 28.5q6 0 9 -5t3 -10q1 -25 -35 -73t-117 -54q-92 4 -146.5 67t-70.5 130
q-79 44 -128 110.5t-50 165.5q5 184 164 319t405 142zM358 812q1 -35 5.5 -54t5.5 -26q15 -5 35.5 -11t52.5 -7q164 9 274.5 133.5t114.5 253.5q-1 66 -38.5 102.5t-96.5 36.5q-132 -8 -239.5 -137.5t-113.5 -290.5z" />
    <glyph glyph-name="afii10027" unicode="&#x419;" horiz-adv-x="1579" 
d="M743 1453q220 -6 329.5 -118t109.5 -261q-2 -129 -70.5 -250t-177.5 -256q-47 -61 -96.5 -123.5t-89 -121t-64.5 -112.5t-25 -103q0 -41 22.5 -68.5t61.5 -28.5q85 8 229.5 160.5t295.5 351.5q146 197 280 401.5t271 467.5h8q0 -26 12.5 -36.5t34.5 -10.5q25 0 46.5 13
t41.5 34h10q-102 -181 -213.5 -376.5t-210 -378.5t-160 -326.5t-61.5 -215.5q0 -32 16.5 -55.5t51.5 -24.5q27 -1 56.5 23t72.5 84q59 100 77 142.5t31 41.5q8 0 11.5 -4t3.5 -10q-5 -25 -61 -116t-99 -138q-20 -20 -43 -31.5t-51 -12.5q-51 1 -84.5 44.5t-34.5 134.5
q0 100 62.5 264t187.5 406q-337 -484 -520 -670t-263 -179q-62 2 -97 57t-36 153q0 80 22.5 145.5t64.5 128t96.5 129t117.5 148.5q95 126 149.5 233t55.5 189q-2 106 -84 173.5t-213 69.5q-219 -9 -390.5 -163t-180.5 -338q-2 -40 17.5 -87t82.5 -90q-2 14 -4 31t-2 43
q5 166 111.5 298t257.5 140q86 -2 131 -56.5t45 -131.5q-4 -140 -119 -254t-287 -121q-34 0 -60.5 5.5t-45.5 13.5q15 -54 64.5 -111.5t129.5 -62.5q26 0 50 9t42 27q29 34 31 60.5t19 28.5q6 0 9 -5t3 -10q1 -25 -35 -73t-117 -54q-92 4 -146.5 67t-70.5 130
q-79 44 -128 110.5t-50 165.5q5 184 164 319t405 142zM358 812q1 -35 5.5 -54t5.5 -26q15 -5 35.5 -11t52.5 -7q164 9 274.5 133.5t114.5 253.5q-1 66 -38.5 102.5t-96.5 36.5q-132 -8 -239.5 -137.5t-113.5 -290.5zM1316 1598q30 -59 77 -90t97.5 -31t98 32t79.5 97
q8 15 20.5 18.5t30.5 4.5q18 0 25 -12.5t7 -31.5q-26 -53 -67.5 -84.5t-88.5 -44t-95.5 -8.5t-90 22.5t-71.5 50t-39 73.5z" />
    <glyph glyph-name="afii10028" unicode="&#x41a;" horiz-adv-x="2091" 
d="M2124 1312q-66 0 -134 -30.5t-135 -96.5q-141 -150 -234 -349.5t-193.5 -391t-266.5 -319t-454 -133.5q-299 7 -445 120.5t-145 269.5q7 182 147 288.5t326 108.5q138 -2 236 -75.5t102 -188.5q-3 -107 -86 -185.5t-215 -82.5q-89 2 -148 42.5t-61 102.5q1 43 30 73.5
t70 31.5q13 0 18 -2.5t5 -10.5q0 -6 -5 -9t-10 -3q-4 0 -10 2t-14 2q-19 0 -42.5 -21.5t-25.5 -60.5q1 -47 45 -80t123 -34q129 5 215.5 85t89.5 171q-3 83 -78.5 136.5t-185.5 55.5q-176 -5 -327.5 -115.5t-161.5 -263.5q2 -127 120.5 -224.5t323.5 -102.5q229 6 388 122.5
t278.5 296t235.5 368.5t259 337q80 79 158 123t158 61l8 8q-101 39 -246 71t-315 34q-338 -11 -522.5 -160.5t-186.5 -306.5q1 -89 66.5 -160.5t179.5 -75.5q143 8 249 114.5t111 217.5q-1 60 -35.5 90.5t-85.5 30.5q-76 -3 -158 -62.5t-89 -142.5q0 -20 9 -36t30 -17
q12 0 17 -4.5t5 -9.5q0 -7 -4 -9t-12 -2q-27 2 -46 29.5t-20 63.5q4 86 80 150t170 67q75 -1 122 -46t48 -120q-1 -111 -95 -219.5t-265 -116.5q-153 5 -240.5 100t-89.5 217q-4 159 149.5 300t513.5 151q131 0 246 -19.5t209 -45t167 -45t124 -21.5q46 1 67.5 9t30.5 9
q5 0 11 -4.5t6 -13.5q0 -21 -13.5 -40t-42.5 -20q-18 1 -44 8.5t-60 8.5zM1952 -6q-83 0 -154 71t-76 227v239q0 53 -21.5 111.5t-58.5 63.5l-26 -5q-7 1 -13.5 8t-7.5 15q0 9 7 16t16 7q9 -1 18 -6.5t33 -6.5q34 1 76.5 16t77.5 31q49 25 106.5 72t115.5 104.5t112.5 113.5
t97.5 97q206 204 353 274.5t269 65.5q49 0 83.5 -11t35.5 -34q-1 -16 -17 -31t-30 -16q-23 4 -42.5 31t-70.5 31q-44 -1 -108 -27t-127 -72q-98 -75 -185 -157t-170 -161t-169 -148.5t-183 -122.5q-48 -26 -115 -47.5t-93 -22.5l-9 -4q29 -14 56.5 -32.5t50.5 -41.5
q49 -48 72.5 -153.5t23.5 -282.5q2 -95 32.5 -139.5t72.5 -44.5q22 1 39 11.5t30 24.5q59 66 71.5 118.5t31.5 55.5q6 0 8 -3t2 -9q0 -27 -54.5 -120.5t-160.5 -105.5z" />
    <glyph glyph-name="afii10029" unicode="&#x41b;" horiz-adv-x="1921" 
d="M1503 601q-67 -82 -128.5 -164.5t-129.5 -157.5t-148.5 -138.5t-185.5 -108.5q-38 -13 -59 -17t-49 -8q-27 -4 -51.5 -5.5t-46.5 -1.5q-180 0 -322 99q-143 101 -150 299q14 230 190 351q177 120 357 122q169 -4 261 -86q47 -41 69.5 -89.5t24.5 -114.5q-3 -26 -21 -76
q-16 -48 -59 -94q-18 -19 -45 -38.5t-60 -35.5t-72 -26.5t-81 -10.5q-66 2 -130 38q-67 38 -71 105q1 20 7 36t14.5 27t17.5 17t16 6q6 0 10.5 -3t4.5 -9q-3 -17 -27 -30q-24 -14 -27 -48q0 -17 8 -33.5t19 -27.5q21 -22 60 -32.5t108 -10.5q42 7 74.5 18t58 25.5t44.5 30.5
t34 32q23 24 38 46.5t24.5 45t14 45.5t7.5 50q-5 98 -79 144t-177 46q-210 -9 -389 -151q-179 -141 -191 -310q4 -142 109 -230q106 -88 264 -91q33 0 63.5 4t56.5 10t47 13.5t34 15.5q35 13 79.5 38t80.5 51q72 51 169 150q29 29 65.5 68t82.5 90t73.5 80t36.5 39
q19 21 42 45.5t47 50l48 51t44 48.5l77 82.5t66 68.5q151 151 275 225q63 37 115 62t97 38q90 28 136 32q48 6 49 18q-14 18 -189 54q-88 18 -177.5 28t-180.5 12q-420 -14 -589 -165q-169 -150 -163 -267q1 -72 46 -117.5t130 -46.5q151 7 246 105q96 97 99 182
q-5 46 -30 57q-26 10 -30 27q0 10 12 10t24 -9.5t22 -26t16 -38.5t6 -47q-4 -111 -105 -197t-231 -90q-109 2 -185 69t-79 192q-3 145 152 273q156 129 505 136q141 0 262.5 -18t220 -40.5t171 -41.5t114.5 -21q45 3 71 20q25 18 36 21q12 0 17 -8t5 -20q0 -7 -2.5 -16
t-6.5 -17.5t-8 -16t-7 -10.5q-5 -6 -19.5 -8t-54.5 -2q-99 2 -182 -37t-191 -147q-85 -85 -167.5 -196t-161.5 -263l-19 -25q-23 -45 -45 -98t-44 -114q-43 -120 -46 -236q1 -79 29 -121t67 -42q25 2 45.5 16.5t28.5 23.5q62 68 82 121q19 52 33 55q14 0 14 -12
q-2 -20 -60 -111q-57 -91 -143 -105q-91 7 -140 106q-48 99 -48 214q1 85 24.5 159.5t53.5 137.5q25 45 57 93t68.5 96t76.5 95t82 89q55 54 104.5 94.5t94.5 69.5t83 54.5t69 47.5l-2 8q-18 4 -148 -54q-131 -59 -326 -245q-94 -96 -172 -189t-135 -163z" />
    <glyph glyph-name="afii10030" unicode="&#x41c;" horiz-adv-x="2134" 
d="M674 1035q-20 64 107 236t642 194q211 -4 416 -28.5t279 -28.5q52 3 48 25.5t27 25.5q13 0 23 -8t10 -18q2 -10 -14.5 -29t-77.5 -21q-111 3 -250 23t-360 23q-385 -12 -576.5 -165.5t-191.5 -308.5q1 -67 25.5 -101t56.5 -58q0 108 29.5 179.5t88.5 129.5
q61 60 126 87.5t128 27.5q86 -2 137 -52t52 -129q-6 -125 -121 -215t-268 -94q-48 0 -80.5 7.5t-67.5 17.5q19 -70 69 -118t126 -50q68 4 86.5 29.5t30.5 29.5q6 0 7 -3t1 -9q-1 -16 -35 -39t-88 -25q-98 4 -150.5 66t-68.5 133q-81 48 -123.5 114.5t-42.5 151.5zM2990 1445
q-1 -11 -14.5 -28t-34.5 -19q-22 4 -40.5 28.5t-66.5 28.5q-78 -2 -164.5 -54.5t-158.5 -125.5q-209 -226 -408 -615t-213 -565q0 -39 15 -60.5t47 -21.5q27 1 44 11.5t29 23.5q71 78 97 143.5t45 69.5q5 0 8.5 -2.5t3.5 -11.5q-4 -20 -48.5 -92t-80.5 -111
q-12 -13 -38 -28.5t-64 -17.5q-67 2 -100 59t-33 149q30 338 258 640.5t288 350.5q47 48 93.5 87t117.5 93q-109 -51 -213 -130t-186 -163q-86 -84 -167 -187t-164 -223t-171 -255t-186 -285q-44 -70 -74.5 -102t-56.5 -32q-28 2 -36 25.5t-7 47.5q3 129 82.5 307t205.5 354
q175 259 271.5 410t97.5 178q0 7 -3.5 10.5t-8.5 3.5q-39 -4 -146.5 -135t-247 -320.5t-274.5 -368.5t-229 -277q-165 -158 -313.5 -204.5t-247.5 -42.5q-204 3 -339.5 99t-140.5 258q3 153 127 262.5t332 114.5q176 -6 260.5 -87.5t83.5 -168.5q-2 -93 -83.5 -167.5
t-219.5 -78.5q-78 1 -123.5 27.5t-46.5 68.5q1 20 12.5 37.5t22.5 18.5q6 0 8 -3t2 -8q-1 -12 -11.5 -19.5t-12.5 -25.5q1 -34 40.5 -55t106.5 -22q131 3 208 71.5t79 151.5q-1 78 -71 137t-202 62q-182 -4 -322.5 -104.5t-148.5 -250.5q4 -125 107 -202.5t254 -79.5
q114 -5 279 65.5t370 269.5q102 109 217 244t224.5 273.5t202.5 251t159 176.5q38 37 60 50.5t38 12.5q18 0 28.5 -12.5t10.5 -40.5q1 -75 -85 -271.5t-275 -474.5q-87 -121 -190.5 -287.5t-112.5 -234.5q0 -12 3.5 -17t12.5 -5q27 4 100.5 116.5t181 283.5t239.5 354.5
t278 326.5q184 184 372.5 283t354.5 100q41 0 71 -10.5t31 -32.5zM1206 1201q-153 -8 -252 -124t-102 -247l4 -45q22 -11 50 -18.5t65 -7.5q141 5 261 99.5t128 211.5q0 55 -37 92.5t-117 38.5z" />
    <glyph glyph-name="afii10031" unicode="&#x41d;" horiz-adv-x="2048" 
d="M2073 1388q43 3 61 26.5t37 26.5q12 0 19.5 -11t7.5 -28q0 -16 -5.5 -27.5t-11.5 -17.5q-27 -18 -107.5 -33.5t-185.5 -112.5q-51 -47 -89 -103t-68.5 -119.5t-60.5 -137.5t-62 -160l309 78q155 282 387.5 488.5t380.5 216.5q38 0 57 -18.5t19 -51.5q3 -77 -161 -257.5
t-527 -348.5q-80 -128 -169.5 -336t-97.5 -344q1 -56 22.5 -86.5t51.5 -30.5q23 0 37.5 10t28.5 25q68 75 87.5 134t37.5 62q6 0 9 -2.5t3 -9.5q-3 -29 -65 -124.5t-140 -109.5q-40 -2 -83 49.5t-46 196.5q0 82 14.5 156t38 138.5t49 118.5t45.5 97l-303 -77
q-46 -118 -112.5 -235t-165.5 -218q-72 -72 -137 -111.5t-164 -76.5q33 -54 102.5 -95t159.5 -44q56 2 107 22t79 46q28 33 36 53.5t24 21.5q7 0 9.5 -3t2.5 -12q-1 -26 -67.5 -82t-188.5 -64q-98 3 -175 47t-112 105q-5 -2 -62.5 -12t-158.5 -13q-279 6 -420 116t-141 262
q7 178 139.5 278.5t308.5 102.5q159 -4 245 -78.5t87 -175.5q-1 -85 -74.5 -158t-209.5 -78q-96 2 -152 41.5t-57 91.5q0 18 5.5 24t14.5 5q6 0 7 -3.5t1 -12.5l-2 -23q0 -42 43 -68.5t123 -27.5q132 4 208 71.5t77 143.5q-1 82 -77 140t-214 61q-164 -2 -303 -91.5
t-148 -244.5q-2 -119 105.5 -227.5t355.5 -116.5q80 1 148 17t121 40q-5 15 -8 36.5t-3 45.5q-5 109 104 243.5t396 233.5q41 82 83 159t84 145.5t87 128t94 106.5q113 104 179 130.5t67 43.5q-12 20 -164 43.5t-301 25.5q-411 -19 -547 -190t-125 -264q0 -69 38.5 -123
t109.5 -78q-6 17 -11.5 40t-5.5 52q7 165 104 261t201 98q83 -3 123.5 -54t40.5 -114q-4 -115 -104 -211.5t-250 -102.5l-61 2q10 -15 43 -48.5t94 -37.5q27 1 40.5 11.5t20.5 11.5q6 0 9.5 -2t3.5 -8q-1 -14 -22.5 -21.5t-47.5 -7.5q-61 3 -106.5 40.5t-61.5 68.5
q-82 22 -156.5 99t-79.5 204q-9 123 133 260t537 149q198 -4 350.5 -35.5t223.5 -35.5zM1337 1203q-91 -4 -181 -104.5t-97 -245.5q0 -33 5.5 -52t10.5 -38q13 -4 23.5 -5t27.5 -1q158 9 245.5 116.5t88.5 202.5q-1 50 -33 87.5t-90 39.5zM2685 1455q-47 0 -113.5 -41
t-142.5 -117q-105 -107 -187.5 -229t-150.5 -240q291 134 467.5 307.5t181.5 268.5q-1 24 -17 37.5t-38 13.5zM1438 617q-201 -64 -332.5 -181.5t-136.5 -268.5q0 -17 3.5 -40.5t6.5 -35.5q157 87 271.5 239.5t187.5 286.5z" />
    </font>
</defs>
</svg>
